<svg width="120" height="119" viewBox="0 0 120 119" fill="none" xmlns="http://www.w3.org/2000/svg">
<path fill-rule="evenodd" clip-rule="evenodd" d="M44.2 117.1C22.7 110.3 7.50001 94.1 2.40001 72.6C-4.89999 41.3 16.5 8.2 48.5 1.5C68.4 -2.8 88.2 3.1 102.5 17.4C114.6 29.6 120 42.8 120 60.7C120 76.7 115 88.8 103.6 100.8C96.8 107.8 88.9 113 80.5 116C72.2 118.9 51.9 119.6 44.2 117.1ZM48.7 114.5C40.4 112.5 29.6 107 23.5 101.6C18.9 97.6 18.6 97 20 95.4C22.7 92.2 26.9 91.1 35.4 91.6C39.8 91.9 44.8 92.6 46.5 93.2C49.5 94.3 56.6 99 69.3 108.3C75.5 112.8 76 113.4 74.1 114.1C69.8 115.8 55.1 116 48.7 114.5ZM69.7 104.2C64.1 99.9 57.8 95.3 55.7 94.1C53.6 92.8 52 91.4 52 90.9C52 88.6 56.9 86 66.7 83C72.6 81.2 81.6 78 86.6 75.8C96.7 71.6 101.5 71.1 109 73.4C112.8 74.5 113.4 75.1 113.3 77.2C112.7 86.1 97.9 103.9 86.7 109.2C83.5 110.7 80.7 112 80.5 112C80.2 112 75.3 108.4 69.7 104.2ZM11 85C8.90001 80.6 6.60001 74.4 5.90001 71.2C4.50001 64.5 5.20001 49 7.00001 44.3C8.20001 41.6 8.90001 41.1 14.5 40.1C24 38.3 30.7 38.7 35.8 41.1L40.2 43.3L39.6 49.9C39.2 53.5 39 63 38.9 71C38.9 78.9 38.5 86.1 38 86.8C37.4 87.8 35.3 88.2 30.7 88.1C25.3 87.9 23.7 88.3 20.6 90.4C18.6 91.8 16.5 93 16 93C15.4 93 13.2 89.4 11 85ZM47.5 83.5C43.5 81 41.6 74.2 42.4 65.2C42.7 60.9 43.3 54.3 43.6 50.5L44.2 43.6L52.6 33.7C63.6 20.7 65.3 17.3 64.7 9.8C64.2 4.3 64.3 4 66.3 4C72.5 4 87.1 9.6 93.9 14.6C98.9 18.3 106 26.2 109 31.5L112.1 36.9L108.5 40.6C105.3 43.9 101 53 101 56.4C101 57.2 100.1 59.8 99 62.3C97.2 66.6 96.4 67.2 87.8 71.3C82.6 73.7 74.3 76.9 69.3 78.3C64.3 79.7 58.1 81.8 55.6 82.9C50.1 85.3 50.5 85.3 47.5 83.5ZM107.2 68.9C105.2 67.8 103.2 66.6 102.7 66.1C101.4 64.8 107.7 46.8 110.7 43.7C113.3 41 113.4 41 114.1 42.9C115.9 47.7 117.1 58.5 116.6 64.5C116 70.6 115.8 71 113.5 71C112.1 71 109.3 70 107.2 68.9ZM36.2 37.7C34.1 36.5 32.3 35.3 32.1 35.2C31.8 35.1 33.3 33.2 35.2 31.1C37.1 28.9 40.5 24.3 42.6 20.7C45.2 16.2 47.8 13.3 50.7 11.6C53.2 10 55.1 8 55.5 6.5C56.2 3.6 59.4 3 60.3 5.5C61.9 9.6 60.9 16.7 58.2 20.7C53 28.4 42.9 40 41.5 40C40.6 40 38.3 38.9 36.2 37.7ZM10 36.1C10 34.3 17.9 23.2 22.1 19.3C27.1 14.5 37.5 8 40.1 8C41.2 8 42.2 8.9 42.5 10.3C43.2 13.2 37.4 23.5 31.2 30.1C27.4 34.2 26.3 34.7 21.4 35.3C18.4 35.7 14.6 36.2 13 36.5C11.3 36.7 10 36.6 10 36.1ZM45.4 8.3C44.8 6.3 46.5 5 49.7 5C52.9 4.9 52.5 6.7 49 8.5C46.2 9.8 45.9 9.8 45.4 8.3Z" fill="#D3A34C"/>
</svg>
