<svg width="1000" height="667" viewBox="0 0 1000 667" fill="none" xmlns="http://www.w3.org/2000/svg">
<path d="M227.603 130.978C266.445 100.201 319.483 94.5659 364.784 111.678C424.969 134.411 469.267 191.989 527.72 219.638C568.771 239.055 615.912 242.531 658.963 229.315C679.908 222.885 700.281 212.577 722.023 211.886C741.279 211.274 760.299 218.422 776.668 229.567C824.837 262.366 849.016 332.321 832.783 391.923C824.091 423.835 805.431 451.549 783.692 474.794C738.785 522.818 679.211 554.03 616.944 562.159C582.192 566.697 546.935 564.234 512.308 558.661C436.852 546.513 362.509 519.002 300.375 470.475C225.992 412.386 152.272 311.05 180.124 205.422C187.92 175.854 204.833 149.018 227.603 130.978Z" fill="#BCDFFD"/>
<path d="M810.7 216.303C808.252 210.051 806.223 202.11 810.342 197.023C811.887 195.115 814.094 193.979 816.351 193.368C827.239 190.427 837.919 198.803 845.512 207.858C852.574 216.276 858.599 225.742 863.371 235.915C865.806 241.106 867.944 246.592 868.454 252.403C868.966 258.214 867.658 264.442 863.964 268.644C839.115 296.936 817.484 233.634 810.7 216.303Z" fill="#BCDFFD"/>
<path d="M607.367 393.869C621.281 380.257 640.066 424.775 646.562 441.77L659.575 426.837C650.469 415.977 617.606 373.975 644.566 363.334C663.121 356.007 662.703 406.946 662.058 423.989L679.633 403.819C675.094 393.341 653.375 339.693 683.393 337.365C703.499 335.805 687.554 385.461 682.083 401.007L700.785 379.546C707.725 362.777 727.757 318.682 741.303 332.686C760.375 352.399 719.058 375.549 703.735 383.17L685.893 403.646C701.614 394.297 743.767 371.173 746.237 390.433C750.021 419.946 694.435 410.182 682.342 407.719L663.299 429.571C676.535 426.161 732.299 412.962 728.713 433.73C723.545 463.651 671.318 436.295 661.949 431.122L648.389 446.685C648.467 446.906 648.541 447.113 648.602 447.285C663.538 449.538 717.515 458.982 706.387 476.363C690.475 501.217 654.591 458.965 646.498 448.853L616.455 483.33L612.985 480.303L643.462 445.327C628.299 437.25 587.791 413.019 607.367 393.869Z" fill="#35C4A6"/>
<path d="M733.221 460.521C725.833 463.919 718.137 466.87 710.693 469.722C702.639 472.81 694.309 476.002 686.409 479.754C666.213 489.343 635.032 512.418 646.268 538.07C655.56 559.29 695.725 553.445 710.907 547.434C723.973 542.259 735.067 532.95 743.271 525.421C759.248 510.757 769.588 497.434 775.811 483.491C784.031 465.073 785.493 444.694 786.361 423.691C786.363 423.645 786.369 423.511 786.203 423.438C786.052 423.371 785.972 423.453 785.94 423.486C770.685 438.987 752.948 451.446 733.221 460.521ZM679.292 556.072C663.985 556.072 649.067 551.866 643.547 539.263C631.4 511.526 663.972 487.118 685.135 477.07C693.139 473.27 701.524 470.055 709.631 466.949C717.028 464.111 724.68 461.181 731.979 457.823C751.377 448.899 768.82 436.646 783.821 421.402C784.759 420.45 786.155 420.181 787.387 420.714C788.624 421.251 789.387 422.469 789.331 423.815C788.448 445.115 786.959 465.805 778.525 484.701C772.132 499.028 761.567 512.659 745.277 527.607C736.887 535.313 725.52 544.842 712 550.195C703.88 553.41 691.463 556.072 679.292 556.072Z" fill="#35C4A6"/>
<path d="M414.377 473.094C400.465 459.483 381.678 504 375.182 520.996L362.169 506.062C371.276 495.203 404.14 453.202 377.178 442.559C358.624 435.232 359.042 486.172 359.688 503.214L342.112 483.044C346.65 472.566 368.369 418.918 338.353 416.59C318.246 415.03 334.192 464.686 339.661 480.232L320.96 458.771C314.021 442.002 293.988 397.907 280.441 411.911C261.369 431.626 302.688 454.775 318.009 462.395L335.853 482.871C320.13 473.522 277.977 450.398 275.508 469.658C271.724 499.171 327.309 489.407 339.402 486.946L358.445 508.796C345.21 505.387 289.445 492.188 293.032 512.955C298.2 542.878 350.426 515.52 359.796 510.347L373.357 525.91C373.277 526.132 373.204 526.339 373.144 526.51C358.208 528.763 304.229 538.208 315.357 555.59C331.27 580.443 367.154 538.19 375.246 528.078L405.29 562.555L408.761 559.528L378.282 524.554C393.445 516.476 433.953 492.246 414.377 473.094Z" fill="#35C4A6"/>
<path d="M364.258 451.13C360.527 430.044 352.929 409.649 341.969 391.252C341.158 389.889 342.47 388.249 343.985 388.713C363.706 394.76 383.618 401.468 399.657 414.329C413.715 425.602 423.935 440.965 432.36 456.894C438.58 468.653 444.014 481.088 445.619 494.293C447.862 512.733 442.165 552.43 418.949 556.098C389.857 560.696 375.185 523.342 371.009 501.306C367.865 484.71 367.199 467.758 364.258 451.13Z" fill="#35C4A6"/>
<path d="M758.506 94.9005L757.672 93.5898C760.853 91.5645 764.528 90.4004 768.301 90.2258L768.373 91.7764C764.87 91.9404 761.458 93.0205 758.506 94.9005ZM786.212 100.851C784.284 97.9244 781.616 95.5351 778.496 93.9458L779.202 92.5618C782.561 94.2738 785.434 96.8445 787.512 99.9965L786.212 100.851ZM747.596 112.643C747.589 112.411 747.586 112.178 747.588 111.944C747.588 108.406 748.458 104.89 750.106 101.779L751.478 102.506C749.949 105.394 749.141 108.659 749.141 111.95C749.14 112.167 749.142 112.379 749.149 112.59L747.596 112.643ZM788.236 122.727L786.885 121.956C788.617 118.926 789.534 115.464 789.534 111.95C789.533 111.52 789.518 111.092 789.492 110.667L791.042 110.571C791.072 111.026 791.086 111.484 791.088 111.948C791.088 115.735 790.101 119.462 788.236 122.727ZM758.864 131.016C755.56 129.198 752.769 126.538 750.794 123.322L752.117 122.51C753.953 125.495 756.544 127.967 759.612 129.655L758.864 131.016ZM769.684 133.698L769.658 132.144C773.169 132.09 776.613 131.119 779.621 129.336L780.413 130.674C777.173 132.592 773.464 133.639 769.684 133.698" fill="#BCDFFD"/>
<path d="M101.139 342.669L100.899 341.135C104.346 340.597 107.869 340.324 111.373 340.324H111.401L111.858 340.325L111.842 341.879L111.401 341.877C108.01 341.849 104.515 342.143 101.139 342.669ZM132.935 345.471C129.562 344.308 126.063 343.413 122.537 342.813L122.798 341.281C126.407 341.896 129.989 342.811 133.443 344.003L132.935 345.471ZM80.8233 349.371L80.102 347.993C83.3446 346.296 86.7486 344.855 90.2206 343.711L90.7073 345.185C87.3166 346.304 83.9913 347.711 80.8233 349.371ZM151.763 355.647C148.935 353.46 145.909 351.487 142.766 349.789L143.505 348.423C146.721 350.161 149.819 352.18 152.714 354.42L151.763 355.647ZM63.7233 362.229L62.6006 361.155C65.1353 358.511 67.8993 356.057 70.818 353.864L71.7513 355.104C68.8993 357.249 66.198 359.645 63.7233 362.229ZM166.358 371.297C164.377 368.327 162.135 365.496 159.695 362.881L160.833 361.823C163.329 364.497 165.622 367.395 167.65 370.435L166.358 371.297ZM51.6046 379.871L50.198 379.209C51.7513 375.903 53.5913 372.695 55.666 369.677L56.946 370.557C54.9193 373.505 53.1233 376.639 51.6046 379.871ZM175.186 390.78C174.262 387.332 173.045 383.932 171.57 380.676L172.985 380.036C174.495 383.367 175.741 386.848 176.686 390.38L175.186 390.78ZM45.79 400.464L44.2446 400.291C44.654 396.647 45.3633 393.021 46.3566 389.509L47.8513 389.931C46.8833 393.361 46.1886 396.905 45.79 400.464V400.464ZM178.099 418.853L176.565 418.604C177.138 415.092 177.427 411.495 177.427 407.905C177.427 405.719 177.319 403.509 177.106 401.34L178.651 401.189C178.87 403.408 178.982 405.668 178.982 407.905C178.982 411.579 178.685 415.261 178.099 418.853V418.853ZM45.3273 422.161C44.562 418.597 44.0833 414.932 43.902 411.267L45.454 411.192C45.63 414.771 46.098 418.353 46.846 421.833L45.3273 422.161ZM171.098 439.612L169.726 438.88C171.406 435.727 172.837 432.408 173.981 429.021L175.451 429.519C174.282 432.985 172.817 436.381 171.098 439.612V439.612ZM53.354 442.531C51.4766 439.392 49.846 436.077 48.506 432.679L49.9513 432.108C51.2606 435.428 52.854 438.667 54.6873 441.733L53.354 442.531ZM157.814 457.024L156.747 455.896C159.345 453.44 161.761 450.755 163.929 447.915L165.163 448.857C162.945 451.764 160.473 454.513 157.814 457.024V457.024ZM67.478 459.264C64.698 456.885 62.094 454.263 59.7366 451.471L60.9246 450.469C63.2273 453.197 65.7726 455.76 68.4886 458.085L67.478 459.264ZM139.685 469.3L139.034 467.888C142.275 466.395 145.418 464.619 148.378 462.615L149.249 463.901C146.221 465.953 143.002 467.768 139.685 469.3V469.3ZM86.206 470.632C82.81 469.265 79.5033 467.611 76.3766 465.711L77.1846 464.383C80.238 466.24 83.4686 467.857 86.7846 469.191L86.206 470.632ZM118.569 475.108L118.407 473.564C121.966 473.188 125.514 472.519 128.953 471.572L129.365 473.072C125.845 474.039 122.213 474.725 118.569 475.108V475.108ZM107.589 475.38C103.927 475.177 100.266 474.673 96.7073 473.884L97.0433 472.367C100.521 473.139 104.098 473.629 107.675 473.829L107.589 475.38Z" fill="#BCDFFD"/>
<path d="M914.514 361.636L913.641 360.352C916.761 358.229 920.218 356.805 923.918 356.118L924.2 357.646C920.714 358.293 917.456 359.636 914.514 361.636ZM944.188 362.268C941.334 360.142 938.134 358.664 934.678 357.869L935.028 356.354C938.693 357.198 942.088 358.768 945.117 361.02L944.188 362.268ZM903.565 378.986L902.03 378.752C902.592 375.03 903.898 371.528 905.913 368.338L907.226 369.169C905.328 372.173 904.097 375.477 903.565 378.986V378.986ZM954.392 380.057C954.012 376.53 952.922 373.178 951.153 370.097L952.498 369.324C954.377 372.593 955.534 376.148 955.937 379.889L954.392 380.057ZM953.832 393.73L952.41 393.109C953.826 389.869 954.544 386.417 954.544 382.85H956.097C956.097 386.632 955.336 390.293 953.832 393.73ZM907.63 399.774C905.278 396.821 903.597 393.481 902.632 389.849L904.134 389.448C905.044 392.873 906.629 396.021 908.848 398.806L907.63 399.774ZM937.876 408.524L937.365 407.057C940.709 405.889 943.726 404.07 946.338 401.649L947.393 402.786C944.625 405.356 941.422 407.285 937.876 408.524ZM926.858 409.961C923.094 409.68 919.501 408.642 916.18 406.876L916.908 405.504C920.038 407.166 923.425 408.146 926.973 408.412L926.858 409.961Z" fill="#BCDFFD"/>
<path d="M728.168 90.9765C728.168 96.1245 723.995 100.298 718.847 100.298C713.697 100.298 709.525 96.1245 709.525 90.9765C709.525 85.8285 713.697 81.6552 718.847 81.6552C723.995 81.6552 728.168 85.8285 728.168 90.9765Z" fill="#BCDFFD"/>
<path d="M120.723 317.021C120.723 321.741 116.897 325.566 112.177 325.566C107.459 325.566 103.633 321.741 103.633 317.021C103.633 312.302 107.459 308.477 112.177 308.477C116.897 308.477 120.723 312.302 120.723 317.021Z" fill="#BCDFFD"/>
<path d="M913.043 351.977C913.043 355.407 910.26 358.19 906.828 358.19C903.396 358.19 900.614 355.407 900.614 351.977C900.614 348.545 903.396 345.762 906.828 345.762C910.26 345.762 913.043 348.545 913.043 351.977Z" fill="#BCDFFD"/>
<path d="M375.508 97.9675C375.508 100.97 373.073 103.405 370.071 103.405C367.067 103.405 364.633 100.97 364.633 97.9675C364.633 94.9648 367.067 92.5301 370.071 92.5301C373.073 92.5301 375.508 94.9648 375.508 97.9675Z" fill="#BCDFFD"/>
<path d="M340.591 181.796H288.532C285.087 181.796 282.294 184.589 282.294 188.034V221.593C282.294 225.038 285.087 227.832 288.532 227.832H304.028L308.923 236.308L314.562 246.074L320.2 236.308L325.094 227.832H340.591C344.036 227.832 346.83 225.038 346.83 221.593V188.034C346.83 184.589 344.036 181.796 340.591 181.796Z" fill="white"/>
<path d="M304.167 278.636C293.288 271.932 286.509 285.015 286.468 285.095C286.425 285.015 279.647 271.932 268.768 278.636C256.273 286.338 268.485 310.664 286.465 316.567V316.568C286.467 316.568 286.467 316.567 286.468 316.567L286.469 316.568L286.471 316.567C304.449 310.664 316.663 286.338 304.167 278.636Z" fill="#FF5C5B"/>
<path d="M231.954 208.397C236.466 208.953 241.042 208.98 245.56 208.479C246.648 208.357 247.768 208.193 248.696 207.615C249.624 207.036 250.31 206.032 250.074 204.964C250.895 204.953 251.566 204.336 252.15 203.757C252.388 203.521 252.631 203.279 252.779 202.976C252.948 202.627 252.976 202.227 252.955 201.839C252.892 200.612 252.32 199.479 251.25 198.876C252.227 198.588 253.036 197.784 253.331 196.808C253.626 195.832 253.398 194.715 252.743 193.932C252.311 193.415 251.79 193.159 251.164 192.907C251.61 192.509 252.231 192.312 252.578 191.828C253.06 191.156 252.798 190.152 252.188 189.593C251.578 189.035 250.722 188.835 249.898 188.759C248.396 188.62 246.887 188.823 245.38 188.879C243.872 188.935 242.243 188.655 240.907 187.956C240.618 185.968 241.092 183.893 240.56 181.955C239.907 179.576 237.634 177.737 235.171 177.596C234.702 177.569 234.17 177.627 233.87 177.989C233.648 178.257 233.607 178.628 233.606 178.976C233.598 180.581 234.203 182.116 234.571 183.679C234.939 185.241 235.034 187.011 234.12 188.331C233.763 188.847 233.27 189.265 232.978 189.821C232.575 190.587 232.612 191.501 232.403 192.341C232.196 193.18 231.538 194.06 230.678 193.973L231.954 208.397Z" fill="white"/>
<path d="M231.216 210.083H225.828C225.411 210.083 225.071 209.745 225.071 209.326V190.553C225.071 190.134 225.411 189.794 225.828 189.794H231.216C231.635 189.794 231.973 190.134 231.973 190.553V209.326C231.973 209.745 231.635 210.083 231.216 210.083Z" fill="#121B46"/>
<path d="M229.196 192.32C229.196 192.786 228.819 193.162 228.355 193.162C227.889 193.162 227.512 192.786 227.512 192.32C227.512 191.855 227.889 191.479 228.355 191.479C228.819 191.479 229.196 191.855 229.196 192.32Z" fill="white"/>
<path d="M784.134 238.76H732.075C728.63 238.76 725.837 241.553 725.837 244.998V278.557C725.837 282.002 728.63 284.794 732.075 284.794H747.573L752.466 293.272L758.106 303.038L763.745 293.272L768.638 284.794H784.134C787.579 284.794 790.374 282.002 790.374 278.557V244.998C790.374 241.553 787.579 238.76 784.134 238.76Z" fill="#FDB32C"/>
<path d="M753.952 276.754C758.465 277.31 763.041 277.337 767.56 276.835C768.647 276.715 769.767 276.551 770.696 275.971C771.624 275.393 772.309 274.389 772.073 273.321C772.895 273.31 773.565 272.693 774.148 272.114C774.388 271.878 774.631 271.635 774.777 271.333C774.948 270.983 774.976 270.583 774.955 270.195C774.891 268.969 774.319 267.835 773.249 267.234C774.225 266.945 775.036 266.141 775.329 265.165C775.625 264.189 775.396 263.071 774.743 262.289C774.311 261.771 773.789 261.515 773.164 261.263C773.608 260.866 774.229 260.669 774.577 260.185C775.059 259.513 774.797 258.509 774.188 257.95C773.577 257.391 772.721 257.191 771.897 257.115C770.396 256.977 768.885 257.179 767.379 257.235C765.872 257.293 764.243 257.011 762.907 256.314C762.616 254.325 763.091 252.25 762.56 250.311C761.907 247.933 759.633 246.094 757.169 245.954C756.7 245.927 756.169 245.983 755.868 246.346C755.647 246.614 755.607 246.985 755.604 247.333C755.596 248.938 756.201 250.473 756.571 252.035C756.937 253.598 757.033 255.367 756.12 256.687C755.763 257.203 755.268 257.622 754.977 258.178C754.575 258.943 754.611 259.858 754.403 260.698C754.195 261.537 753.537 262.418 752.677 262.33L753.952 276.754Z" fill="white"/>
<path d="M753.215 278.441H747.827C747.409 278.441 747.069 278.102 747.069 277.683V258.909C747.069 258.491 747.409 258.151 747.827 258.151H753.215C753.633 258.151 753.972 258.491 753.972 258.909V277.683C753.972 278.102 753.633 278.441 753.215 278.441Z" fill="#121B46"/>
<path d="M751.195 260.677C751.195 261.142 750.818 261.518 750.353 261.518C749.889 261.518 749.51 261.142 749.51 260.677C749.51 260.212 749.889 259.836 750.353 259.836C750.818 259.836 751.195 260.212 751.195 260.677Z" fill="white"/>
<path d="M756.802 556.022H741.653C742.837 565.342 743.779 572.448 744.183 575.461C744.183 575.461 733.609 582.638 726.433 581.71C726.031 581.658 725.619 581.794 725.382 582.122C725.063 582.56 724.831 583.266 725.527 584.145C725.73 584.401 726.05 584.54 726.377 584.54H754.913C755.983 584.54 756.891 583.757 757.046 582.697C757.229 581.437 757.337 578.544 756.569 575.892L756.802 556.022Z" fill="#CC6F49"/>
<path d="M740.111 577.999C740.111 577.999 742.636 579.649 743.024 581.397C743.22 582.279 745.959 582.123 748.627 581.752C751.344 581.373 753.861 580.211 756.101 578.628C756.527 578.328 756.923 578.137 757.2 578.193C758.171 578.387 758.075 584.309 756.909 584.796C755.836 585.243 729.656 584.865 725.513 584.804C725.193 584.8 724.937 584.547 724.935 584.225C724.923 583.221 725.095 581.225 726.615 581.009C728.653 580.717 740.111 577.999 740.111 577.999Z" fill="#121B46"/>
<path d="M791.647 556.022H776.498L780.207 575.892C779.903 578.544 780.518 581.437 780.922 582.697C781.262 583.757 782.307 584.54 783.378 584.54H807.079C807.084 583.525 807.112 582.509 807.134 581.494C800.416 580.249 792.518 575.461 792.518 575.461C792.395 572.448 792.095 565.342 791.647 556.022Z" fill="#CC6F49"/>
<path d="M797.19 577.999C797.19 577.999 794.665 579.649 794.277 581.397C794.081 582.279 791.342 582.123 788.674 581.752C785.957 581.373 783.439 580.211 781.199 578.628C780.774 578.328 780.378 578.137 780.101 578.193C779.129 578.387 779.226 584.309 780.391 584.796C781.465 585.243 807.645 584.865 811.786 584.804C812.107 584.8 812.362 584.547 812.366 584.225C812.378 583.221 812.206 581.225 810.686 581.009C808.647 580.717 797.19 577.999 797.19 577.999Z" fill="#121B46"/>
<path d="M738.784 378.527C738.784 378.527 729.98 386.554 730.756 393.027C731.534 399.499 737.489 419.178 735.677 432.643C733.865 446.107 729.721 457.759 730.756 471.999C731.793 486.241 740.596 565.214 740.596 565.214C740.596 565.214 760.533 558.482 767.525 561.589C774.516 564.697 793.677 567.285 796.265 566.25C796.265 566.25 791.865 459.831 777.365 439.893C777.365 439.893 774.774 411.281 777.3 404.873C779.824 398.465 776.717 380.793 770.309 378.657C763.9 376.521 738.784 378.527 738.784 378.527Z" fill="#FDB32C"/>
<path d="M745.16 388.464C750.052 387.846 754.873 387.273 759.657 386.442C762.051 386.042 764.415 385.529 766.78 384.985C769.135 384.397 771.453 383.702 773.803 382.929C769.648 385.646 764.775 387.104 759.923 387.973C757.48 388.372 755.021 388.652 752.552 388.74C750.087 388.833 747.612 388.794 745.16 388.464Z" fill="#121B46"/>
<path d="M750.694 515.374C754.058 511.23 757.43 507.192 760.593 502.974C763.793 498.784 766.766 494.446 769.846 490.084C767.845 495.043 765.038 499.64 761.831 503.911C758.586 508.154 754.921 512.102 750.694 515.374Z" fill="#121B46"/>
<path d="M760.913 513.311C761.586 511.013 762.651 508.985 763.814 507.009C765.018 505.061 766.319 503.174 768.045 501.51C767.391 503.781 766.315 505.829 765.142 507.813C763.929 509.773 762.615 511.677 760.913 513.311Z" fill="#121B46"/>
<path d="M761.299 434.212C761.397 432.991 753.239 430.814 753.558 429.982C753.842 429.244 755.907 428.963 756.986 429.004C757.211 429.012 757.383 428.836 757.361 428.608C757.313 428.159 757.047 427.502 755.915 427.386C754.45 427.235 751.554 426.996 748.17 427.986C748.166 427.984 748.166 427.986 748.162 427.982C747.755 427.754 744.161 425.79 738.795 422.834C737.847 426.038 736.971 429.288 735.77 432.335C739.365 433.027 743.009 433.536 746.686 433.794V433.762L746.689 433.752C748.678 435.603 753.525 439.927 756.218 440.758C756.438 440.827 756.614 440.638 756.538 440.418C756.377 439.958 755.786 439.086 753.847 437.627C753.847 437.627 758.598 439.622 759.458 439.268C760.319 438.915 754.641 435.524 754.641 435.524C754.641 435.524 760.218 437.198 760.817 436.594C761.414 435.988 755.414 433.311 755.414 433.311C755.414 433.311 761.261 434.703 761.299 434.212" fill="#CC6F49"/>
<path d="M735.936 381.116C735.936 381.116 724.672 392.639 718.328 401.572C711.984 410.505 710.689 415.424 712.243 420.991C713.797 426.559 723.507 429.795 726.355 430.7C729.203 431.607 743.185 434.197 743.185 434.197L745.516 425.912L729.333 416.589L745.905 392.768L735.936 381.116Z" fill="#FDB32C"/>
<path d="M723.41 414.388C724.519 414.399 725.549 414.621 726.562 414.88C727.573 415.149 728.547 415.515 729.502 415.924L728.599 417.012C727.951 415.805 727.389 414.549 727.101 413.127C728.234 414.032 729.095 415.107 729.874 416.232L731.134 418.055L728.969 417.319C727.983 416.984 727.014 416.605 726.083 416.131C725.157 415.644 724.242 415.124 723.41 414.388Z" fill="#121B46"/>
<path d="M737.684 407.301C738.357 405.793 739.362 404.626 740.444 403.54C741.56 402.488 742.757 401.518 744.286 400.892C743.614 402.402 742.61 403.569 741.526 404.654C740.406 405.704 739.212 406.672 737.684 407.301Z" fill="#121B46"/>
<path d="M779.392 438.857H730.454V409.469C730.454 408.254 731.44 407.269 732.656 407.269H777.192C778.408 407.269 779.392 408.254 779.392 409.469V438.857Z" fill="#DFDFDF"/>
<path d="M779.392 438.34H730.455V441.965H779.392V438.34Z" fill="#A1B0CF"/>
<path d="M759.325 424.357C759.325 426.788 757.353 428.76 754.923 428.76C752.492 428.76 750.521 426.788 750.521 424.357C750.521 421.926 752.492 419.956 754.923 419.956C757.353 419.956 759.325 421.926 759.325 424.357Z" fill="white"/>
<path d="M782.211 432.225L781.392 431.203C781.188 431.239 781.007 431.293 780.81 431.335C780.502 431.137 780.186 430.947 779.88 430.745C779.608 431.256 779.431 431.587 779.374 431.696C779.371 431.697 779.372 431.697 779.371 431.7C775.991 432.725 773.695 434.516 772.55 435.447C771.668 436.164 771.806 436.86 772.012 437.261C772.118 437.467 772.358 437.517 772.543 437.387C773.422 436.761 775.303 435.864 775.944 436.327C776.668 436.848 771.038 443.14 771.79 444.108C772.09 444.497 776.218 440.129 776.218 440.129C776.218 440.129 772.667 445.656 773.498 445.835C774.328 446.013 778.076 441.556 778.076 441.556C778.076 441.556 775.187 447.504 776.1 447.327C777.014 447.151 779.894 442.879 779.894 442.879C779.072 445.163 779.056 446.215 779.174 446.689C779.23 446.915 779.48 446.976 779.627 446.799C781.423 444.629 783.106 438.364 783.756 435.723L783.77 435.735L783.786 435.751C784.411 435.275 785.008 434.767 785.62 434.275C784.47 433.608 783.335 432.921 782.211 432.225Z" fill="#CC6F49"/>
<path d="M772.444 380.21C772.444 380.21 776.847 382.022 779.305 383.575C781.765 385.13 804.94 404.938 805.199 410.634C805.459 416.331 784.872 436.268 784.872 436.268L779.565 430.96L787.851 413.612L765.324 392.768L772.444 380.21Z" fill="#FDB32C"/>
<path d="M790.699 409.728C790.52 410.587 790.183 411.329 789.814 412.048C789.423 412.753 788.999 413.433 788.499 414.059L787.287 415.572L787.126 413.689C787.072 413.057 787.078 412.42 787.127 411.776C787.183 411.133 787.272 410.485 787.495 409.825C787.846 410.427 788.063 411.041 788.25 411.66C788.43 412.28 788.563 412.904 788.639 413.533L787.267 413.165C787.706 412.496 788.222 411.881 788.768 411.291C789.338 410.715 789.939 410.164 790.699 409.728Z" fill="#121B46"/>
<path d="M780.6 430.021C781.88 430.232 782.87 430.818 783.792 431.493C784.684 432.208 785.507 433.012 786.038 434.197C784.756 433.99 783.767 433.402 782.847 432.725C781.956 432.008 781.134 431.204 780.6 430.021Z" fill="#121B46"/>
<path d="M777.493 404.096L769.92 400.018L776.813 406.815L777.493 404.096Z" fill="#121B46"/>
<path d="M771.867 354.688C771.438 353.341 770.002 352.262 768.567 352.612C769.203 333.884 753.591 336.406 753.591 336.406C743.791 337.257 742.672 347.673 742.746 352.978C742.43 352.793 742.131 352.656 741.966 352.613C740.53 352.256 739.087 353.337 738.658 354.688C738.315 355.764 738.547 356.98 739.162 357.926C739.672 358.713 740.5 359.446 741.386 359.784C741.587 359.861 742.419 359.998 743.095 359.981C744.61 372.225 755.702 371.02 755.702 371.02C765.319 371.496 767.815 364.777 768.375 359.929C768.728 359.884 769.03 359.826 769.139 359.784C770.024 359.446 770.852 358.713 771.363 357.926C771.978 356.98 772.21 355.764 771.867 354.688Z" fill="#CC6F49"/>
<path d="M760.371 359.365C760.371 361.098 761.775 362.502 763.508 362.502C765.239 362.502 766.643 361.098 766.643 359.365C766.643 357.633 765.239 356.227 763.508 356.227C761.775 356.227 760.371 357.633 760.371 359.365Z" fill="#C4533A"/>
<path d="M744.76 359.365C744.76 361.098 746.164 362.502 747.898 362.502C749.628 362.502 751.034 361.098 751.034 359.365C751.034 357.633 749.628 356.227 747.898 356.227C746.164 356.227 744.76 357.633 744.76 359.365Z" fill="#C4533A"/>
<path d="M758.719 353.279C758.719 354.304 759.124 355.133 759.625 355.133C760.125 355.133 760.529 354.304 760.529 353.279C760.529 352.255 760.125 351.424 759.625 351.424C759.124 351.424 758.719 352.255 758.719 353.279Z" fill="#121B46"/>
<path d="M761.474 350.837C761.321 351.139 761.119 351.4 760.861 351.629C760.605 351.859 760.279 352.035 759.913 352.12L759.897 352.123C759.718 352.164 759.537 352.052 759.497 351.871C759.454 351.692 759.566 351.511 759.747 351.471C759.777 351.463 759.807 351.461 759.835 351.461C760.342 351.481 760.905 351.173 761.289 350.725L761.295 350.717C761.334 350.673 761.402 350.668 761.447 350.707C761.486 350.74 761.497 350.795 761.474 350.837Z" fill="#121B46"/>
<path d="M752.685 353.279C752.685 354.304 752.28 355.133 751.78 355.133C751.278 355.133 750.874 354.304 750.874 353.279C750.874 352.255 751.278 351.424 751.78 351.424C752.28 351.424 752.685 352.255 752.685 353.279Z" fill="#121B46"/>
<path d="M750.116 350.725C750.498 351.173 751.061 351.481 751.568 351.461C751.753 351.455 751.909 351.597 751.917 351.783C751.922 351.968 751.78 352.124 751.594 352.132C751.565 352.133 751.536 352.131 751.508 352.124L751.49 352.12C751.125 352.035 750.8 351.859 750.542 351.629C750.285 351.4 750.084 351.139 749.929 350.837C749.904 350.785 749.924 350.719 749.977 350.693C750.024 350.669 750.077 350.681 750.109 350.717L750.116 350.725Z" fill="#121B46"/>
<path d="M759.103 358.889C758.789 359.5 758.311 360.028 757.737 360.441C757.165 360.856 756.448 361.12 755.709 361.115C754.976 361.096 754.255 360.847 753.691 360.417C753.396 360.224 753.164 359.953 752.908 359.723C752.696 359.448 752.488 359.173 752.3 358.889C752.58 359.093 752.836 359.312 753.092 359.524C753.377 359.696 753.632 359.909 753.92 360.055C754.483 360.376 755.099 360.553 755.712 360.564C756.328 360.579 756.943 360.383 757.511 360.079C758.075 359.765 758.608 359.361 759.103 358.889Z" fill="#121B46"/>
<path d="M756.656 362.177C756.397 362.406 756.043 362.489 755.701 362.5C755.359 362.489 755.011 362.396 754.747 362.177C755.083 362.23 755.388 362.296 755.703 362.284C756.017 362.296 756.325 362.241 756.656 362.177Z" fill="#121B46"/>
<path d="M753.439 346.848C753.016 346.472 752.537 346.35 752.035 346.326C751.536 346.317 751.024 346.374 750.54 346.54C750.051 346.689 749.6 346.964 749.224 347.293C748.831 347.612 748.555 348.032 748.325 348.445C748.208 348.654 748.284 348.918 748.493 349.036C748.661 349.128 748.863 349.097 748.997 348.976L749.033 348.941C749.329 348.67 749.612 348.416 749.928 348.23C750.233 348.026 750.575 347.914 750.916 347.825C751.26 347.746 751.62 347.704 751.985 347.721C752.348 347.734 752.733 347.753 753.131 347.654L753.244 347.628C753.488 347.568 753.636 347.322 753.577 347.08C753.555 346.986 753.505 346.906 753.439 346.848Z" fill="#121B46"/>
<path d="M757.966 346.848C758.387 346.472 758.867 346.35 759.37 346.326C759.867 346.317 760.379 346.374 760.865 346.54C761.353 346.689 761.803 346.964 762.179 347.293C762.573 347.612 762.849 348.032 763.078 348.445C763.195 348.654 763.119 348.918 762.91 349.036C762.742 349.128 762.541 349.097 762.406 348.976L762.37 348.941C762.075 348.67 761.791 348.416 761.475 348.23C761.17 348.026 760.829 347.914 760.487 347.825C760.143 347.746 759.783 347.704 759.418 347.721C759.055 347.734 758.67 347.753 758.273 347.654L758.159 347.628C757.915 347.568 757.767 347.322 757.826 347.08C757.849 346.986 757.898 346.906 757.966 346.848" fill="#121B46"/>
<path d="M755.911 350.445C756.071 351.144 756.19 351.839 756.319 352.527C756.453 353.211 756.579 353.896 756.774 354.544C756.819 354.708 756.87 354.868 756.929 355.024C756.975 355.149 757.09 355.395 757.086 355.621C757.109 356.084 756.813 356.537 756.435 356.721C756.05 356.937 755.605 356.904 755.253 356.784C754.897 356.656 754.586 356.463 754.317 356.224C754.967 356.469 755.726 356.659 756.185 356.313C756.414 356.14 756.538 355.907 756.505 355.652C756.494 355.523 756.453 355.44 756.37 355.241C756.299 355.068 756.238 354.893 756.186 354.717C755.989 354.011 755.885 353.299 755.846 352.584C755.805 351.869 755.819 351.156 755.911 350.445Z" fill="#121B46"/>
<path d="M739.793 355.69C739.784 355.265 739.901 354.793 740.276 354.464C740.676 354.137 741.245 354.166 741.676 354.329C742.134 354.488 742.509 354.801 742.805 355.153C743.108 355.508 743.328 355.893 743.508 356.337C743.572 356.496 743.494 356.676 743.337 356.74C743.217 356.788 743.086 356.757 743 356.669L742.981 356.649C742.678 356.342 742.3 356.016 741.941 355.914C741.762 355.868 741.63 355.874 741.505 355.962C741.377 356.053 741.278 356.246 741.194 356.444C741.037 356.85 740.94 357.326 741.288 357.514C741.652 357.721 742.185 357.67 742.66 357.608C742.21 357.805 741.714 357.972 741.153 357.81C740.866 357.718 740.638 357.392 740.62 357.1C740.593 356.806 740.634 356.54 740.708 356.278C740.785 356.021 740.893 355.746 741.146 355.521C741.404 355.289 741.808 355.236 742.096 355.325C742.682 355.501 743.078 355.84 743.446 356.234L742.92 356.548C742.636 355.836 742.169 355.098 741.496 354.765C741.158 354.605 740.761 354.522 740.441 354.701C740.108 354.874 739.906 355.282 739.793 355.69Z" fill="#121B46"/>
<path d="M771.135 355.69C771.146 355.265 771.027 354.793 770.653 354.464C770.253 354.137 769.685 354.166 769.253 354.329C768.794 354.488 768.419 354.801 768.123 355.153C767.821 355.508 767.601 355.893 767.422 356.337C767.357 356.496 767.434 356.676 767.593 356.74C767.711 356.788 767.842 356.757 767.929 356.669L767.949 356.649C768.25 356.342 768.629 356.016 768.987 355.914C769.166 355.868 769.299 355.874 769.423 355.962C769.553 356.053 769.65 356.246 769.734 356.444C769.893 356.85 769.989 357.326 769.641 357.514C769.277 357.721 768.743 357.67 768.269 357.608C768.718 357.805 769.214 357.972 769.777 357.81C770.062 357.718 770.29 357.392 770.309 357.1C770.337 356.806 770.294 356.54 770.221 356.278C770.143 356.021 770.037 355.746 769.782 355.521C769.525 355.289 769.121 355.236 768.833 355.325C768.246 355.501 767.85 355.84 767.482 356.234L768.009 356.548C768.293 355.836 768.759 355.098 769.434 354.765C769.77 354.605 770.167 354.522 770.487 354.701C770.821 354.874 771.022 355.282 771.135 355.69Z" fill="#121B46"/>
<path d="M755.687 370.241C748.927 370.241 743.446 363.894 743.446 356.065C743.446 348.236 748.927 341.889 755.687 341.889C762.447 341.889 767.929 348.236 767.929 356.065C767.929 363.894 762.447 370.241 755.687 370.241ZM774.561 380.262C774.505 380.248 774.45 380.232 774.394 380.216C770.954 379.229 768.987 375.597 769.675 372.084C770.894 365.878 772.941 354.724 772.574 351.6C772.055 347.197 769.078 334.638 757.427 333.733C745.774 332.826 738.655 340.594 737.23 351.858C735.806 363.121 739.561 375.29 739.561 375.29C739.45 377.056 733.511 382.676 731.758 384.298C731.542 384.498 731.629 384.86 731.91 384.948C749.535 390.524 769.621 383.053 774.631 380.977C774.975 380.834 774.919 380.356 774.561 380.262" fill="#121B46"/>
<path d="M733.865 384.224C739.03 382.305 744.078 380.279 748.914 377.827C751.325 376.591 753.658 375.228 755.917 373.737C758.135 372.191 760.233 370.489 762.218 368.559C760.739 370.895 758.787 372.935 756.639 374.709C754.459 376.451 752.081 377.919 749.619 379.209C747.134 380.451 744.566 381.515 741.933 382.361C739.299 383.205 736.61 383.891 733.865 384.224Z" fill="white"/>
<path d="M748.105 368.3C746.489 367.757 745.028 366.761 743.801 365.54C742.564 364.322 741.564 362.837 740.901 361.21C740.277 359.578 739.847 357.84 739.911 356.1C739.851 355.233 740.045 354.376 740.141 353.532C740.313 352.693 740.577 351.876 740.856 351.081C740.916 351.94 740.857 352.766 740.903 353.589C740.988 354.41 740.96 355.224 741.123 356.018L741.299 357.209L741.583 358.37C741.656 358.761 741.796 359.133 741.92 359.508C742.049 359.882 742.153 360.265 742.336 360.617C742.904 362.094 743.743 363.456 744.707 364.74C745.685 366.02 746.816 367.201 748.105 368.3Z" fill="white"/>
<path d="M745.905 347.456C745.905 347.456 756.197 342.73 765.518 347.456C765.518 347.456 756.002 332.309 745.905 347.456Z" fill="white"/>
<path d="M657.48 585.012H410.463C395.448 585.012 383.275 572.838 383.275 557.824V138.361C383.275 123.345 395.448 111.173 410.463 111.173H657.48C672.496 111.173 684.668 123.345 684.668 138.361V557.824C684.668 572.838 672.496 585.012 657.48 585.012Z" fill="#DFDFDF"/>
<path d="M568.927 127.745H499.016V122.567H568.927V127.745Z" fill="#ADADAD"/>
<path d="M567.115 572.065H500.829V558.6H567.115V572.065Z" fill="#ADADAD"/>
<path d="M677.417 549.955H390.525V141.727H677.417V549.955Z" fill="white"/>
<path d="M677.417 157.263H390.525V141.727H677.417V157.263Z" fill="#121B46"/>
<path d="M427.552 431.078C427.552 437.442 422.393 442.602 416.029 442.602C409.667 442.602 404.508 437.442 404.508 431.078C404.508 424.716 409.667 419.556 416.029 419.556C422.393 419.556 427.552 424.716 427.552 431.078Z" fill="#6DB2E3"/>
<path d="M427.552 527.012C427.552 533.374 422.393 538.534 416.029 538.534C409.667 538.534 404.508 533.374 404.508 527.012C404.508 520.649 409.667 515.489 416.029 515.489C422.393 515.489 427.552 520.649 427.552 527.012Z" fill="#3CDEBC"/>
<path d="M459.4 431.078C459.4 437.442 454.242 442.602 447.878 442.602C441.514 442.602 436.356 437.442 436.356 431.078C436.356 424.716 441.514 419.556 447.878 419.556C454.242 419.556 459.4 424.716 459.4 431.078Z" fill="#6DB2E3"/>
<path d="M527.24 428.101H465.875V422.145H527.24V428.101Z" fill="#BCDFFD"/>
<path d="M661.364 456.065H406.579V450.109H661.364V456.065Z" fill="#BCDFFD"/>
<path d="M661.364 468.235H406.579V462.28H661.364V468.235Z" fill="#BCDFFD"/>
<path d="M467.945 480.405H406.58V474.449H467.945V480.405Z" fill="#BCDFFD"/>
<path d="M493.579 523.516H432.213V517.561H493.579V523.516Z" fill="#BCDFFD"/>
<path d="M427.552 212.155C427.552 218.519 422.393 223.678 416.029 223.678C409.667 223.678 404.508 218.519 404.508 212.155C404.508 205.792 409.667 200.632 416.029 200.632C422.393 200.632 427.552 205.792 427.552 212.155Z" fill="#FF5C5B"/>
<path d="M493.579 208.66H432.213V202.705H493.579V208.66Z" fill="#BCDFFD"/>
<path d="M564.784 439.235H465.873V433.28H564.784V439.235Z" fill="#BCDFFD"/>
<path d="M677.417 414.119H390.525V227.691H677.417V414.119Z" fill="#FF5C5B"/>
<path d="M604.238 323.15C603.756 323.15 603.28 323.161 602.802 323.197C595.57 323.741 590.068 330.016 587.822 335.99C585.314 342.678 585.528 350.09 585.964 357.108L586.008 357.804C586.278 362.094 586.56 366.53 585.545 370.806C584.318 376 581.17 380.052 577.129 381.646C576.036 382.077 574.898 382.326 573.797 382.568C573.125 382.714 572.453 382.861 571.793 383.05C565.896 384.74 561.072 390.281 559.788 396.841C557.94 406.29 563.829 417.69 572.65 421.738C582.3 426.165 595.525 432.228 606.93 427.514C613.385 424.845 618.17 419.241 619.418 412.886C620.044 409.698 619.805 406.31 619.574 403.033C619.3 399.126 619.014 395.088 620.152 391.23C622.344 383.794 628.902 379.316 635.246 374.985C640.188 371.613 645.3 368.125 648.377 363.253C652.937 356.032 652.161 345.717 646.57 339.26C646.162 338.789 645.73 338.332 645.3 337.876C644.034 336.54 642.726 335.158 641.973 333.388C640.284 329.422 641.9 325.321 643.461 321.354C643.93 320.165 644.413 318.936 644.785 317.756C646.064 313.69 645.964 309.673 644.502 306.442C642.858 302.804 639.365 300.317 635.808 300.253C629.892 300.189 625.565 306.066 622.841 310.532C619.765 315.574 615.934 321.852 609.55 322.978C608.184 323.218 606.813 323.19 605.484 323.166C605.06 323.158 604.648 323.15 604.238 323.15ZM597.864 430.785C588.641 430.785 579.322 426.509 572.001 423.149C562.417 418.752 556.254 406.817 558.265 396.544C559.656 389.426 564.922 383.402 571.365 381.557C572.057 381.36 572.761 381.205 573.465 381.049C574.552 380.812 575.581 380.588 576.558 380.202C580.128 378.793 582.924 375.148 584.036 370.448C584.993 366.398 584.72 362.08 584.457 357.901L584.413 357.206C583.966 350.02 583.752 342.42 586.37 335.445C588.786 329.008 594.77 322.244 602.686 321.649C603.637 321.576 604.592 321.594 605.513 321.613C606.825 321.64 608.064 321.662 609.28 321.449C614.973 320.444 618.6 314.5 621.514 309.722C624.44 304.93 629.134 298.594 635.834 298.7C639.981 298.774 644.032 301.629 645.92 305.802C647.537 309.381 647.661 313.792 646.266 318.222C645.878 319.454 645.384 320.709 644.906 321.924C643.392 325.768 641.964 329.4 643.401 332.78C644.045 334.292 645.202 335.516 646.428 336.808C646.874 337.281 647.322 337.754 647.745 338.244C653.766 345.198 654.602 356.306 649.69 364.082C646.44 369.226 641.196 372.808 636.122 376.268C629.721 380.638 623.677 384.762 621.641 391.67C620.585 395.258 620.848 398.981 621.124 402.924C621.362 406.302 621.606 409.796 620.941 413.188C619.596 420.042 614.456 426.085 607.525 428.949C604.378 430.252 601.128 430.785 597.864 430.785" fill="#FF9F9E"/>
<path d="M649.906 280.512C647.873 280.512 646.217 282.168 646.217 284.202C646.217 286.236 647.873 287.892 649.906 287.892C651.941 287.892 653.597 286.236 653.597 284.202C653.597 282.168 651.941 280.512 649.906 280.512ZM649.906 289.445C647.016 289.445 644.664 287.093 644.664 284.202C644.664 281.31 647.016 278.958 649.906 278.958C652.798 278.958 655.15 281.31 655.15 284.202C655.15 287.093 652.798 289.445 649.906 289.445Z" fill="#FF9F9E"/>
<path d="M626.797 261.869C626.797 262.941 625.929 263.812 624.856 263.812C623.782 263.812 622.914 262.941 622.914 261.869C622.914 260.797 623.782 259.927 624.856 259.927C625.929 259.927 626.797 260.797 626.797 261.869Z" fill="#FF9F9E"/>
<path d="M420.561 373.921C420.561 375.315 419.431 376.446 418.036 376.446C416.643 376.446 415.512 375.315 415.512 373.921C415.512 372.526 416.643 371.395 418.036 371.395C419.431 371.395 420.561 372.526 420.561 373.921Z" fill="#FF9F9E"/>
<path d="M649.518 379.552C647.698 379.552 646.217 381.032 646.217 382.854C646.217 384.675 647.698 386.155 649.518 386.155C651.338 386.155 652.821 384.675 652.821 382.854C652.821 381.032 651.338 379.552 649.518 379.552ZM649.518 387.708C646.842 387.708 644.664 385.53 644.664 382.854C644.664 380.178 646.842 377.999 649.518 377.999C652.196 377.999 654.374 380.178 654.374 382.854C654.374 385.53 652.196 387.708 649.518 387.708Z" fill="#FF9F9E"/>
<path d="M490.99 373.208C490.99 373.208 475.972 398.066 471.571 419.556H572.811C572.811 419.556 565.043 382.271 556.24 373.467L490.99 373.208Z" fill="#121B46"/>
<path d="M488.53 380.524C491.475 380.348 494.421 380.273 497.366 380.145L506.202 379.929C512.093 379.786 517.983 379.766 523.874 379.746C529.765 379.765 535.655 379.785 541.546 379.926L550.382 380.142C553.327 380.272 556.273 380.346 559.218 380.524C556.273 380.7 553.327 380.774 550.382 380.904L541.546 381.121C535.655 381.262 529.765 381.281 523.874 381.3C517.983 381.28 512.093 381.261 506.202 381.117L497.366 380.901C494.421 380.773 491.475 380.698 488.53 380.524Z" fill="white"/>
<path d="M498.822 381.106C498.458 383.056 497.773 384.93 496.917 386.724C496.066 388.523 494.977 390.219 493.678 391.77C492.342 393.279 490.77 394.672 488.857 395.494C486.981 396.362 484.772 396.51 482.898 395.864C484.884 395.856 486.724 395.37 488.31 394.411C489.904 393.476 491.274 392.18 492.501 390.756C494.96 387.882 496.889 384.535 498.822 381.106Z" fill="white"/>
<path d="M529.117 380.328C529.344 385.312 529.517 390.298 529.606 395.282L529.766 402.758L529.824 410.235L529.825 410.523L529.617 410.735C526.91 413.466 524.234 416.228 521.501 418.932L520.176 420.244L520.196 418.391C520.264 412.079 520.234 405.768 520.382 399.458C520.501 393.146 520.654 386.835 520.961 380.523C521.265 386.835 521.421 393.146 521.538 399.458C521.688 405.768 521.657 412.079 521.725 418.391L520.42 417.851C523.125 415.118 525.886 412.443 528.617 409.736L528.41 410.235L528.466 402.758L528.626 395.282C528.716 390.298 528.89 385.312 529.117 380.328Z" fill="white"/>
<path d="M552.032 380.524C552.244 382.325 552.546 384.069 552.988 385.746C553.448 387.414 554.052 389.025 554.987 390.386C555.907 391.76 557.223 392.774 558.759 393.393C560.299 394.092 562.063 394.148 563.878 394.312C562.154 394.784 560.239 395.105 558.382 394.546C556.519 394.093 554.803 392.872 553.708 391.269C552.636 389.65 552.047 387.816 551.804 385.984C551.562 384.15 551.603 382.296 552.032 380.524Z" fill="white"/>
<path d="M607.47 271.076L594.981 271.452C594.981 271.452 590.941 289.829 585.407 314.342C583.579 311.438 581.867 308.69 580.287 306.122C574.717 317.048 567.886 327.212 560.531 337.012C564.701 344.089 569.494 351.818 574.93 359.861C575.005 359.972 575.081 360.084 575.157 360.196C584.807 374.44 607.075 369.206 609.346 352.149C609.371 351.954 609.397 351.761 609.423 351.566C612.794 326.018 613.374 298.004 607.47 271.076Z" fill="#F7BB8B"/>
<path d="M600.085 252.591C599.801 249.337 599.378 245.941 598.849 246.05C597.974 246.233 597.455 248.507 597.071 251.379C598.091 251.701 599.109 252.102 600.085 252.591Z" fill="#F28766"/>
<path d="M605.363 256.589C605.311 253.093 605.059 246.251 603.902 245.626C602.998 245.137 601.995 249.503 601.31 253.258C602.891 254.191 604.305 255.326 605.363 256.589Z" fill="#F28766"/>
<path d="M614.072 251.96C613.242 252.555 611.841 254.246 610.05 258.984C610.05 258.984 611.266 248.3 610.057 246.783C609.1 245.579 606.722 253.71 605.777 257.136C606.378 257.956 606.846 258.818 607.094 259.712C607.473 261.082 607.565 262.32 607.43 263.439C608.904 267.448 606.442 272.158 602.16 273.631C600.5 274.204 598.785 274.288 597.089 274.058C595.766 274.51 594.358 274.639 593.084 274.435C594.048 276.123 595.202 277.847 596.606 279.554L605.304 277.894C605.304 277.894 614.825 259.924 614.938 252.402C614.946 251.922 614.465 251.678 614.072 251.96Z" fill="#F7BB8B"/>
<path d="M583.556 333.722C583.448 330.463 583.597 327.23 583.823 324.006C583.925 322.393 584.089 320.785 584.245 319.177C584.417 317.57 584.601 315.965 584.825 314.363L586.08 314.778C584.511 317.177 582.904 319.554 581.096 321.811C582.224 319.149 583.552 316.606 584.917 314.085L586.36 311.427L586.171 314.499C586.072 316.113 585.932 317.722 585.781 319.331C585.613 320.938 585.453 322.546 585.232 324.147C584.809 327.353 584.312 330.55 583.556 333.722Z" fill="#121B46"/>
<path d="M587.977 247.46L602.969 275.528C603.614 276.736 605.011 277.325 606.331 276.958C609.097 276.188 613.478 274.438 614.559 270.908C616.171 265.648 602.641 239.432 602.641 239.432L587.977 247.46Z" fill="#DFDFDF"/>
<path d="M571.87 211.025L566.804 212.539C565.278 212.997 564.323 214.507 564.56 216.085C565.248 220.678 567.282 230.695 573.038 244.022C573.68 245.51 575.338 246.285 576.892 245.819L581.38 244.477L571.87 211.025Z" fill="#28AD92"/>
<path d="M596.818 197.47L572.956 204.609C569.448 205.658 569.583 216.47 573.259 228.757C576.935 241.045 582.759 250.155 586.267 249.106L610.13 241.967L596.818 197.47Z" fill="#35C4A6"/>
<path d="M609.827 217.818C613.503 230.105 613.637 240.918 610.131 241.968C606.621 243.017 600.797 233.906 597.121 221.62C593.445 209.332 593.309 198.52 596.817 197.47C600.327 196.421 606.151 205.53 609.827 217.818Z" fill="#3CDEBC"/>
<path d="M641.831 168.752L597.627 202.852L597.776 205.888C598.344 217.433 602.052 228.937 608.309 238.565L663.405 238.893L641.831 168.752Z" fill="#DFDFDF"/>
<path d="M671.005 198.322C676.867 217.914 674.373 235.964 665.44 238.637C658.52 240.708 649.761 232.948 643.44 220.238C641.603 216.538 639.968 212.42 638.647 208.002C637.453 204.014 636.607 200.086 636.088 196.345C634.068 181.696 637.099 169.812 644.213 167.684C653.148 165.012 665.144 178.73 671.005 198.322Z" fill="#C4C4C4"/>
<path d="M652.753 203.784C656.391 215.951 656.811 227.523 654.463 235.188C648.293 230.071 642.287 220.172 638.647 208.004C635.006 195.833 634.587 184.259 636.935 176.596C643.106 181.709 649.113 191.613 652.753 203.784Z" fill="#919191"/>
<path d="M652.954 195.008L657.74 211.004L643.44 220.238C641.602 216.538 639.968 212.419 638.648 208.003C637.453 204.014 636.606 200.087 636.088 196.344L652.954 195.008Z" fill="#EBEBEB"/>
<path d="M658.996 201.915C660.317 206.332 659.755 210.401 657.741 211.004C655.727 211.607 653.023 208.515 651.7 204.097C650.379 199.68 650.941 195.609 652.956 195.007C654.969 194.405 657.675 197.497 658.996 201.915Z" fill="#35C4A6"/>
<path d="M602.07 200.244C602.658 203.636 603.382 206.984 604.133 210.312C604.922 213.634 605.752 216.939 606.797 220.172C607.834 223.407 609.01 226.594 610.432 229.674C611.91 232.723 613.577 235.684 615.664 238.436C613.13 236.095 611.045 233.258 609.352 230.224C607.669 227.178 606.4 223.932 605.317 220.64C604.281 217.332 603.502 213.955 602.948 210.546C602.39 207.139 602.061 203.692 602.07 200.244Z" fill="#121B46"/>
<path d="M582.78 244.521C585.927 242.941 589.211 241.817 592.527 240.8C595.856 239.829 599.217 238.968 602.717 238.566C599.571 240.149 596.287 241.273 592.971 242.288C589.641 243.254 586.277 244.116 582.78 244.521Z" fill="#121B46"/>
<path d="M656.962 202.057C656.774 201.281 656.47 200.531 656.06 199.855C655.854 199.519 655.604 199.209 655.334 198.95C655.082 198.694 654.682 198.531 654.601 198.635C654.53 198.687 654.414 198.987 654.396 199.322C654.362 199.657 654.393 200.021 654.424 200.383C654.497 201.113 654.656 201.847 654.824 202.575C655.008 203.299 655.198 204.027 655.469 204.709C655.605 205.046 655.748 205.383 655.93 205.667C656.1 205.957 656.34 206.17 656.432 206.185C656.552 206.237 656.833 205.91 656.94 205.565C657.061 205.211 657.142 204.821 657.17 204.427C657.224 203.639 657.152 202.833 656.962 202.057ZM656.962 202.057C657.144 202.834 657.312 203.617 657.385 204.426C657.416 204.831 657.446 205.242 657.393 205.669C657.362 205.882 657.33 206.103 657.226 206.33C657.133 206.547 656.96 206.819 656.613 206.935C656.265 207.046 655.934 206.931 655.706 206.81C655.461 206.685 655.276 206.529 655.104 206.366C654.774 206.037 654.505 205.683 654.278 205.31C653.836 204.562 653.513 203.766 653.314 202.942C653.114 202.117 653.03 201.262 653.084 200.394C653.112 199.958 653.192 199.521 653.333 199.075C653.41 198.851 653.505 198.629 653.664 198.405C653.813 198.193 654.054 197.938 654.417 197.877C654.78 197.819 655.06 197.983 655.244 198.134C655.438 198.289 655.568 198.471 655.693 198.646C655.936 199.002 656.098 199.382 656.256 199.757C656.56 200.51 656.768 201.283 656.962 202.057Z" fill="#121B46"/>
<path d="M645.57 169.173C649.076 169.935 652.385 171.573 655.276 173.767C656.704 174.893 657.993 176.201 659.122 177.639C660.265 179.083 661.173 180.621 662.136 182.151C665.832 188.339 668.745 194.965 670.993 201.825C672.042 205.283 672.84 208.821 673.33 212.413C673.829 215.997 673.906 219.685 673.306 223.287C672.692 226.86 671.653 230.419 669.604 233.492C668.52 234.969 667.113 236.279 665.385 236.947C663.674 237.637 661.716 237.567 660.07 236.883C660.921 237.161 661.821 237.253 662.698 237.193C663.578 237.159 664.438 236.928 665.226 236.565C666.813 235.829 668.041 234.521 668.973 233.067C670.782 230.087 671.676 226.577 672.124 223.113C673.008 216.132 671.594 209.021 669.512 202.285C667.426 195.511 664.53 188.972 661.105 182.747C660.224 181.215 659.368 179.629 658.34 178.224C657.32 176.807 656.124 175.508 654.796 174.352C652.145 172.025 648.973 170.269 645.57 169.173Z" fill="#121B46"/>
<path d="M594.302 277.211C594.302 277.211 589.123 265.818 589.642 263.228C590.159 260.639 596.05 254.295 598.833 255.331C601.617 256.367 597.345 264.394 597.345 264.394C597.345 264.394 604.271 272.808 603.494 277.082C602.718 281.354 594.302 277.211 594.302 277.211Z" fill="#F7BB8B"/>
<path d="M543.754 268.035C543.754 268.035 566.337 279.994 570.222 284.655C574.106 289.315 584.462 311.325 584.462 311.325L561.937 341.619C561.937 341.619 537.878 305.754 543.754 268.035Z" fill="#FDB32C"/>
<path d="M548.237 275.888C547.281 274.284 546.97 272.711 547.128 271.263C545.849 270.341 544.714 269.315 543.693 268.077C543.294 266.637 542.369 263.123 541.674 259.159C541.06 255.612 540.624 251.719 540.932 248.659V248.645C541.073 247.135 541.392 245.828 541.969 244.868L507.652 225.571C507.676 225.685 507.689 225.788 507.714 225.904C508.258 229.089 512.394 254.091 508.153 267.352C505.572 268.539 502.398 269.383 498.46 269.52C494.221 269.669 490.066 271.18 486.974 274.085C483.637 277.221 480.676 282.499 480.622 291.296C483.764 291.688 486.902 292.305 490.034 292.868C499.394 294.553 508.744 296.343 518.128 297.897C530.226 299.903 542.641 300.339 554.876 301.697C554.344 292.584 552.553 283.128 548.237 275.888Z" fill="#F7BB8B"/>
<path d="M541.675 259.159C523.017 261.515 513.567 239.234 513.221 238.402C516.665 243.87 521.66 246.635 526.537 247.954C532.544 249.594 538.369 249.043 540.816 248.684C540.855 248.671 540.893 248.671 540.931 248.659C540.624 251.719 541.06 255.612 541.675 259.159Z" fill="#EBA771"/>
<path d="M507.302 267.048C507.302 267.048 529.311 291.386 535.783 287.504C542.258 283.62 543.889 268.776 543.889 268.776C543.889 268.776 566.079 288.021 569.186 294.236C572.293 300.449 572.034 312.62 564.267 331.78C556.498 350.94 559.411 376.833 559.411 376.833H488.401C488.401 376.833 494.357 364.405 492.543 349.905C490.731 335.405 473.641 289.057 473.641 289.057C473.641 289.057 470.275 267.825 507.302 267.048" fill="#FDB32C"/>
<path d="M506.655 269.637C508.402 271.535 510.152 273.418 511.99 275.214C513.796 277.038 515.643 278.821 517.574 280.497C519.514 282.162 521.464 283.81 523.554 285.247C525.623 286.703 527.802 288.013 530.118 288.87C532.423 289.745 534.883 290.014 537.09 289.075C539.304 288.21 540.948 286.255 542.1 284.073C543.254 281.866 543.946 279.391 544.408 276.89C544.912 274.387 545.147 271.825 545.236 269.249C545.651 274.37 545.315 279.702 543.174 284.598C542.107 287.013 540.262 289.305 537.66 290.43C536.383 290.987 534.968 291.238 533.571 291.173C532.183 291.107 530.842 290.79 529.582 290.327C527.072 289.363 524.807 287.983 522.699 286.439C520.598 284.883 518.618 283.191 516.768 281.371C513.051 277.754 509.647 273.843 506.655 269.637Z" fill="#121B46"/>
<path d="M557.887 298.292C559.096 301.731 560.747 304.9 562.424 308.116C564.083 311.316 565.647 314.794 566.012 318.559C566.4 322.29 565.889 326.026 564.913 329.554C563.944 333.094 562.531 336.455 561.001 339.746C561.967 336.243 562.985 332.768 563.735 329.268C564.451 325.77 564.859 322.211 564.468 318.728C564.163 315.231 562.769 311.943 561.333 308.632C560.608 306.979 559.885 305.302 559.276 303.576C558.705 301.839 558.192 300.086 557.887 298.292Z" fill="#121B46"/>
<path d="M524.648 339.009C527.142 338.114 529.81 337.942 532.419 338.141C535.024 338.385 537.624 339.008 539.93 340.314C537.291 340.197 534.807 339.882 532.287 339.688C529.77 339.448 527.268 339.336 524.648 339.009Z" fill="#121B46"/>
<path d="M466.283 332.685C464.833 331.332 463.367 329.996 461.927 328.63C455.251 322.302 448.357 316.27 441.747 309.962C439.904 311.962 438.036 314.025 436.148 316.158C431.884 320.974 427.531 326.118 423.191 331.562C417.651 338.512 417.437 348.282 422.645 355.484C426.092 360.249 429.729 364.98 433.561 369.62C444.715 383.142 457.507 395.896 472.055 406.474L481.12 397.893C481.12 397.893 468.404 375.19 453.153 347.39C457.637 342.337 462.048 337.396 466.283 332.685Z" fill="#F7BB8B"/>
<path d="M471.443 403.904C471.443 403.904 476.257 423.661 481.168 429.361C481.481 429.725 482.003 429.588 482.109 429.114C482.335 428.12 482.26 425.926 480.452 421.193C480.452 421.193 486.637 429.989 488.549 430.32C490.461 430.653 484.185 418.358 484.185 418.358C484.185 418.358 492.192 427.504 493.919 427.098C495.645 426.693 488.009 415.301 488.009 415.301C488.009 415.301 496.803 424.249 497.415 423.425C498.941 421.373 486.935 408.474 488.423 407.357C489.741 406.366 493.704 408.161 495.565 409.428C495.956 409.694 496.457 409.576 496.668 409.145C497.081 408.298 497.34 406.841 495.471 405.38C492.583 403.126 486.295 398.373 476.843 396.886L471.443 403.904Z" fill="#F7BB8B"/>
<path d="M447.231 341.361C448.656 341.919 449.747 342.815 450.758 343.789C451.734 344.797 452.628 345.889 453.186 347.315C451.759 346.758 450.668 345.863 449.659 344.887C448.686 343.875 447.79 342.786 447.231 341.361Z" fill="#121B46"/>
<path d="M435.579 315.208L461.471 339.03L494.097 305.37C494.097 305.37 496.211 270.438 489.213 269.803C478.821 268.86 445.418 300.967 435.579 315.208Z" fill="#FDB32C"/>
<path d="M483.092 316.632L496.298 304.204L486.718 328.155L483.092 316.632Z" fill="#121B46"/>
<path d="M559.232 217.365C558.848 207.249 557.618 196.839 554.136 187.888C549.653 176.364 528.525 171.881 513.8 184.687C506.954 190.635 505.513 201.419 505.92 211.264C505.564 211.091 505.245 210.956 505.037 210.904C502.038 210.156 499.028 212.416 498.13 215.235C497.416 217.479 497.898 220.016 499.181 221.993C500.246 223.636 501.977 225.168 503.824 225.872C504.289 226.049 506.358 226.393 507.818 226.268C509.23 232.744 512.526 238.727 517.628 242.963C524.069 248.316 532.302 250.455 540.51 248.752C546.888 247.432 556.313 243.348 558.656 236.727C559.27 234.999 559.321 233.141 559.348 231.311C559.36 230.888 559.36 230.465 559.36 230.043C559.398 225.957 559.398 221.681 559.232 217.365Z" fill="#F7BB8B"/>
<path d="M559.359 230.043C558.822 230.183 558.259 230.26 557.682 230.26C554.071 230.26 551.139 227.328 551.139 223.716C551.139 220.106 554.071 217.174 557.682 217.174C558.221 217.174 558.733 217.238 559.231 217.366C559.398 221.682 559.398 225.958 559.359 230.043Z" fill="#EBA771"/>
<path d="M518.552 223.716C518.552 227.332 521.483 230.263 525.099 230.263C528.715 230.263 531.645 227.332 531.645 223.716C531.645 220.1 528.715 217.17 525.099 217.17C521.483 217.17 518.552 220.1 518.552 223.716Z" fill="#EBA771"/>
<path d="M547.689 211.012C547.689 213.151 548.535 214.883 549.579 214.883C550.623 214.883 551.47 213.151 551.47 211.012C551.47 208.874 550.623 207.142 549.579 207.142C548.535 207.142 547.689 208.874 547.689 211.012Z" fill="#121B46"/>
<path d="M553.439 205.917C553.119 206.544 552.699 207.089 552.16 207.569C551.625 208.047 550.945 208.417 550.181 208.592L550.149 208.6C549.772 208.687 549.397 208.451 549.309 208.075C549.224 207.697 549.46 207.323 549.836 207.236C549.897 207.223 549.961 207.217 550.021 207.219C551.077 207.26 552.251 206.617 553.053 205.683L553.067 205.668C553.147 205.572 553.291 205.561 553.385 205.643C553.467 205.712 553.485 205.827 553.439 205.917Z" fill="#121B46"/>
<path d="M526.38 210.49C527.182 211.423 528.355 212.067 529.412 212.024C529.799 212.01 530.126 212.311 530.14 212.696C530.155 213.083 529.854 213.408 529.468 213.423C529.407 213.426 529.346 213.42 529.288 213.407L529.252 213.399C528.488 213.223 527.808 212.852 527.274 212.375C526.734 211.896 526.314 211.351 525.995 210.723C525.938 210.612 525.982 210.476 526.092 210.419C526.187 210.371 526.3 210.396 526.367 210.474L526.38 210.49Z" fill="#121B46"/>
<path d="M528.898 212.123C529.558 211.42 530.246 210.955 531.064 210.596C531.869 210.256 532.76 210.078 533.634 210.147C534.502 210.223 535.336 210.474 536.072 210.867C536.448 211.048 536.774 211.302 537.125 211.515L538.064 212.288C538.244 212.435 538.269 212.7 538.122 212.879C537.981 213.048 537.736 213.08 537.558 212.956L537.517 212.928L536.604 212.287C536.277 212.123 535.969 211.916 535.634 211.787C534.973 211.496 534.276 211.355 533.594 211.344C532.912 211.343 532.249 211.534 531.649 211.843C531.058 212.14 530.48 212.634 530.112 213.094L530.073 213.142C529.805 213.478 529.314 213.531 528.98 213.263C528.645 212.995 528.59 212.506 528.858 212.17C528.87 212.154 528.885 212.138 528.898 212.123Z" fill="#121B46"/>
<path d="M548.491 222.723C547.835 223.999 546.838 225.102 545.64 225.963C544.446 226.827 542.95 227.381 541.408 227.369C539.876 227.33 538.372 226.809 537.194 225.915C536.576 225.51 536.094 224.946 535.563 224.462C535.118 223.89 534.683 223.317 534.294 222.723C534.878 223.15 535.408 223.606 535.946 224.047C536.54 224.409 537.072 224.853 537.675 225.157C538.85 225.829 540.132 226.198 541.412 226.219C542.7 226.25 543.982 225.842 545.167 225.205C546.347 224.553 547.459 223.707 548.491 222.723Z" fill="#121B46"/>
<path d="M543.383 229.586C542.844 230.065 542.104 230.238 541.392 230.261C540.677 230.238 539.949 230.043 539.401 229.586C540.099 229.697 540.736 229.835 541.393 229.81C542.051 229.835 542.693 229.722 543.383 229.586Z" fill="#121B46"/>
<path d="M536.667 197.587C535.784 196.804 534.785 196.549 533.737 196.503C532.696 196.479 531.629 196.6 530.616 196.945C529.595 197.256 528.655 197.831 527.868 198.519C527.049 199.183 526.472 200.059 525.993 200.923C525.751 201.36 525.908 201.911 526.345 202.153C526.695 202.348 527.117 202.285 527.396 202.029L527.472 201.959C528.088 201.392 528.68 200.861 529.34 200.476C529.975 200.048 530.689 199.813 531.403 199.629C532.121 199.463 532.871 199.372 533.636 199.413C534.389 199.439 535.195 199.477 536.024 199.275L536.261 199.216C536.771 199.092 537.083 198.579 536.959 198.071C536.911 197.876 536.805 197.711 536.667 197.587Z" fill="#121B46"/>
<path d="M546.117 197.587C546.998 196.804 547.997 196.549 549.046 196.503C550.086 196.479 551.154 196.6 552.166 196.945C553.188 197.256 554.129 197.831 554.914 198.519C555.734 199.183 556.31 200.059 556.79 200.923C557.033 201.36 556.874 201.911 556.437 202.153C556.089 202.348 555.666 202.285 555.386 202.029L555.31 201.959C554.694 201.392 554.104 200.861 553.442 200.476C552.809 200.048 552.093 199.813 551.381 199.629C550.662 199.463 549.913 199.372 549.146 199.413C548.393 199.439 547.589 199.477 546.76 199.275L546.521 199.216C546.013 199.092 545.701 198.579 545.825 198.071C545.872 197.876 545.978 197.711 546.117 197.587Z" fill="#121B46"/>
<path d="M541.829 205.098C542.164 206.557 542.411 208.006 542.681 209.44C542.961 210.87 543.224 212.3 543.631 213.654C543.725 213.996 543.831 214.33 543.952 214.654C544.049 214.918 544.288 215.428 544.28 215.904C544.329 216.87 543.711 217.817 542.923 218.198C542.117 218.65 541.188 218.58 540.455 218.33C539.711 218.062 539.063 217.658 538.5 217.161C539.857 217.672 541.443 218.069 542.399 217.348C542.879 216.984 543.137 216.497 543.069 215.968C543.044 215.696 542.96 215.524 542.785 215.108C542.639 214.746 542.512 214.381 542.403 214.014C541.988 212.541 541.775 211.052 541.692 209.561C541.605 208.072 541.635 206.582 541.829 205.098Z" fill="#121B46"/>
<path d="M500.502 217.328C500.479 216.438 500.726 215.454 501.51 214.766C502.343 214.084 503.53 214.146 504.43 214.485C505.387 214.816 506.17 215.47 506.787 216.205C507.421 216.946 507.879 217.752 508.254 218.677C508.387 219.006 508.227 219.384 507.897 219.517C507.649 219.617 507.374 219.552 507.195 219.372L507.153 219.328C506.523 218.689 505.733 218.006 504.986 217.796C504.611 217.697 504.335 217.71 504.075 217.894C503.807 218.084 503.602 218.486 503.425 218.9C503.095 219.748 502.895 220.741 503.619 221.134C504.379 221.566 505.493 221.461 506.485 221.329C505.549 221.741 504.513 222.086 503.337 221.752C502.739 221.558 502.265 220.88 502.225 220.268C502.169 219.656 502.257 219.1 502.409 218.554C502.57 218.016 502.795 217.444 503.326 216.972C503.862 216.49 504.706 216.378 505.306 216.564C506.531 216.933 507.358 217.64 508.127 218.462L507.026 219.114C506.434 217.632 505.461 216.089 504.055 215.394C503.351 215.058 502.519 214.888 501.854 215.262C501.158 215.622 500.738 216.477 500.502 217.328Z" fill="#121B46"/>
<path d="M556.063 191.242C555.217 187.599 553.709 184.23 551.14 181.426C545.655 175.428 536.892 173.798 528.783 173.611C523.313 173.471 517.691 173.875 512.765 176.268C504.997 180.012 500.321 187.951 494.62 194.414C486.107 204.076 474.517 210.975 461.964 213.864C451.695 216.226 441.021 215.931 430.504 216.878C420.003 217.81 409.143 220.234 401.08 227.039C394.804 232.32 390.5 240.042 383.183 243.755C379.128 245.836 374.499 246.458 369.961 247.064L362.536 248.027C351.615 249.471 345.431 261.683 351.179 271.098C351.211 271.159 351.257 271.222 351.288 271.299C355.063 277.358 361.137 282.066 363.437 288.839C365.535 295.038 364.089 301.827 364.587 308.352C365.395 318.606 371.22 328.114 379.284 334.499C387.345 340.884 397.476 344.318 407.699 345.436C411.443 345.855 415.217 345.964 418.992 345.778C418.495 340.806 419.909 335.68 423.187 331.563C427.537 326.126 431.887 320.983 436.144 316.151C436.205 316.074 436.284 315.995 436.361 315.918L435.584 315.203C445.419 300.972 478.82 268.86 489.213 269.808C491.715 269.234 494.061 269.248 496.189 269.731C496.935 269.606 497.696 269.544 498.457 269.514C502.388 269.374 505.573 268.55 508.151 267.368C512.268 254.506 508.509 230.627 507.763 226.262C506.304 226.386 504.283 226.044 503.817 225.874C501.984 225.174 500.244 223.636 499.188 221.99C497.897 220.016 497.416 217.484 498.131 215.231C498.964 212.634 501.6 210.532 504.361 210.81C505.657 213.018 507.221 215.068 509.044 216.868C509.609 217.426 510.289 217.996 511.083 217.954C512.113 217.899 512.773 216.868 513.257 215.956C513.879 214.786 514.957 213.579 515.58 212.407C522.951 212.828 530.44 209.551 535.133 203.852C536.572 202.106 537.749 200.164 538.923 198.231C540.491 195.643 542.06 193.055 543.631 190.467C547.115 194.352 552.612 201.37 557.793 201.992C557.793 201.992 557.957 196.895 556.063 191.242" fill="#121B46"/>
<path d="M308.131 542.604C305.444 543.576 303.241 544.37 301.697 544.926C301.696 544.927 301.695 544.927 301.692 544.928C298.1 543.026 294.777 542.77 293.147 542.676C291.973 542.61 291.603 543.238 291.487 543.688C291.428 543.918 291.577 544.127 291.811 544.155C292.917 544.292 294.987 544.919 295.164 545.72C295.365 546.626 286.704 547.508 286.619 548.774C286.585 549.282 292.768 548.82 292.768 548.82C292.768 548.82 286.236 550.572 286.755 551.29C287.275 552.006 293.225 551.214 293.225 551.214C293.225 551.214 286.915 553.747 287.741 554.248C288.568 554.751 293.72 553.494 293.72 553.494C291.52 554.668 290.787 555.463 290.552 555.908C290.44 556.119 290.593 556.342 290.827 556.307C293.116 555.984 297.135 553.62 299.848 551.878L299.849 551.887L299.864 551.979C303.501 552.314 307.145 552.411 310.767 552.318C309.768 549.126 308.908 545.883 308.131 542.604Z" fill="#F28766"/>
<path d="M347.738 500.789L331.814 533.608L302.296 543.513L303.46 553.417C303.46 553.417 338.416 551.28 344.048 545.649C349.68 540.017 360.36 512.829 360.748 510.11C361.138 507.392 347.738 500.789 347.738 500.789Z" fill="#FDB32C"/>
<path d="M357.545 496.064C357.545 496.064 350.165 503.605 350.457 509.529C350.748 515.452 351.233 547.98 351.233 547.98L348.224 549.436L342.009 547.203C342.009 547.203 345.018 512.829 345.116 509.141C345.213 505.451 346.281 499.819 349.777 498.265C353.272 496.711 357.545 496.064 357.545 496.064Z" fill="#FDB32C"/>
<path d="M261.896 561.871C248.785 563.534 239.821 564.75 239.821 564.75L236.917 577.251L263.184 577.551C262.511 572.35 262.107 567.122 261.896 561.871Z" fill="#F08D6E"/>
<path d="M241.642 564.177C241.642 564.177 238.845 561.253 237.7 558.709C236.557 556.166 237.192 544.721 231.47 545.484V571.934L233.822 574.286H231.216V579.564C231.216 579.564 237.065 581.598 240.625 579.692C240.625 579.692 237.192 575.876 238.718 571.68C240.244 567.482 241.642 564.177 241.642 564.177Z" fill="#FDB32C"/>
<path d="M255.106 560.991V578.727H380.945C380.945 578.727 376.543 553.352 366.315 550.116C356.089 546.879 255.106 560.991 255.106 560.991Z" fill="#FF5C5B"/>
<path d="M265.089 558.018L246.748 568.23L245.266 576.98L249.474 581.898L253.505 580.565C253.505 580.565 253.568 580.534 253.708 580.488C255.022 579.944 262.614 576.816 273.294 572.368C270.413 567.668 267.645 562.901 265.089 558.018Z" fill="#FA9778"/>
<path d="M247.293 566.556C247.293 566.556 243.465 565.241 241.281 563.507C239.098 561.771 234.412 551.311 229.678 554.613L241.813 578.116L244.982 579.127L242.665 580.323L245.086 585.012C245.086 585.012 251.217 584.136 253.506 580.807C253.506 580.807 248.705 578.992 248.136 574.564C247.566 570.136 247.293 566.556 247.293 566.556Z" fill="#FDB32C"/>
<path d="M254.912 562.155L262.292 577.303L308.704 558.854C308.704 558.854 362.108 588.567 376.479 582.935C390.849 577.303 391.627 549.727 385.8 546.426C379.975 543.124 348.191 547.526 348.191 547.526L346.573 548.951C346.573 548.951 314.919 535.551 307.345 535.939C299.772 536.327 254.912 562.155 254.912 562.155Z" fill="#FF5C5B"/>
<path d="M262.874 576.72C266.602 574.944 270.381 573.292 274.174 571.681C277.954 570.035 281.78 568.504 285.606 566.977C289.436 565.456 293.282 563.979 297.146 562.547C301.025 561.153 304.888 559.719 308.81 558.436L308.712 558.811C307.922 557.735 307.136 556.653 306.374 555.553C307.296 556.524 308.192 557.515 309.085 558.508L309.294 558.743L308.986 558.884C305.238 560.611 301.43 562.187 297.638 563.803C293.832 565.38 290.008 566.915 286.166 568.403C282.322 569.887 278.477 571.365 274.586 572.729C270.709 574.129 266.816 575.487 262.874 576.72Z" fill="#121B46"/>
<path d="M351.622 578.663C349.767 577.987 347.955 577.223 346.122 576.506L340.688 574.2C337.068 572.662 333.499 571.014 329.931 569.364C326.378 567.682 322.827 565.996 319.326 564.202L314.078 561.506C312.352 560.555 310.604 559.652 308.899 558.66C310.754 559.334 312.566 560.099 314.4 560.815L319.832 563.12C323.452 564.659 327.022 566.307 330.59 567.959C334.142 569.642 337.694 571.328 341.194 573.123L346.442 575.819C348.168 576.768 349.916 577.671 351.622 578.663Z" fill="#121B46"/>
<path d="M346.767 549.145C349.16 549.738 351.33 550.75 353.446 551.859C355.539 553.011 357.578 554.266 359.39 555.942C356.994 555.35 354.824 554.339 352.711 553.227C350.619 552.07 348.58 550.817 346.767 549.145Z" fill="#121B46"/>
<path d="M362.691 553.417C360.679 553.697 358.747 553.509 356.832 553.211C354.927 552.865 353.04 552.406 351.233 551.475C353.247 551.191 355.179 551.379 357.092 551.679C358.997 552.03 360.884 552.49 362.691 553.417Z" fill="#121B46"/>
<path d="M385.478 498.962C383.957 497.533 381.913 496.789 379.826 496.714C377.897 496.648 376.342 496.236 375.076 495.657C372.976 489.137 375.005 476.821 375.272 475.25C375.284 475.194 375.29 475.144 375.304 475.088L358.416 484.584C358.698 485.056 358.856 485.7 358.925 486.442V486.449C359.077 487.954 358.862 489.872 358.56 491.616C358.216 493.577 357.76 495.308 357.565 496.009C356.19 497.674 354.37 498.536 351.932 499.854C351.96 500.481 351.924 501.134 351.797 501.82C351.072 505.75 352.353 511.26 352.173 515.344C351.961 520.108 351.804 524.825 351.842 529.596C351.893 535.532 352.144 541.19 352.569 546.921H384.584C383.665 538.393 385.834 525.697 388.23 511.702C389.429 504.705 387.604 500.958 385.478 498.962Z" fill="#FA9778"/>
<path d="M358.56 491.616C367.741 492.776 372.393 481.811 372.562 481.401C370.866 484.092 368.409 485.453 366.008 486.101C363.053 486.909 360.185 486.639 358.982 486.461C358.964 486.455 358.945 486.455 358.925 486.449C359.077 487.955 358.862 489.871 358.56 491.616Z" fill="#FA7C55"/>
<path d="M357.47 496.349C357.47 496.349 353.887 503.766 356.477 505.45C359.066 507.133 375.249 495.61 375.249 495.61C375.249 495.61 384.053 496.648 386.513 502.861C388.971 509.076 385.477 547.526 385.477 547.526C385.477 547.526 355.699 549.338 348.191 547.526C348.191 547.526 348.321 528.494 347.414 522.54C346.507 516.585 347.058 506.518 348.903 502.44C349.865 500.314 357.47 496.349 357.47 496.349Z" fill="white"/>
<path d="M375.508 495.158C375.508 495.158 361.72 501.567 363.08 508.558C364.439 515.548 370.459 584.876 370.459 584.876C370.459 584.876 388.519 585.46 395.316 581.963C402.113 578.467 386.772 531.084 387.548 526.618C388.325 522.151 392.403 502.148 386.577 498.46C380.752 494.77 375.508 495.158 375.508 495.158Z" fill="#FDB32C"/>
<path d="M371.365 578.21C375.427 579.63 379.555 580.515 383.711 580.538C385.785 580.594 387.859 580.379 389.896 579.944C391.963 579.576 393.919 578.808 395.963 578.079C394.245 579.368 392.321 580.503 390.207 581.116C389.175 581.523 388.073 581.647 386.995 581.891C385.897 581.991 384.799 582.126 383.695 582.09C381.491 582.054 379.292 581.73 377.204 581.071C375.12 580.415 373.107 579.503 371.365 578.21Z" fill="#121B46"/>
<path d="M326.276 514.404L328.227 512.468L316.98 501.142L315.029 503.078L326.276 514.404Z" fill="#121B46"/>
<path d="M320.065 515.387C320.065 515.387 320.686 516.553 321.156 516.769C321.621 516.984 324.04 517.576 324.128 517.556C324.129 517.556 324.13 517.555 324.13 517.555C324.241 517.643 326.452 519.52 329.753 522.237C330.778 520.86 331.836 519.492 332.913 518.117C333.642 517.185 334.346 516.235 335.042 515.28C333.586 514.617 332.366 514.061 331.429 513.635L329.328 511.993C328.382 510.816 325.648 506.392 324.37 506.485C322.825 506.599 322.918 507.199 322.918 507.199C322.918 507.199 325.312 510.256 324.773 511.467C324.262 512.611 319.03 506.911 319.03 506.911L317.637 505.805C317.637 505.805 317.397 509 318.544 510.079C318.544 510.079 317.87 511.824 319.126 513.153C319.126 513.153 319.184 514.867 320.065 515.387" fill="#FA9778"/>
<path d="M374.148 500.207L363.662 526.423L330.066 512.054C330.066 512.054 324.24 519.432 324.823 519.626C325.404 519.82 355.118 548.756 367.546 546.62C379.975 544.483 388.324 507.975 388.324 507.975L374.148 500.207Z" fill="#FDB32C"/>
<path d="M367.092 546.749C367.092 546.749 370.847 546.361 373.307 542.995C375.767 539.629 384.57 521.763 384.57 521.763C384.57 521.763 379.78 552.705 367.092 546.749Z" fill="#121B46"/>
<path d="M368.905 528.883C367.852 528.798 366.898 528.508 365.96 528.188C365.029 527.85 364.134 527.439 363.269 526.967L361.45 525.979L363.405 525.571C364.717 525.295 366.056 525.115 367.481 525.258C366.317 526.092 365.066 526.603 363.79 527.019L363.926 525.62C364.829 526.014 365.705 526.466 366.544 526.991C367.374 527.532 368.189 528.107 368.905 528.883Z" fill="#121B46"/>
<path d="M334.209 527.977C336.872 529.262 339.242 530.922 341.545 532.671C343.82 534.458 346.021 536.337 347.932 538.593C345.268 537.311 342.897 535.651 340.596 533.898C338.324 532.11 336.121 530.23 334.209 527.977Z" fill="#121B46"/>
<path d="M340.164 516.195C341.543 516.158 342.723 516.551 343.856 517.045C344.968 517.583 346.032 518.225 346.896 519.303C345.516 519.343 344.336 518.951 343.205 518.454C342.093 517.913 341.029 517.27 340.164 516.195Z" fill="#121B46"/>
<path d="M369.294 506.616C369.36 505.441 369.707 504.316 370.183 503.252C370.66 502.185 371.295 501.176 372.111 500.292C372.94 499.428 373.93 498.671 375.075 498.224C376.23 497.8 377.498 497.737 378.615 498.071C377.475 498.389 376.499 498.772 375.608 499.312C374.744 499.897 373.962 500.573 373.25 501.348C372.512 502.1 371.883 502.977 371.23 503.853L369.294 506.616Z" fill="#121B46"/>
<path d="M379.989 470C379.546 468.613 378.065 467.501 376.59 467.868C376.488 467.895 376.329 467.961 376.154 468.047C376.354 463.2 375.646 457.895 372.278 454.965C365.032 448.664 354.634 450.869 352.429 456.54C349.906 463.025 349.778 471.051 349.862 477.915C349.874 478.812 349.901 479.729 350.201 480.577C351.353 483.833 355.997 485.844 359.134 486.496C363.17 487.333 367.225 486.277 370.392 483.645C372.904 481.56 374.529 478.617 375.22 475.428C375.94 475.491 376.958 475.323 377.186 475.236C378.097 474.888 378.948 474.135 379.472 473.325C380.102 472.353 380.341 471.105 379.989 470Z" fill="#FA9778"/>
<path d="M355.136 467.922C355.136 468.974 354.72 469.827 354.205 469.827C353.692 469.827 353.275 468.974 353.275 467.922C353.275 466.87 353.692 466.017 354.205 466.017C354.72 466.017 355.136 466.87 355.136 467.922Z" fill="#121B46"/>
<path d="M361.334 467.922C361.334 468.974 361.75 469.827 362.265 469.827C362.778 469.827 363.195 468.974 363.195 467.922C363.195 466.87 362.778 466.017 362.265 466.017C361.75 466.017 361.334 466.87 361.334 467.922Z" fill="#121B46"/>
<path d="M354.742 473.685C355.064 474.314 355.555 474.856 356.144 475.28C356.732 475.705 357.468 475.978 358.227 475.972C358.98 475.953 359.72 475.697 360.3 475.257C360.604 475.057 360.842 474.778 361.103 474.542C361.323 474.26 361.536 473.978 361.728 473.685C361.44 473.896 361.179 474.12 360.915 474.337C360.623 474.514 360.36 474.733 360.064 474.882C359.487 475.213 358.854 475.396 358.224 475.406C357.591 475.421 356.96 475.22 356.378 474.908C355.796 474.586 355.25 474.169 354.742 473.685Z" fill="#121B46"/>
<path d="M357.255 477.063C357.52 477.299 357.884 477.384 358.235 477.395C358.587 477.384 358.945 477.288 359.215 477.063C358.871 477.117 358.559 477.185 358.233 477.173C357.911 477.185 357.593 477.129 357.255 477.063Z" fill="#121B46"/>
<path d="M360.56 461.315C360.995 460.93 361.485 460.804 362.003 460.782C362.513 460.77 363.04 460.83 363.537 461C364.04 461.152 364.503 461.435 364.889 461.774C365.293 462.1 365.576 462.532 365.812 462.956C365.932 463.172 365.855 463.443 365.64 463.563C365.468 463.659 365.26 463.627 365.123 463.502L365.085 463.467C364.781 463.187 364.491 462.927 364.165 462.736C363.853 462.526 363.503 462.411 363.151 462.32C362.797 462.238 362.428 462.194 362.052 462.214C361.68 462.227 361.284 462.246 360.877 462.146L360.759 462.118C360.509 462.056 360.356 461.803 360.417 461.554C360.44 461.456 360.492 461.376 360.56 461.315Z" fill="#121B46"/>
<path d="M355.909 461.315C355.475 460.93 354.984 460.804 354.467 460.782C353.956 460.77 353.429 460.83 352.932 461C352.429 461.152 351.967 461.435 351.58 461.774C351.176 462.1 350.893 462.532 350.657 462.956C350.537 463.172 350.615 463.443 350.829 463.563C351.001 463.659 351.211 463.627 351.348 463.502L351.385 463.467C351.688 463.187 351.979 462.927 352.304 462.736C352.616 462.526 352.968 462.411 353.319 462.32C353.672 462.238 354.041 462.194 354.417 462.214C354.789 462.227 355.185 462.246 355.593 462.146L355.711 462.118C355.961 462.056 356.113 461.803 356.052 461.554C356.029 461.456 355.977 461.376 355.909 461.315Z" fill="#121B46"/>
<path d="M356.356 464.835C356.192 465.552 356.071 466.265 355.939 466.972C355.8 467.675 355.671 468.377 355.469 469.045C355.424 469.212 355.372 469.377 355.312 469.536C355.264 469.667 355.147 469.919 355.151 470.151C355.127 470.628 355.431 471.092 355.819 471.281C356.215 471.504 356.672 471.469 357.033 471.347C357.4 471.213 357.719 471.016 357.995 470.771C357.327 471.023 356.547 471.217 356.077 470.863C355.84 470.684 355.713 470.444 355.747 470.184C355.759 470.049 355.8 469.965 355.885 469.76C355.957 469.583 356.021 469.403 356.075 469.223C356.279 468.496 356.384 467.764 356.424 467.029C356.467 466.299 356.452 465.564 356.356 464.835Z" fill="#121B46"/>
<path d="M378.9 470.853C378.911 470.416 378.79 469.932 378.404 469.592C377.994 469.257 377.41 469.286 376.967 469.453C376.496 469.616 376.111 469.938 375.807 470.3C375.496 470.665 375.27 471.061 375.086 471.516C375.02 471.678 375.098 471.865 375.262 471.93C375.383 471.98 375.519 471.946 375.606 471.858L375.627 471.837C375.936 471.522 376.326 471.186 376.694 471.082C376.878 471.034 377.014 471.041 377.142 471.132C377.274 471.225 377.375 471.422 377.462 471.626C377.624 472.044 377.722 472.533 377.366 472.725C376.992 472.938 376.444 472.886 375.956 472.822C376.418 473.025 376.927 473.194 377.506 473.03C377.799 472.936 378.032 472.601 378.052 472.3C378.08 471.998 378.038 471.724 377.962 471.456C377.882 471.192 377.771 470.91 377.511 470.677C377.247 470.44 376.832 470.385 376.536 470.477C375.934 470.658 375.527 471.006 375.148 471.412L375.69 471.732C375.982 471.002 376.46 470.244 377.152 469.901C377.498 469.736 377.907 469.653 378.235 469.836C378.578 470.013 378.784 470.434 378.9 470.853Z" fill="#121B46"/>
<path d="M380.728 463.053C380.169 461.283 379.313 459.248 377.481 458.936C378.18 457.399 378.165 455.549 377.435 454.012C376.797 452.692 375.664 451.635 374.436 450.827C372.728 449.692 370.769 448.931 368.735 448.636C365.627 448.187 362.457 448.792 359.381 449.397C357.783 449.708 355.777 449.972 354.177 450.283C352.577 449.025 350.045 449.692 348.756 451.261C347.451 452.831 347.14 455.007 347.187 457.041C347.295 461.065 348.585 464.933 350.045 468.692C350.148 467.136 350.328 465.584 350.555 464.049C351.113 462.377 352.095 460.836 353.324 459.568C357.205 463.495 363.425 464.907 368.621 463.04C368.783 464.337 369.107 465.504 369.628 466.701C370.244 468.121 371.272 469.553 372.793 469.837C373.456 469.961 374.277 469.749 374.504 469.115C374.709 468.537 376.163 467.98 376.16 468.04C376.332 467.963 376.487 467.901 376.595 467.869C378.071 467.496 379.547 468.615 379.983 469.997C380.339 471.101 380.107 472.359 379.469 473.323C378.941 474.131 378.103 474.892 377.185 475.233C376.952 475.327 375.943 475.497 375.213 475.435C374.856 477.113 374.233 478.729 373.348 480.173C374.607 480.313 375.896 480.236 377.015 479.645C378.6 478.805 379.516 477.113 380.293 475.497C380.992 474.052 381.644 472.592 381.893 471.024C382.312 468.352 381.536 465.648 380.728 463.053Z" fill="#121B46"/>
<path d="M285.809 266C282.805 262.433 278.361 260.044 273.681 260.02C268.146 259.991 262.292 262.753 257.32 260.324C250.659 257.068 250.117 246.588 243.347 243.565C238.627 241.457 233.287 244.015 228.209 244.98C219.586 246.619 210.185 243.132 204.715 236.267C202.601 233.612 201.041 230.513 198.642 228.116C194.159 223.637 187.078 222.26 180.993 224.021C174.906 225.783 169.862 230.38 166.813 235.935C164.457 240.229 162.725 245.569 158.185 247.411C152.986 249.517 146.786 245.768 141.573 247.836C137.825 249.324 135.733 253.531 135.541 257.559C135.403 260.427 136.049 263.241 136.905 266H285.809Z" fill="#E3F2FF"/>
<path d="M917.536 332.667C916.54 330.156 914.078 328.137 911.627 327.352C908.036 326.201 904.091 326.472 900.746 324.585C896.998 322.473 893.982 317.724 889.824 318.184C886.487 318.555 884.079 322.276 880.79 323.021C873.986 324.561 869.459 313.177 862.524 313.172C858.388 313.169 854.943 317.325 850.808 317.475C845.451 317.667 841.918 311.484 838.646 306.617C833.798 299.411 825.391 293.407 818.208 297.284C813.432 299.863 810.992 305.853 808.392 311.119C805.791 316.385 801.848 321.852 796.57 321.86C791.022 321.868 785.432 315.755 780.599 318.879C778.324 320.348 777.231 323.533 777.244 326.527C777.254 328.627 777.719 330.667 778.31 332.667H917.536Z" fill="#E3F2FF"/>
</svg>
