<svg width="1600" height="1200" viewBox="0 0 1600 1200" fill="none" xmlns="http://www.w3.org/2000/svg">
<rect width="1600" height="1200" fill="white"/>
<mask id="mask0" mask-type="alpha" maskUnits="userSpaceOnUse" x="0" y="0" width="1600" height="1200">
<rect width="1600" height="1200" fill="white"/>
</mask>
<g mask="url(#mask0)">
<rect width="1600" height="1200" fill="#ECECF4"/>
<rect x="800" width="200" height="200" fill="#111747"/>
<rect x="600" width="200" height="200" fill="#111747"/>
<path d="M200 500C200 444.772 244.772 400 300 400H400V600H300C244.772 600 200 555.228 200 500Z" fill="#111747"/>
<rect x="600" y="400" width="200" height="200" fill="#111747"/>
<rect x="600" y="600" width="200" height="200" fill="#FFC641"/>
<rect x="1000" y="400" width="200" height="200" fill="#06818E"/>
<rect x="800" y="400" width="200" height="200" fill="#06818E"/>
<rect x="600" y="1000" width="200" height="200" fill="#FFC641"/>
<rect x="400" y="400" width="200" height="200" fill="#111747"/>
<rect x="600" y="800" width="200" height="200" fill="white"/>
<rect x="600" y="200" width="200" height="200" fill="#16A3B2"/>
<path d="M800 400H900C955.228 400 1000 444.772 1000 500C1000 555.228 955.228 600 900 600H800V400Z" fill="#111747"/>
<path d="M800 1000H900C955.228 1000 1000 1044.77 1000 1100C1000 1155.23 955.228 1200 900 1200H800V1000Z" fill="#FE5E33"/>
<path d="M800 800H900C955.228 800 1000 844.772 1000 900C1000 955.228 955.228 1000 900 1000H800V800Z" fill="#16A3B2"/>
<path d="M600 100C600 44.7715 644.772 0 700 0C755.228 0 800 44.7715 800 100V200H600V100Z" fill="#16A3B2"/>
<path d="M1200 300C1200 244.772 1244.77 200 1300 200C1355.23 200 1400 244.772 1400 300V400H1200V300Z" fill="#FE5E33"/>
<path d="M800 300C800 244.772 844.772 200 900 200C955.228 200 1000 244.772 1000 300V400H800V300Z" fill="#FE5E33"/>
<path d="M400 300C400 244.772 444.772 200 500 200C555.228 200 600 244.772 600 300V400H401.193C400.534 400 400 399.466 400 398.807V300Z" fill="#FF87A2"/>
<path d="M400 1100C400 1044.77 444.772 1000 500 1000C555.228 1000 600 1044.77 600 1100V1200H401.193C400.534 1200 400 1199.47 400 1198.81V1100Z" fill="#FF87A2"/>
<rect x="700" y="-100" width="200" height="200" rx="100" fill="#16A3B2"/>
<path fill-rule="evenodd" clip-rule="evenodd" d="M600 400H800C800 455.228 755.228 500 700 500C644.772 500 600 455.228 600 400Z" fill="#06818E"/>
<path fill-rule="evenodd" clip-rule="evenodd" d="M1000 200H1200C1200 255.228 1155.23 300 1100 300C1044.77 300 1000 255.228 1000 200Z" fill="#06818E"/>
<path fill-rule="evenodd" clip-rule="evenodd" d="M1200 300H1400C1400 355.228 1355.23 400 1300 400C1244.77 400 1200 355.228 1200 300Z" fill="#FFC641"/>
<path d="M800 700C800 644.772 844.772 600 900 600H998.02C999.113 600 1000 600.887 1000 601.98C1000 711.344 909.363 800 800 800V700Z" fill="#16A3B2"/>
<path d="M200 610.247C200 604.588 204.588 600 210.247 600H400V700C400 755.228 355.228 800 300 800C244.772 800 200 755.228 200 700V610.247Z" fill="#16A3B2"/>
<path fill-rule="evenodd" clip-rule="evenodd" d="M800 800H600C600 744.772 644.772 700 700 700C755.228 700 800 744.772 800 800Z" fill="#06818E"/>
<path fill-rule="evenodd" clip-rule="evenodd" d="M1600 400H1400C1400 344.772 1444.77 300 1500 300C1555.23 300 1600 344.772 1600 400Z" fill="#16A3B2"/>
<path fill-rule="evenodd" clip-rule="evenodd" d="M600 600H400C400 544.772 444.772 500 500 500C555.228 500 600 544.772 600 600Z" fill="#FE5E33"/>
<rect x="1200" y="800" width="200" height="200" fill="white"/>
<rect x="1200" y="1000" width="200" height="200" fill="#FE5E33"/>
<rect x="400" y="600" width="200" height="200" fill="#FFC641"/>
<path d="M400 800H600V900C600 955.228 555.228 1000 500 1000C444.772 1000 400 955.228 400 900V800Z" fill="#FFC641"/>
<path fill-rule="evenodd" clip-rule="evenodd" d="M800 -100C800 -44.7715 755.228 0 700 0C700 -55.2285 744.772 -100 800 -100ZM600 100C600 44.7715 644.772 0 700 0C700 55.2285 655.228 100 600 100ZM700 0C644.772 0 600 -44.7715 600 -100C655.228 -100 700 -55.2285 700 0ZM700 0C755.228 0 800 44.7715 800 100C744.772 100 700 55.2285 700 0Z" fill="#06818E"/>
<rect x="1200" y="400" width="200" height="200" fill="#FE5E33"/>
<rect y="1000" width="200" height="200" fill="#111747"/>
<rect x="1200" width="200" height="200" fill="#FE5E33"/>
<rect y="200" width="200" height="200" fill="#16A3B2"/>
<rect x="1400" y="400" width="200" height="200" fill="#16A3B2"/>
<rect x="1000" width="200" height="200" fill="#06818E"/>
<rect y="600" width="200" height="200" fill="#FE5E33"/>
<rect x="1200" y="600" width="200" height="200" fill="#FE5E33"/>
<path d="M1200 600H1300C1355.23 600 1400 644.772 1400 700V798.347C1400 799.26 1399.26 800 1398.35 800C1288.8 800 1200 709.544 1200 600Z" fill="#111747"/>
<path fill-rule="evenodd" clip-rule="evenodd" d="M1200 600C1144.77 600 1100 555.228 1100 500C1100 444.772 1144.77 400 1200 400V600Z" fill="#16A3B2"/>
<path fill-rule="evenodd" clip-rule="evenodd" d="M1200 600V400C1255.23 400 1300 444.772 1300 500C1300 555.228 1255.23 600 1200 600Z" fill="#16A3B2"/>
<path d="M1400 800H1500C1555.23 800 1600 844.772 1600 900C1600 955.228 1555.23 1000 1500 1000H1400V800Z" fill="#16A3B2"/>
<path fill-rule="evenodd" clip-rule="evenodd" d="M1400 1000C1344.77 1000 1300 955.228 1300 900C1300 844.772 1344.77 800 1400 800V1000Z" fill="#16A3B2"/>
<rect y="400" width="200" height="200" rx="100" fill="#FF87A2"/>
<rect x="1000" y="800" width="200" height="200" rx="100" fill="#FFC641"/>
<rect x="1400" y="600" width="200" height="200" fill="#FF87A2"/>
<path d="M1000 700C1000 644.772 1044.77 600 1100 600H1200V800H1100C1044.77 800 1000 755.228 1000 700Z" fill="#FF87A2"/>
<path fill-rule="evenodd" clip-rule="evenodd" d="M200 400H400C400 455.228 355.228 500 300 500C244.772 500 200 455.228 200 400Z" fill="#FF87A2"/>
<path fill-rule="evenodd" clip-rule="evenodd" d="M800 400H1000C1000 455.228 955.228 500 900 500C844.772 500 800 455.228 800 400Z" fill="#FE5E33"/>
<rect x="200" y="200" width="200" height="200" fill="#FF87A2"/>
<path fill-rule="evenodd" clip-rule="evenodd" d="M400 200H200C200 144.772 244.772 100 300 100C355.228 100 400 144.772 400 200Z" fill="#FF87A2"/>
<path fill-rule="evenodd" clip-rule="evenodd" d="M400 0C400 55.2285 355.228 100 300 100C300 44.7715 344.772 0 400 0Z" fill="#06818E"/>
<path fill-rule="evenodd" clip-rule="evenodd" d="M200 200C200 144.772 244.772 100 300 100C300 155.228 255.228 200 200 200Z" fill="#111747"/>
<path fill-rule="evenodd" clip-rule="evenodd" d="M350 386.577C320.11 369.286 300 336.969 300 299.955C300 262.941 320.11 230.623 350 213.333C379.89 230.623 400 262.941 400 299.955C400 336.969 379.89 369.286 350 386.577Z" fill="white"/>
<path fill-rule="evenodd" clip-rule="evenodd" d="M800 200C800 255.228 755.228 300 700 300C700 244.772 744.772 200 800 200Z" fill="#111747"/>
<path fill-rule="evenodd" clip-rule="evenodd" d="M1000 400C1055.23 400 1100 444.772 1100 500C1044.77 500 1000 455.228 1000 400Z" fill="#16A3B2"/>
<path fill-rule="evenodd" clip-rule="evenodd" d="M1400 600C1400 655.228 1355.23 700 1300 700C1300 644.772 1344.77 600 1400 600Z" fill="#FFC641"/>
<path fill-rule="evenodd" clip-rule="evenodd" d="M200 200C200 255.228 155.228 300 100 300C100 244.772 144.772 200 200 200Z" fill="#FFC641"/>
<path fill-rule="evenodd" clip-rule="evenodd" d="M200 800V600C255.228 600 300 644.772 300 700C300 755.228 255.228 800 200 800Z" fill="#FE5E33"/>
<path fill-rule="evenodd" clip-rule="evenodd" d="M0 800C0 744.772 44.7715 700 100 700C100 755.228 55.2285 800 0 800Z" fill="#16A3B2"/>
<rect width="200" height="200" rx="100" fill="#06818E"/>
<path fill-rule="evenodd" clip-rule="evenodd" d="M1186.58 250C1169.29 279.89 1136.97 300 1099.96 300C1062.94 300 1030.62 279.89 1013.33 250C1030.62 220.11 1062.94 200 1099.96 200C1136.97 200 1169.29 220.11 1186.58 250Z" fill="#16A3B2"/>
<path fill-rule="evenodd" clip-rule="evenodd" d="M0 400C0 344.772 44.7715 300 100 300C100 355.228 55.2285 400 0 400Z" fill="#06818E"/>
<path fill-rule="evenodd" clip-rule="evenodd" d="M600 600C600 544.772 644.772 500 700 500C700 555.228 655.228 600 600 600Z" fill="white"/>
<path fill-rule="evenodd" clip-rule="evenodd" d="M150 986.577C120.11 969.286 100 936.969 100 899.955C100 862.941 120.11 830.623 150 813.333C179.89 830.623 200 862.941 200 899.955C200 936.969 179.89 969.286 150 986.577ZM50 986.577C20.1099 969.286 0 936.969 0 899.955C0 862.941 20.1099 830.623 50 813.333C79.8901 830.623 100 862.941 100 899.955C100 936.969 79.8901 969.286 50 986.577Z" fill="#16A3B2"/>
<path fill-rule="evenodd" clip-rule="evenodd" d="M950 986.577C920.11 969.286 900 936.969 900 899.955C900 862.941 920.11 830.623 950 813.333C979.89 830.623 1000 862.941 1000 899.955C1000 936.969 979.89 969.286 950 986.577Z" fill="#111747"/>
<rect x="1400" y="400" width="200" height="200" rx="100" fill="#111747"/>
<rect x="400" y="800" width="200" height="200" rx="100" fill="#16A3B2"/>
<rect x="300" y="700" width="200" height="200" rx="100" fill="white"/>
<rect x="400" y="600" width="200" height="200" rx="100" fill="#FE5E33"/>
<rect x="1450" y="450" width="100" height="100" rx="50" fill="#FFC641"/>
<rect x="450" y="450" width="100" height="100" rx="50" fill="#FFC641"/>
<rect x="50" y="450" width="100" height="100" rx="50" fill="#111747"/>
<rect x="650" y="850" width="100" height="100" rx="50" fill="#FE5E33"/>
<rect x="850" y="650" width="100" height="100" rx="50" fill="#FE5E33"/>
<rect x="250" y="850" width="100" height="100" rx="50" fill="#16A3B2"/>
<rect x="1050" y="650" width="100" height="100" rx="50" fill="#16A3B2"/>
<rect x="50" y="850" width="100" height="100" rx="50" fill="#FE5E33"/>
<rect x="850" y="250" width="100" height="100" rx="50" fill="#FFC641"/>
<rect x="250" y="650" width="100" height="100" rx="50" fill="#111747"/>
<rect x="650" y="350" width="100" height="100" rx="50" fill="#FE5E33"/>
<rect x="1450" y="850" width="100" height="100" rx="50" fill="#FE5E33"/>
<path fill-rule="evenodd" clip-rule="evenodd" d="M1400 100C1400 155.228 1355.23 200 1300 200C1300 144.772 1344.77 100 1400 100ZM1200 300C1200 244.772 1244.77 200 1300 200C1300 255.228 1255.23 300 1200 300ZM1300 200C1244.77 200 1200 155.228 1200 100C1255.23 100 1300 144.772 1300 200ZM1300 200C1355.23 200 1400 244.772 1400 300C1344.77 300 1300 255.228 1300 200Z" fill="#111747"/>
<path fill-rule="evenodd" clip-rule="evenodd" d="M1100 1100C1100 1044.77 1144.77 1000 1200 1000C1200 1055.23 1155.23 1100 1100 1100Z" fill="#111747"/>
<path d="M400 0H600V100C600 155.228 555.228 200 500 200C444.772 200 400 155.228 400 100V0Z" fill="#06818E"/>
<path fill-rule="evenodd" clip-rule="evenodd" d="M500 100C500 44.7715 544.772 0 600 0C600 55.2285 555.228 100 500 100Z" fill="#FE5E33"/>
<rect x="200" y="1000" width="200" height="200" fill="#111747"/>
<path fill-rule="evenodd" clip-rule="evenodd" d="M400 1000H200C200 944.772 244.772 900 300 900C355.228 900 400 944.772 400 1000Z" fill="#FE5E33"/>
<path d="M1400 100C1400 44.7715 1444.77 0 1500 0H1600V200H1500C1444.77 200 1400 155.228 1400 100Z" fill="#111747"/>
<rect x="1450" y="50" width="100" height="100" rx="50" fill="white"/>
<path fill-rule="evenodd" clip-rule="evenodd" d="M100 1100C100 1044.77 144.772 1000 200 1000C200 1055.23 155.228 1100 100 1100Z" fill="#16A3B2"/>
<path fill-rule="evenodd" clip-rule="evenodd" d="M1600 1000C1600 1055.23 1555.23 1100 1500 1100C1500 1044.77 1544.77 1000 1600 1000ZM1400 1200C1400 1144.77 1444.77 1100 1500 1100C1500 1155.23 1455.23 1200 1400 1200ZM1500 1100C1444.77 1100 1400 1055.23 1400 1000C1455.23 1000 1500 1044.77 1500 1100ZM1500 1100C1555.23 1100 1600 1144.77 1600 1200C1544.77 1200 1500 1155.23 1500 1100Z" fill="#16A3B2"/>
<path fill-rule="evenodd" clip-rule="evenodd" d="M1586.58 250C1569.29 279.89 1536.97 300 1499.96 300C1462.94 300 1430.62 279.89 1413.33 250C1430.62 220.11 1462.94 200 1499.96 200C1536.97 200 1569.29 220.11 1586.58 250Z" fill="#FFC641"/>
<path fill-rule="evenodd" clip-rule="evenodd" d="M900 700C900 755.228 855.228 800 800 800C800 744.772 844.772 700 900 700Z" fill="#06818E"/>
<path fill-rule="evenodd" clip-rule="evenodd" d="M200 -100C200 -44.7715 155.228 0 100 0C100 -55.2285 144.772 -100 200 -100ZM200 100C144.772 100 100 55.2285 100 0C155.228 0 200 44.7715 200 100ZM0 -100C55.2285 -100 100 -55.2285 100 0C44.7715 0 0 -44.7715 0 -100ZM100 0C100 55.2285 55.2285 100 0 100C0 44.7715 44.7715 0 100 0Z" fill="#111747"/>
<path fill-rule="evenodd" clip-rule="evenodd" d="M600 700C600 755.228 555.228 800 500 800C500 744.772 544.772 700 600 700ZM400 900C400 844.772 444.772 800 500 800C500 855.228 455.228 900 400 900ZM500 800C444.772 800 400 755.228 400 700C455.228 700 500 744.772 500 800ZM500 800C555.228 800 600 844.772 600 900C544.772 900 500 855.228 500 800Z" fill="#51C5D2"/>
</g>
</svg>
