<svg id="Layer_2" data-name="Layer 2" xmlns="http://www.w3.org/2000/svg" xmlns:xlink="http://www.w3.org/1999/xlink" viewBox="0 0 400 300" class="illustration"><defs><linearGradient id="linear-gradient" x1="260.43" y1="247.4" x2="254.65" y2="238.4" gradientUnits="userSpaceOnUse"><stop offset="0" stop-color="#fff" stop-opacity="0"></stop><stop offset="0.98" stop-color="#0800bf"></stop></linearGradient><linearGradient id="linear-gradient-2" x1="258.61" y1="195.66" x2="282.17" y2="176.67" gradientTransform="matrix(-1, 0, 0, 1, 608.63, 0)" xlink:href="#linear-gradient"></linearGradient><linearGradient id="linear-gradient-3" x1="127.37" y1="186.12" x2="115.2" y2="163.76" xlink:href="#linear-gradient"></linearGradient><linearGradient id="linear-gradient-4" x1="283.46" y1="186.27" x2="271.64" y2="164.54" xlink:href="#linear-gradient"></linearGradient></defs><title>PP</title><path d="M194.73,278.09,29,180.12c-5.28-3-9.8-7.83-4.66-11L190.67,73.22c2.5-1.55,6.29-2.56,8.82-1.09l174,101c5.28,3.06,6.22,11.63.94,14.69L216.58,277.93A22,22,0,0,1,194.73,278.09Z" fill="#9ac0ff"></path><polyline points="210.87 240.87 243.55 259.63 293.91 228.91 259.62 209.29" opacity="0.32" fill="url(#linear-gradient)"></polyline><path d="M115.33,9.17a1.5,1.5,0,0,0,0-3,1.5,1.5,0,0,0,0,3Z" fill="#e6e6e6"></path><polyline points="138.9 172.04 139.65 172.48 214.28 216 216.34 213.16 222.51 211.66 222.54 209.22 228.84 207.98 230.19 205.42 234.67 204.99 236.74 201.64 240.17 200.88 242.49 198.32 247.67 197.55 249.99 194.02 175.03 151.18 171.5 150.49 170.59 153.74 168.34 151.99 166.67 155.27 163.5 155.27 162.73 158.28 158.61 158.69 158.29 160.84 154.17 161.66 153.17 164.32 150.17 163.82 149.05 166.81 144.5 166.08 144 168.39 140.67 169.47" fill="#fff"></polyline><polygon points="277.01 220.71 277.01 223.61 276.13 222.16 277.01 220.71" fill="#756373"></polygon><polygon points="155.37 204.31 155.37 207.1 157.62 205.6 155.37 204.31" fill="#756373"></polygon><path d="M157.19,210.12l69.93,40.06a7.91,7.91,0,0,0,7.93,0l40.18-23.55a3.61,3.61,0,0,0,0-6.25L205,179.82a6.88,6.88,0,0,0-6.93,0l-40.87,24A3.61,3.61,0,0,0,157.19,210.12Z" fill="#513f2c"></path><path d="M157.19,207.34l69.93,40.06a7.91,7.91,0,0,0,7.93,0l40.18-23.55a3.61,3.61,0,0,0,0-6.25L205,177a6.88,6.88,0,0,0-6.93,0l-40.87,24A3.61,3.61,0,0,0,157.19,207.34Z" fill="#fb5b5b"></path><path d="M165.26,203.91l12.28,7.18a1.87,1.87,0,0,0,1.95,0l6.84-4.34a1.07,1.07,0,0,0,0-1.82l-12.87-7.4a1.63,1.63,0,0,0-1.75.08l-6.49,4.55A1.07,1.07,0,0,0,165.26,203.91Z" fill="#fff"></path><ellipse cx="224.61" cy="230.99" rx="6.48" ry="4.56" fill="#ff4700"></ellipse><ellipse cx="231.59" cy="234.94" rx="6.48" ry="4.56" fill="#ffdf24"></ellipse><polygon points="179.31 188.07 258.06 233.87 270.23 226.74 190.47 181.5 179.31 188.07" fill="#513f2c"></polygon><path d="M344.14,202.65a133.36,133.36,0,0,1,20.1-11.57l-35.84-15-11.82,8.63c8.33,5.34,16.69,10.62,24.92,16.09C342.39,201.43,343.26,202,344.14,202.65Z" opacity="0.32" fill="url(#linear-gradient-2)"></path><path d="M337.6,154.2a2.1,2.1,0,0,0-.37-.78,4.67,4.67,0,0,0-1.14-1c-5.81-3.93-13.86-5-20-1.17-1.4.88-3.49,2.87-2.66,4.75.48,1.09,1.94,1.73,3,2.17a44.57,44.57,0,0,0,10.51,2.74c1.3.22,2.62.44,3.93.56a5.43,5.43,0,0,0,4.79-2.05C336.55,158.26,338,155.91,337.6,154.2Z" fill="#754c24"></path><path d="M313.27,155.14s5.3,4.8,14.46,4.1,9.87-5,9.87-5-2.37,30.36-3.62,30.88-5.93,2.78-8.19,2.95-9.4-2.69-9.58-3.48S313.27,155.14,313.27,155.14Z" fill="#ff8f6f"></path><path d="M314.94,110.89c-.28-.57-1.15-.07-.86.5,6.27,12.64,7.49,26.87,8.62,40.69.05.63,1.05.64,1,0C322.55,138.07,321.29,123.7,314.94,110.89Z" fill="#007f68"></path><path d="M314.14,111s1.75,6.56-.06,9.84-3.3,3.93-1.14,8,7.94,4.62,8.32,7.74S318.49,116.58,314.14,111Z" fill="#007f68"></path><path d="M334.19,122.85a82.45,82.45,0,0,0-8,32.26c0,.78,1.19.77,1.22,0a81,81,0,0,1,7.79-31.66C335.57,122.76,334.52,122.15,334.19,122.85Z" fill="#007f68"></path><path d="M335,126.05c0-.66-.15-2-.08-3.11l-.7.44c-2.38,5.79-5.94,19.39-7,23.55,1.45-3.12,7.38-3.55,9.12-8a8.19,8.19,0,0,0,.1-5.91A21.82,21.82,0,0,1,335,126.05Z" fill="#007f68"></path><polyline points="69.86 185.79 103.34 204.31 172.45 163.6 140.97 145.59" opacity="0.32" fill="url(#linear-gradient-3)"></polyline><path d="M67.42,139.55v42.81a3.65,3.65,0,0,0,5.51,3.13l63.53-37.82a3.65,3.65,0,0,0,1.78-3.13v-43.6a3.65,3.65,0,0,0-5.49-3.15l-62.26,36.4A6.21,6.21,0,0,0,67.42,139.55Z" fill="#5da024"></path><path d="M70.15,140.61v42.81a3.65,3.65,0,0,0,5.51,3.13l63.53-37.82a3.65,3.65,0,0,0,1.78-3.13V102a3.65,3.65,0,0,0-5.49-3.15l-62.26,36.4A6.21,6.21,0,0,0,70.15,140.61Z" fill="#79c83b"></path><ellipse cx="131.76" cy="141.64" rx="6.66" ry="4.52" transform="translate(-48.33 212.3) rotate(-68.49)" fill="#fbf472"></ellipse><ellipse cx="125.32" cy="145.24" rx="6.66" ry="4.52" transform="translate(-55.76 208.57) rotate(-68.49)" fill="#e2347c"></ellipse><path d="M78.07,137.95c.8-.46,1.34-.22,1.51.65l-.61.56c-.16-.48-.46-.6-.9-.35a1.91,1.91,0,0,0-.75.86,3.28,3.28,0,0,0-.3,1.44,1.5,1.5,0,0,0,.29,1.09.58.58,0,0,0,.74,0,2.06,2.06,0,0,0,.91-1.39l.61-.14A3.3,3.3,0,0,1,78,143.07a1,1,0,0,1-1.23,0,2,2,0,0,1-.49-1.59,4.65,4.65,0,0,1,.51-2.17A3.29,3.29,0,0,1,78.07,137.95Z" fill="#fff"></path><path d="M81.94,138.56l1,1.66-.76.44-1-1.6-.36.2v2.16l-.68.39,0-5,1.34-.77c.71-.41,1.11-.07,1.11.79A2.46,2.46,0,0,1,81.94,138.56Zm-.42-.54a.86.86,0,0,0,.44-.81q0-.57-.43-.32l-.66.38v1.13l.66-.38" fill="#fff"></path><polygon points="85.72 133.64 85.72 134.5 84.13 135.4 84.12 136.45 85.39 135.73 85.39 136.59 84.12 137.31 84.11 138.69 85.75 137.76 85.75 138.62 83.42 139.94 83.45 134.93 85.72 133.64" fill="#fff"></polygon><path d="M87.54,132.6c.87-.49,1.71-.22,1.7,1.53a4,4,0,0,1-1.72,3.48l-1.14.65,0-5Zm.59,3.48a2.8,2.8,0,0,0,.41-1.55c0-.64-.15-1-.4-1.09a1,1,0,0,0-.82.15l-.25.14,0,3.29.25-.14a2.4,2.4,0,0,0,.83-.8" fill="#fff"></path><polygon points="90.55 130.88 90.52 135.89 89.84 136.28 89.86 131.27 90.55 130.88" fill="#fff"></polygon><polygon points="93.84 129 93.84 129.86 92.82 130.44 92.8 134.59 92.12 134.98 92.14 130.83 91.12 131.41 91.13 130.55 93.84 129" fill="#fff"></polygon><path d="M97.17,127c.8-.46,1.34-.22,1.51.65l-.61.56c-.16-.48-.46-.6-.9-.35a1.93,1.93,0,0,0-.75.86,3.28,3.28,0,0,0-.3,1.44,1.5,1.5,0,0,0,.29,1.09.59.59,0,0,0,.74,0,2.06,2.06,0,0,0,.91-1.39l.61-.14a3.3,3.3,0,0,1-1.53,2.38,1,1,0,0,1-1.23,0,2,2,0,0,1-.49-1.59,4.63,4.63,0,0,1,.51-2.17A3.29,3.29,0,0,1,97.17,127Z" fill="#fff"></path><path d="M100.79,125l1.22,4.3-.73.42-.26-1-1.17.67-.27,1.34-.73.42,1.27-5.72Zm-.74,3.38.77-.44-.38-1.51-.4,2" fill="#fff"></path><path d="M104.24,125.83l1,1.66-.76.44-1-1.6-.35.2v2.16l-.68.39,0-5,1.33-.76c.71-.41,1.11-.07,1.11.79A2.46,2.46,0,0,1,104.24,125.83Zm-.42-.54a.85.85,0,0,0,.43-.8c0-.38-.14-.49-.42-.32l-.66.38v1.13l.66-.38" fill="#fff"></path><path d="M106.9,121.55c.86-.49,1.7-.22,1.69,1.54a4,4,0,0,1-1.72,3.47l-1.14.65,0-5Zm.59,3.48a2.84,2.84,0,0,0,.41-1.55c0-.64-.15-1-.4-1.09a1,1,0,0,0-.82.15l-.25.15,0,3.29.25-.15a2.42,2.42,0,0,0,.83-.8" fill="#fff"></path><path d="M77.71,151.18v8a1.92,1.92,0,0,0,2.88,1.67l11.17-6.38a1.92,1.92,0,0,0,1-1.67v-8.17A1.92,1.92,0,0,0,89.83,143l-11.17,6.55A1.92,1.92,0,0,0,77.71,151.18Z" fill="#d1d1f5"></path><polygon points="97.13 144.43 97.39 144.28 97.06 149.28 96.47 149.63 96.72 145.89 96.05 146.83 96.12 145.86 97.13 144.43" fill="#fff"></polygon><path d="M99,143.27l.08,0c.61-.36.94,0,.88.87a4.2,4.2,0,0,1-.36,1.36l-.9,2.07,1.15-.69-.06.82L97.7,148.9l0-.36,1.32-3a3.39,3.39,0,0,0,.31-1.06c0-.41-.1-.57-.36-.41l0,0a1.29,1.29,0,0,0-.44.89l-.53.17a2.93,2.93,0,0,1,.36-1.13A2.14,2.14,0,0,1,99,143.27Z" fill="#fff"></path><path d="M100.8,142.23l1.87-1.12,0,.32-.87,2.05.13-.1c.5-.29.77.12.72,1a3.44,3.44,0,0,1-.39,1.41,2.34,2.34,0,0,1-.72.86l-.1.06c-.3.19-.55.2-.73.05a1,1,0,0,1-.27-.84l.57-.45c0,.44.2.58.48.42l0,0a1.52,1.52,0,0,0,.54-1.13c0-.57-.15-.75-.45-.57l0,0a1.14,1.14,0,0,0-.26.26l-.2-.36.7-1.66-1,.62Z" fill="#fff"></path><path d="M105.11,142.77l.36-.22-.05.83-.37.21-.06.93-.59.35.06-.93-1.4.84,0-.46,1.61-4.44.62-.37Zm-.59.35.12-1.9-.82,2.32.69-.42" fill="#fff"></path><path d="M109.14,140.36l.37-.22-.06.83-.36.21-.06.94-.58.35.06-.93-1.4.84,0-.45,1.62-4.44.62-.37Zm-.59.35.13-1.91-.82,2.33.69-.42" fill="#fff"></path><path d="M110.55,136.4l1.69-1-.06.83-1.2.72-.15,1.09a1.71,1.71,0,0,1,.4-.41l.08,0c.66-.4,1,0,.9,1.05a3.67,3.67,0,0,1-.37,1.42,2.31,2.31,0,0,1-.72.89L111,141a.59.59,0,0,1-.69.06,1,1,0,0,1-.26-.8l.57-.49c0,.43.18.56.44.4l0,0a1.44,1.44,0,0,0,.5-1.15c0-.57-.13-.75-.45-.56l-.05,0a1.91,1.91,0,0,0-.56.76l-.36.11Z" fill="#fff"></path><path d="M114.7,136.09a1.26,1.26,0,0,1,.23,1,3.39,3.39,0,0,1-.39,1.35,2.41,2.41,0,0,1-.72.88l-.09.06a.58.58,0,0,1-.75,0,1.2,1.2,0,0,1-.24-1,3.51,3.51,0,0,1,.22-1l1.12-3.19.65-.39-.83,2.28.08,0C114.28,135.9,114.52,135.9,114.7,136.09Zm-.36,1.34c0-.5-.16-.68-.45-.5l0,0a1.44,1.44,0,0,0-.51,1.07c0,.48.17.67.45.5l0,0a1.48,1.48,0,0,0,.52-1.08" fill="#fff"></path><polygon points="115.53 133.42 117.51 132.23 117.49 132.61 115.95 137.98 115.37 138.32 116.76 133.48 115.47 134.25 115.53 133.42" fill="#fff"></polygon><path d="M120.65,132.57c.28.08.4.39.36.94a3,3,0,0,1-.39,1.31,2.33,2.33,0,0,1-.69.81l-.09.06a.59.59,0,0,1-.73,0,1.11,1.11,0,0,1-.23-.94,2.74,2.74,0,0,1,.51-1.46c-.19-.12-.27-.39-.24-.82a2.78,2.78,0,0,1,.33-1.13,2.05,2.05,0,0,1,.63-.76l.07,0c.28-.16.49-.17.65,0a1,1,0,0,1,.2.81A2.57,2.57,0,0,1,120.65,132.57Zm-.23,1.3a.57.57,0,0,0-.1-.45c-.08-.07-.19-.07-.33,0l0,0a1,1,0,0,0-.31.37,1.48,1.48,0,0,0-.17.6.56.56,0,0,0,.1.45c.08.07.19.08.32,0l0,0a1,1,0,0,0,.31-.37,1.45,1.45,0,0,0,.17-.6m.06-2.14c0-.38-.12-.53-.36-.39l0,0a1.13,1.13,0,0,0-.4.83c0,.38.12.55.35.41l0,0a1.16,1.16,0,0,0,.41-.85" fill="#fff"></path><path d="M123.53,129a1.2,1.2,0,0,1,.24,1,3.41,3.41,0,0,1-.21,1l-1.12,3.18-.66.39.83-2.28-.07,0q-.45.27-.73,0a1.27,1.27,0,0,1-.22-1A3.26,3.26,0,0,1,122,130a2.41,2.41,0,0,1,.72-.88l.09-.06A.57.57,0,0,1,123.53,129Zm-.35,1.32c0-.48-.17-.67-.46-.49l0,0a1.49,1.49,0,0,0-.52,1.08c0,.5.16.68.46.49l0,0a1.44,1.44,0,0,0,.51-1.07" fill="#fff"></path><polygon points="124.32 128.16 126.31 126.97 126.28 127.34 124.75 132.71 124.17 133.05 125.56 128.21 124.27 128.99 124.32 128.16" fill="#fff"></polygon><path d="M128.54,126a1.23,1.23,0,0,1,.24,1,3.32,3.32,0,0,1-.21,1l-1.12,3.18-.66.39.83-2.28-.07,0c-.3.19-.55.19-.73,0a1.33,1.33,0,0,1-.22-1A3.32,3.32,0,0,1,127,127a2.39,2.39,0,0,1,.72-.88l.09-.06C128.1,125.85,128.35,125.84,128.54,126Zm-.35,1.33c0-.48-.17-.67-.46-.49l0,0a1.49,1.49,0,0,0-.52,1.08c0,.5.16.68.46.49l0,0a1.44,1.44,0,0,0,.51-1.07" fill="#fff"></path><polygon points="86.45 166.3 85.53 169.13 86.49 171.05 85.82 171.52 85.18 170.23 84.46 172.46 83.78 172.93 84.87 169.59 84.05 167.96 84.72 167.5 85.22 168.5 85.79 166.76 86.45 166.3" fill="#fff"></polygon><polygon points="92.01 162.46 91.09 165.29 92.05 167.21 91.37 167.68 90.74 166.39 90.01 168.62 89.34 169.09 90.42 165.75 89.61 164.12 90.28 163.66 90.78 164.66 91.35 162.92 92.01 162.46" fill="#fff"></polygon><polygon points="89.23 164.38 88.31 167.21 89.27 169.13 88.59 169.6 87.96 168.31 87.23 170.54 86.56 171.01 87.64 167.67 86.83 166.04 87.5 165.58 88 166.58 88.57 164.84 89.23 164.38" fill="#fff"></polygon><polygon points="95.95 159.73 95.03 162.57 95.99 164.49 95.31 164.96 94.68 163.67 93.95 165.9 93.28 166.36 94.37 163.03 93.55 161.39 94.22 160.93 94.72 161.94 95.29 160.19 95.95 159.73" fill="#fff"></polygon><polygon points="98.73 157.81 97.81 160.65 98.77 162.57 98.09 163.04 97.46 161.74 96.73 163.98 96.06 164.44 97.15 161.11 96.33 159.47 97 159.01 97.5 160.01 98.07 158.27 98.73 157.81" fill="#fff"></polygon><polygon points="101.51 155.89 100.59 158.73 101.55 160.65 100.88 161.11 100.24 159.82 99.52 162.05 98.83 162.52 99.92 159.19 99.11 157.55 99.78 157.09 100.28 158.09 100.85 156.35 101.51 155.89" fill="#fff"></polygon><polyline points="240.75 180.67 270.23 198.45 315.3 171.89 283.82 153.88" opacity="0.32" fill="url(#linear-gradient-4)"></polyline><path d="M175.32,64.12a10.68,10.68,0,0,0-4.61,9.26c.29,8.55,2.2,10.2,2.2,10.2l13.63-6.67,19.77-14.45S189.65,58.37,175.32,64.12Z" fill="#666"></path><path d="M151.08,111.5s-3.18,11.89,13.09,24.24,76.58,44.93,76.58,44.93l44.75-26.43V133.82l-117-40.15" fill="#e6e6e6"></path><path d="M285.5,133.82,219.7,85.55s-10.26-8.84-19.28-8-45.06,25-45.06,25L244.29,160Z" fill="#333"></path><polygon points="207.9 123.8 219 132.56 246.42 116.09 236 107.83 207.9 123.8" fill="#70f9e9"></polygon><polygon points="193.71 116.44 243.52 154.24 277.01 135.08 227.16 97.28 193.71 116.44" fill="#fb5b5b"></polygon><path d="M244.29,158.2l-54.38-40.62s-23.67-22.94-32.75-16.09c0,0-5.2,1.88-6.08,10,0,0,7.43-6.16,15.21-1.4s76.23,57.32,76.23,57.32Z" fill="#666"></path><polygon points="244.29 158.2 285.5 133.82 285.5 141.68 242.52 167.42 244.29 158.2" fill="#515151"></polygon><path d="M242.52,167.42l-1.77,13.25s44.75-25.46,44.75-26.43V141.68Z" fill="#ccc"></path><path d="M189.36,104.31,212,91.94s-.32-21.94-9-35.34a5.89,5.89,0,0,0-7.45-2l-20.18,9.54S183.1,59.56,189.36,104.31Z" fill="#e6e6e6"></path><line x1="190.79" y1="77.53" x2="205.29" y2="69.58" fill="#e6e6e6" stroke="#999" stroke-miterlimit="10"></line><line x1="191.81" y1="80.88" x2="206.32" y2="72.93" fill="#e6e6e6" stroke="#999" stroke-miterlimit="10"></line><line x1="192.39" y1="84.12" x2="206.9" y2="76.17" fill="#e6e6e6" stroke="#999" stroke-miterlimit="10"></line><line x1="194.45" y1="97.65" x2="208.95" y2="89.7" fill="#e6e6e6" stroke="#999" stroke-miterlimit="10"></line><path d="M250.37,127.28c-.83,4.62-8.23,7.17-16.52,5.7s-14.34-6.42-13.51-11,8.23-7.17,16.52-5.7S251.21,122.66,250.37,127.28Z" fill="#01c56f"></path><polyline points="232.22 128.49 238.85 128.49 236.2 118.79" fill="none" stroke="#f2f2f2" stroke-miterlimit="10" stroke-width="2"></polyline></svg>