<svg viewBox="0 0 362 231" fill="none" xmlns="http://www.w3.org/2000/svg">
<path d="M175.651 228.011L7.43506 128.572C2.07586 125.527 -2.51194 120.624 2.70516 117.407L171.53 20.0683C174.068 18.495 177.914 17.4699 180.482 18.9619L357.092 121.477C362.452 124.583 363.406 133.281 358.047 136.387L197.829 227.849C194.466 229.805 190.651 230.85 186.761 230.878C182.871 230.907 179.042 229.918 175.651 228.011Z" fill="#9AC0FF"/>
<path opacity="0.32" d="M192.033 190.233L225.203 209.275L276.319 178.094L241.514 158.179" fill="url(#paint0_linear)"/>
<path d="M118.984 120.371L119.745 120.817L195.494 164.99L197.585 162.107L203.848 160.585L203.878 158.108L210.273 156.85L211.643 154.251L216.19 153.815L218.291 150.415L221.773 149.643L224.127 147.045L229.385 146.263L231.74 142.68L155.655 99.1977L152.073 98.4973L151.149 101.796L148.865 100.02L147.17 103.349H143.953L143.171 106.404L138.989 106.82L138.664 109.003L134.483 109.835L133.468 112.535L130.423 112.027L129.286 115.062L124.668 114.321L124.16 116.666L120.78 117.762" fill="white"/>
<path d="M259.165 169.771V172.714L258.272 171.242L259.165 169.771Z" fill="#756373"/>
<path d="M135.701 153.125V155.957L137.984 154.434L135.701 153.125Z" fill="#756373"/>
<path d="M137.548 159.022L208.527 199.683C209.75 200.391 211.138 200.764 212.551 200.764C213.965 200.764 215.353 200.391 216.576 199.683L257.358 175.779C257.915 175.458 258.377 174.995 258.698 174.438C259.019 173.882 259.188 173.25 259.188 172.607C259.188 171.965 259.019 171.333 258.698 170.777C258.377 170.22 257.915 169.757 257.358 169.436L186.075 128.267C185.007 127.645 183.794 127.317 182.558 127.317C181.322 127.317 180.109 127.645 179.041 128.267L137.558 152.627C136.989 152.944 136.515 153.408 136.185 153.969C135.854 154.531 135.68 155.17 135.679 155.821C135.678 156.473 135.85 157.113 136.179 157.675C136.507 158.238 136.98 158.703 137.548 159.022V159.022Z" fill="#513F2C"/>
<path d="M137.548 156.2L208.527 196.861C209.75 197.569 211.138 197.942 212.551 197.942C213.965 197.942 215.353 197.569 216.576 196.861L257.358 172.958C257.915 172.636 258.377 172.173 258.698 171.617C259.019 171.06 259.188 170.428 259.188 169.786C259.188 169.143 259.019 168.512 258.698 167.955C258.377 167.398 257.915 166.936 257.358 166.614L186.075 125.405C185.007 124.783 183.794 124.455 182.558 124.455C181.322 124.455 180.109 124.783 179.041 125.405L137.558 149.765C136.979 150.079 136.496 150.543 136.159 151.109C135.821 151.675 135.643 152.321 135.642 152.979C135.641 153.638 135.817 154.285 136.153 154.851C136.488 155.418 136.97 155.884 137.548 156.2V156.2Z" fill="#FB5B5B"/>
<path d="M145.739 152.719L158.203 160.006C158.501 160.188 158.844 160.285 159.193 160.285C159.542 160.285 159.884 160.188 160.182 160.006L167.125 155.601C167.282 155.504 167.412 155.368 167.502 155.206C167.592 155.045 167.64 154.863 167.64 154.678C167.64 154.493 167.592 154.311 167.502 154.149C167.412 153.987 167.282 153.851 167.125 153.754L154.062 146.243C153.789 146.086 153.477 146.01 153.162 146.025C152.847 146.039 152.543 146.143 152.286 146.324L145.698 150.942C145.558 151.046 145.445 151.182 145.368 151.338C145.291 151.494 145.254 151.667 145.257 151.841C145.261 152.015 145.307 152.186 145.391 152.339C145.475 152.491 145.594 152.622 145.739 152.719V152.719Z" fill="white"/>
<path d="M205.979 184.833C209.612 184.833 212.556 182.761 212.556 180.205C212.556 177.649 209.612 175.576 205.979 175.576C202.347 175.576 199.402 177.649 199.402 180.205C199.402 182.761 202.347 184.833 205.979 184.833Z" fill="#FF4700"/>
<path d="M213.064 188.842C216.696 188.842 219.641 186.77 219.641 184.214C219.641 181.658 216.696 179.586 213.064 179.586C209.431 179.586 206.487 181.658 206.487 184.214C206.487 186.77 209.431 188.842 213.064 188.842Z" fill="#FFDF24"/>
<path d="M160 136.641L239.931 183.128L252.283 175.891L171.327 129.972L160 136.641Z" fill="#513F2C"/>
<path opacity="0.32" d="M327.302 151.44C333.749 146.94 340.575 143.011 347.704 139.696L311.326 124.471L299.329 133.231C307.784 138.651 316.269 144.01 324.622 149.562C325.526 150.201 326.409 150.78 327.302 151.44Z" fill="url(#paint1_linear)"/>
<path d="M320.664 102.263C320.595 101.976 320.467 101.706 320.289 101.471C319.961 101.072 319.57 100.729 319.131 100.456C313.234 96.4674 305.064 95.3813 298.831 99.2688C297.41 100.162 295.289 102.182 296.132 104.09C296.619 105.196 298.101 105.846 299.177 106.293C302.606 107.651 306.188 108.585 309.844 109.074C311.164 109.297 312.503 109.52 313.833 109.642C314.753 109.731 315.68 109.587 316.53 109.223C317.379 108.859 318.124 108.288 318.695 107.561C319.598 106.384 321.07 103.999 320.664 102.263Z" fill="#754C24"/>
<path d="M295.969 103.217C295.969 103.217 301.349 108.089 310.646 107.379C319.943 106.668 320.664 102.304 320.664 102.304C320.664 102.304 318.258 133.119 316.99 133.647C315.721 134.175 310.971 136.469 308.677 136.641C306.383 136.814 299.136 133.911 298.953 133.109C298.77 132.307 295.969 103.217 295.969 103.217Z" fill="#FF8F6F"/>
<path d="M297.664 58.3033C297.38 57.7247 296.497 58.2322 296.791 58.8108C303.155 71.6404 304.394 86.0838 305.541 100.111C305.591 100.751 306.606 100.761 306.556 100.111C305.388 85.891 304.109 71.3054 297.664 58.3033Z" fill="#007F68"/>
<path d="M296.852 58.415C296.852 58.415 298.628 65.0734 296.791 68.4026C294.954 71.7318 293.442 72.3916 295.634 76.5226C297.826 80.6537 303.693 81.2119 304.079 84.3787C304.465 87.5455 301.267 64.0787 296.852 58.415Z" fill="#007F68"/>
<path d="M317.203 70.4428C312.302 80.6931 309.539 91.834 309.083 103.187C309.083 103.978 310.291 103.968 310.321 103.187C310.751 92.0499 313.442 81.1168 318.228 71.0518C318.604 70.3515 317.538 69.7323 317.203 70.4428Z" fill="#007F68"/>
<path d="M318.025 73.6908C318.025 73.0209 317.873 71.6608 317.944 70.5342L317.233 70.9808C314.818 76.8576 311.204 90.6616 310.128 94.884C311.6 91.7172 317.619 91.2808 319.385 86.764C320.164 84.8468 320.201 82.7079 319.487 80.7654C318.615 78.5031 318.122 76.1131 318.025 73.6908V73.6908Z" fill="#007F68"/>
<path opacity="0.32" d="M48.908 134.327L82.8902 153.125L153.037 111.804L121.085 93.5239" fill="url(#paint2_linear)"/>
<path d="M46.4313 87.3933V130.845C46.4332 131.498 46.6076 132.139 46.9368 132.703C47.266 133.267 47.7384 133.734 48.3061 134.056C48.8738 134.379 49.5167 134.545 50.1696 134.539C50.8224 134.533 51.4622 134.355 52.0239 134.022L116.507 95.6351C117.057 95.3069 117.513 94.8417 117.829 94.2849C118.146 93.7281 118.313 93.0987 118.314 92.4581V48.2041C118.313 47.5525 118.141 46.9125 117.814 46.3488C117.487 45.785 117.018 45.3174 116.453 44.9931C115.887 44.6688 115.247 44.4993 114.595 44.5017C113.943 44.5042 113.304 44.6784 112.741 45.0069L49.5473 81.9529C48.5984 82.509 47.8115 83.3038 47.2649 84.2582C46.7183 85.2126 46.4309 86.2934 46.4313 87.3933V87.3933Z" fill="#5DA024"/>
<path d="M49.2023 88.4692V131.921C49.2042 132.574 49.3785 133.215 49.7078 133.779C50.037 134.343 50.5094 134.809 51.0771 135.132C51.6448 135.454 52.2877 135.621 52.9406 135.615C53.5934 135.609 54.2332 135.431 54.7949 135.098L119.278 96.711C119.828 96.3828 120.284 95.9176 120.6 95.3608C120.917 94.804 121.084 94.1746 121.085 93.5341V49.2801C121.084 48.6285 120.912 47.9885 120.585 47.4247C120.258 46.8609 119.789 46.3933 119.224 46.069C118.658 45.7447 118.018 45.5752 117.366 45.5777C116.714 45.5801 116.075 45.7543 115.512 46.0828L52.3183 83.0288C51.3694 83.585 50.5825 84.3797 50.0359 85.3341C49.4892 86.2885 49.2019 87.3693 49.2023 88.4692V88.4692Z" fill="#79C83B"/>
<path d="M116.001 91.2078C117.37 87.7345 116.569 84.1656 114.212 83.2366C111.855 82.3075 108.834 84.3701 107.465 87.8435C106.096 91.3168 106.897 94.8857 109.255 95.8147C111.612 96.7438 114.633 94.6812 116.001 91.2078Z" fill="#FBF472"/>
<path d="M109.463 94.8431C110.832 91.3697 110.03 87.8009 107.673 86.8718C105.316 85.9428 102.295 88.0054 100.926 91.4787C99.5573 94.9521 100.359 98.521 102.716 99.45C105.073 100.379 108.094 98.3165 109.463 94.8431Z" fill="#E2347C"/>
<path d="M57.2411 85.7693C58.0531 85.3024 58.6012 85.546 58.7737 86.4291L58.1546 86.9975C57.9922 86.5103 57.6877 86.3885 57.2411 86.6422C56.9043 86.8488 56.6387 87.1534 56.4798 87.5151C56.269 87.973 56.1649 88.4728 56.1753 88.9767C56.1258 89.3698 56.2314 89.7666 56.4697 90.0831C56.5753 90.1705 56.7081 90.2184 56.8452 90.2184C56.9824 90.2184 57.1152 90.1705 57.2208 90.0831C57.4643 89.9249 57.6721 89.7178 57.8312 89.4749C57.9902 89.232 58.0969 88.9586 58.1444 88.6722L58.7636 88.5301C58.6984 89.0299 58.5212 89.5085 58.2453 89.9303C57.9694 90.3521 57.6018 90.7061 57.17 90.9661C56.9917 91.1052 56.772 91.1808 56.5458 91.1808C56.3196 91.1808 56.0999 91.1052 55.9216 90.9661C55.7277 90.7486 55.583 90.4918 55.4971 90.2134C55.4113 89.9349 55.3865 89.6412 55.4242 89.3523C55.4157 88.587 55.5933 87.8311 55.9419 87.1497C56.2325 86.5737 56.6838 86.0943 57.2411 85.7693Z" fill="white"/>
<path d="M61.169 86.3883L62.184 88.0732L61.4126 88.5198L60.3976 86.8958L60.0322 87.0988V89.2912L59.342 89.6871V84.6121L60.7021 83.8305C61.4228 83.4143 61.8288 83.7595 61.8288 84.6324C61.8454 85.2812 61.6088 85.911 61.169 86.3883V86.3883ZM60.7427 85.8402C60.8875 85.7597 61.0064 85.6396 61.0855 85.494C61.1646 85.3484 61.2006 85.1834 61.1893 85.0181C61.1893 84.6324 61.0439 84.5241 60.7529 84.6933L60.083 85.079V86.2259L60.7529 85.8402" fill="white"/>
<path d="M65.0058 81.3945V82.2674L63.3919 83.1809L63.3818 84.2467L64.6708 83.5159V84.3888L63.3818 85.1196L63.3716 86.5203L65.0362 85.5763V86.4492L62.6713 87.789L62.7017 82.7039L65.0058 81.3945Z" fill="white"/>
<path d="M66.8531 80.339C67.7361 79.8417 68.5887 80.1157 68.5786 81.8919C68.6114 82.5805 68.4683 83.2661 68.1629 83.884C67.8574 84.502 67.3997 85.032 66.8328 85.4241L65.6757 86.0839V81.0089L66.8531 80.339ZM67.4519 83.8712C67.741 83.3986 67.8857 82.8517 67.8681 82.2979C67.8681 81.6483 67.7158 81.2829 67.4621 81.1916C67.3205 81.1556 67.1729 81.1506 67.0293 81.1769C66.8857 81.2031 66.7494 81.2601 66.6298 81.3438L66.376 81.4859V84.8253L66.6298 84.6832C66.9724 84.485 67.2615 84.2063 67.4722 83.8712" fill="white"/>
<path d="M69.9083 78.5933L69.8778 83.6784L69.1876 84.0743L69.2079 78.9891L69.9083 78.5933Z" fill="white"/>
<path d="M73.2476 76.6851V77.558L72.2123 78.1467L72.192 82.3589L71.5018 82.7548L71.5221 78.5425L70.4868 79.1312L70.497 78.2583L73.2476 76.6851Z" fill="white"/>
<path d="M76.6275 74.6551C77.4395 74.1882 77.9876 74.4318 78.1601 75.3148L77.541 75.8832C77.3786 75.396 77.0741 75.2742 76.6275 75.528C76.2916 75.7356 76.0262 76.0398 75.8662 76.4009C75.6554 76.8587 75.5513 77.3585 75.5618 77.8625C75.5122 78.2555 75.6178 78.6524 75.8561 78.9688C75.9625 79.0545 76.095 79.1012 76.2316 79.1012C76.3683 79.1012 76.5008 79.0545 76.6072 78.9688C76.8507 78.8107 77.0585 78.6035 77.2176 78.3606C77.3766 78.1177 77.4833 77.8444 77.5308 77.558L78.15 77.4159C78.0864 77.9085 77.9141 78.3808 77.6456 78.7986C77.377 79.2164 77.0188 79.5692 76.597 79.8316C76.4187 79.9707 76.199 80.0462 75.9728 80.0462C75.7466 80.0462 75.527 79.9707 75.3486 79.8316C75.1547 79.614 75.01 79.3573 74.9241 79.0788C74.8383 78.8003 74.8135 78.5066 74.8512 78.2177C74.8418 77.4523 75.0195 76.6962 75.3689 76.0152C75.6517 75.4521 76.0881 74.9806 76.6275 74.6551V74.6551Z" fill="white"/>
<path d="M80.3019 72.625L81.5402 76.9895L80.7992 77.4158L80.5353 76.4008L79.3478 77.0808L79.0737 78.4409L78.3328 78.8672L79.6218 73.0615L80.3019 72.625ZM79.5508 76.0557L80.3323 75.6091L79.9466 74.0765L79.5406 76.1064" fill="white"/>
<path d="M83.8035 73.4675L84.8185 75.1524L84.0472 75.599L83.0322 73.975L82.6769 74.178V76.3704L81.9867 76.7663V71.6913L83.3366 70.9199C84.0573 70.5037 84.4633 70.8488 84.4633 71.7217C84.4773 72.367 84.2409 72.9927 83.8035 73.4675V73.4675ZM83.3772 72.9194C83.5193 72.8392 83.6358 72.7203 83.713 72.5766C83.7903 72.4329 83.8252 72.2702 83.8137 72.1074C83.8137 71.7217 83.6716 71.6101 83.3874 71.7826L82.7175 72.1683V73.3153L83.3874 72.9296" fill="white"/>
<path d="M86.5035 69.1232C87.3764 68.6258 88.229 68.8999 88.2188 70.6863C88.2499 71.3732 88.106 72.0566 87.8006 72.6727C87.4952 73.2887 87.0384 73.8171 86.473 74.2083L85.3159 74.8681V69.7931L86.5035 69.1232ZM87.1023 72.6554C87.3893 72.1818 87.5337 71.6356 87.5185 71.0821C87.5185 70.4325 87.3662 70.0671 87.1125 69.9758C86.9709 69.9398 86.8233 69.9348 86.6797 69.9611C86.5361 69.9873 86.3998 70.0443 86.2802 70.128L86.0264 70.2803V73.6196L86.2802 73.4674C86.6223 73.2685 86.9113 72.99 87.1226 72.6554" fill="white"/>
<path d="M56.8756 99.1976V107.318C56.8743 107.66 56.9634 107.997 57.134 108.295C57.3045 108.592 57.5504 108.839 57.8468 109.011C58.1433 109.183 58.4799 109.273 58.8226 109.274C59.1653 109.274 59.502 109.184 59.7988 109.013L71.1364 102.537C71.4413 102.371 71.6961 102.126 71.8746 101.828C72.0531 101.53 72.1486 101.189 72.1514 100.842V92.5494C72.1509 92.2025 72.0578 91.8621 71.8817 91.5633C71.7057 91.2644 71.4531 91.0179 71.15 90.8493C70.8469 90.6807 70.5043 90.596 70.1575 90.604C69.8107 90.6121 69.4724 90.7125 69.1774 90.8949L57.8399 97.5432C57.5503 97.7126 57.3095 97.954 57.1405 98.2438C56.9716 98.5337 56.8804 98.8622 56.8756 99.1976V99.1976Z" fill="#D1D1F5"/>
<path d="M76.5869 92.3463L76.8508 92.1941L76.5159 97.2691L75.917 97.6243L76.1708 93.8282L75.4907 94.7823L75.5618 93.7978L76.5869 92.3463Z" fill="white"/>
<path d="M78.485 91.1691H78.5662C79.1854 90.8037 79.5203 91.1691 79.4594 92.0522C79.4161 92.5296 79.2926 92.9962 79.094 93.4326L78.1805 95.5336L79.3478 94.8333L79.2869 95.6656L77.1655 96.8836V96.5182L78.5053 93.4732C78.6683 93.1341 78.7746 92.7707 78.82 92.3973C78.82 91.9811 78.7185 91.8187 78.4546 91.9811C78.3242 92.0947 78.2175 92.2331 78.1409 92.3881C78.0642 92.5432 78.0191 92.7119 78.008 92.8845L77.47 93.057C77.5124 92.6538 77.6367 92.2635 77.8354 91.9101C77.9923 91.6166 78.2146 91.3631 78.485 91.1691Z" fill="white"/>
<path d="M80.312 90.1134L82.21 88.9766V89.3014L81.327 91.3821L81.4589 91.2806C81.9664 90.9863 82.2405 91.4024 82.1897 92.2956C82.1619 92.7955 82.0269 93.2836 81.7939 93.7268C81.6246 94.0727 81.3738 94.3722 81.0631 94.5997L80.9616 94.6606C80.6571 94.8534 80.4033 94.8636 80.2206 94.7113C80.1128 94.5996 80.032 94.4647 79.9845 94.3169C79.937 94.1691 79.924 94.0123 79.9466 93.8587L80.5251 93.402C80.5251 93.8486 80.7281 93.9907 81.0123 93.8283C81.1799 93.687 81.3155 93.5116 81.41 93.3139C81.5045 93.1161 81.5558 92.9004 81.5604 92.6813C81.5604 92.1028 81.4082 91.9201 81.1037 92.1028C81.002 92.1759 80.9129 92.265 80.8398 92.3667L80.6368 92.0013L81.3473 90.3164L80.3323 90.9457L80.312 90.1134Z" fill="white"/>
<path d="M84.6867 90.6614L85.0521 90.4381L85.0014 91.2806L84.6258 91.4937L84.5649 92.4377L83.9661 92.7929L84.027 91.849L82.606 92.7016V92.2347L84.2401 87.7281L84.8694 87.3525L84.6867 90.6614ZM84.0879 91.0167L84.2097 89.0882L83.3774 91.443L84.0777 91.0167" fill="white"/>
<path d="M88.7771 88.2154L89.1527 87.9921L89.0918 88.8345L88.7264 89.0477L88.6655 90.0018L88.0768 90.357L88.1377 89.4131L86.7167 90.2657V89.8089L88.361 85.3023L88.9903 84.9268L88.7771 88.2154ZM88.1783 88.5706L88.3102 86.632L87.4779 88.9969L88.1783 88.5706" fill="white"/>
<path d="M90.2083 84.1959L91.9236 83.1809L91.8627 84.0234L90.6447 84.7542L90.4925 85.8605C90.6034 85.6999 90.7407 85.5593 90.8985 85.4444H90.9797C91.6496 85.0384 91.9947 85.4444 91.8932 86.5101C91.8663 87.0109 91.7385 87.5012 91.5176 87.9514C91.3537 88.3091 91.1024 88.6197 90.7868 88.8548L90.665 88.8649C90.5696 88.9476 90.4505 88.998 90.3247 89.0089C90.1989 89.0199 90.0729 88.9908 89.9647 88.9258C89.8643 88.8178 89.7888 88.6891 89.7432 88.5489C89.6976 88.4087 89.6831 88.2602 89.7008 88.1138L90.2793 87.6165C90.2793 88.0529 90.462 88.1849 90.7259 88.0225C90.893 87.8788 91.0255 87.6991 91.1134 87.497C91.2013 87.2948 91.2423 87.0755 91.2334 86.8552C91.2334 86.2767 91.1015 86.094 90.7767 86.2868H90.7259C90.4749 86.4923 90.2794 86.7576 90.1575 87.0582L89.7921 87.1699L90.2083 84.1959Z" fill="white"/>
<path d="M94.4205 83.8815C94.5284 84.0248 94.605 84.1893 94.6452 84.3641C94.6855 84.539 94.6884 84.7204 94.654 84.8965C94.6192 85.3759 94.4843 85.8426 94.2581 86.2667C94.0892 86.6185 93.8387 86.9247 93.5273 87.1599L93.436 87.2208C93.3296 87.311 93.1947 87.3604 93.0553 87.3604C92.9159 87.3604 92.7811 87.311 92.6747 87.2208C92.5614 87.0803 92.4808 86.9163 92.4387 86.7407C92.3965 86.5652 92.3939 86.3825 92.4311 86.2058C92.4555 85.8584 92.5308 85.5164 92.6544 85.1908L93.7912 81.953L94.451 81.5571L93.6085 83.8713H93.6897C93.9942 83.6886 94.2378 83.6886 94.4205 83.8815ZM94.0551 85.2416C94.0551 84.7341 93.8927 84.5514 93.5984 84.7341C93.4399 84.868 93.3119 85.0341 93.2226 85.2214C93.1333 85.4086 93.085 85.6127 93.0807 85.8201C93.0807 86.3073 93.2533 86.5002 93.5375 86.3276C93.697 86.1918 93.8264 86.0241 93.9173 85.8354C94.0082 85.6466 94.0586 85.4408 94.0653 85.2314" fill="white"/>
<path d="M95.263 81.1712L97.2727 79.9634L97.2524 80.3491L95.6893 85.7996L95.1006 86.1447L96.5114 81.2321L95.2021 82.0137L95.263 81.1712Z" fill="white"/>
<path d="M100.46 80.3086C100.744 80.3898 100.866 80.7044 100.825 81.2627C100.797 81.7304 100.662 82.1855 100.429 82.5923C100.262 82.9167 100.023 83.1981 99.7289 83.4145L99.6376 83.4754C99.532 83.5585 99.4015 83.6037 99.2671 83.6037C99.1327 83.6037 99.0022 83.5585 98.8966 83.4754C98.7882 83.3443 98.7109 83.1903 98.6705 83.0251C98.63 82.8599 98.6275 82.6876 98.6632 82.5213C98.6899 81.9878 98.8696 81.4734 99.1808 81.0394C98.988 80.9176 98.9068 80.6435 98.9372 80.2071C98.9657 79.8052 99.08 79.4141 99.2722 79.0601C99.4193 78.7547 99.6388 78.4899 99.9116 78.2887H99.9827C100.267 78.1263 100.48 78.1162 100.642 78.2887C100.733 78.4031 100.799 78.5357 100.834 78.6776C100.869 78.8195 100.873 78.9673 100.845 79.1109C100.817 79.5356 100.684 79.9468 100.46 80.3086V80.3086ZM100.226 81.6281C100.242 81.5491 100.241 81.4676 100.224 81.389C100.206 81.3103 100.173 81.2362 100.125 81.1713C100.044 81.1003 99.9319 81.1003 99.7898 81.1713C99.6559 81.2689 99.5478 81.3979 99.4752 81.5469C99.3751 81.7353 99.3163 81.9429 99.3026 82.1559C99.2862 82.2348 99.2867 82.3164 99.3042 82.3952C99.3217 82.4739 99.3558 82.548 99.4041 82.6126C99.4853 82.6837 99.597 82.6938 99.7289 82.6126C99.8629 82.515 99.9709 82.3861 100.044 82.2371C100.145 82.049 100.203 81.8412 100.216 81.6281H100.226ZM100.277 79.456C100.277 79.0703 100.155 78.918 99.9116 79.0601C99.7886 79.1641 99.6888 79.2929 99.6189 79.4381C99.5489 79.5832 99.5103 79.7415 99.5056 79.9026C99.5056 80.2883 99.6274 80.4608 99.8609 80.3187C99.9868 80.2121 100.089 80.0802 100.161 79.9316C100.232 79.7829 100.272 79.6209 100.277 79.456" fill="white"/>
<path d="M103.383 76.6849C103.496 76.8254 103.577 76.9894 103.619 77.165C103.661 77.3405 103.664 77.5232 103.627 77.6999C103.607 78.047 103.535 78.3892 103.413 78.7149L102.277 81.9426L101.607 82.3384L102.449 80.0242H102.378C102.074 80.2069 101.827 80.2069 101.637 80.0242C101.532 79.8798 101.457 79.715 101.419 79.5402C101.38 79.3655 101.379 79.1847 101.414 79.0092C101.459 78.5485 101.601 78.1024 101.83 77.6999C101.999 77.3481 102.249 77.0419 102.561 76.8067L102.652 76.7458C102.748 76.6528 102.873 76.5959 103.007 76.5848C103.14 76.5737 103.273 76.609 103.383 76.6849V76.6849ZM103.028 78.0247C103.028 77.5375 102.855 77.3446 102.561 77.5273C102.402 77.6636 102.273 77.8313 102.182 78.02C102.091 78.2087 102.04 78.4142 102.033 78.6235C102.033 79.131 102.195 79.3137 102.5 79.1209C102.658 78.987 102.786 78.8209 102.876 78.6336C102.965 78.4463 103.013 78.2422 103.018 78.0348" fill="white"/>
<path d="M104.185 75.8324L106.205 74.6245L106.174 75.0001L104.621 80.4506L104.033 80.7957L105.443 75.8831L104.134 76.6748L104.185 75.8324Z" fill="white"/>
<path d="M108.468 73.64C108.58 73.7815 108.659 73.9456 108.701 74.1208C108.743 74.296 108.747 74.4782 108.712 74.655C108.693 75.0023 108.622 75.3447 108.499 75.67L107.362 78.8977L106.692 79.2935L107.534 76.9793H107.463C107.159 77.1722 106.905 77.1722 106.722 76.9793C106.62 76.8333 106.547 76.6684 106.509 76.4942C106.471 76.32 106.467 76.1399 106.499 75.9643C106.543 75.5047 106.681 75.059 106.905 74.655C107.073 74.3028 107.324 73.9964 107.636 73.7618L107.727 73.7009C108.022 73.4877 108.275 73.4776 108.468 73.64ZM108.113 74.9899C108.113 74.5027 107.94 74.3099 107.646 74.4926C107.487 74.6288 107.358 74.7966 107.267 74.9852C107.176 75.1739 107.125 75.3795 107.118 75.5888C107.118 76.0963 107.281 76.279 107.585 76.0861C107.743 75.9522 107.872 75.7861 107.961 75.5988C108.05 75.4116 108.098 75.2075 108.103 75.0001" fill="white"/>
<path d="M65.7468 114.544L64.813 117.417L65.7874 119.366L65.1073 119.843L64.4577 118.533L63.7269 120.797L63.0367 121.274L64.1431 117.884L63.3108 116.229L63.9908 115.762L64.4983 116.777L65.0769 115.011L65.7468 114.544Z" fill="white"/>
<path d="M71.3901 110.647L70.4563 113.519L71.4307 115.468L70.7405 115.945L70.1011 114.636L69.3601 116.899L68.6801 117.376L69.7763 113.986L68.9541 112.332L69.6342 111.865L70.1417 112.88L70.7202 111.114L71.3901 110.647Z" fill="white"/>
<path d="M68.5685 112.596L67.6346 115.468L68.609 117.417L67.9188 117.894L67.2794 116.585L66.5385 118.848L65.8584 119.325L66.9546 115.935L66.1325 114.281L66.8125 113.814L67.32 114.829L67.8986 113.063L68.5685 112.596Z" fill="white"/>
<path d="M75.3892 107.876L74.4554 110.759L75.4298 112.707L74.7396 113.184L74.1002 111.875L73.3592 114.139L72.6792 114.605L73.7856 111.225L72.9533 109.561L73.6333 109.094L74.1408 110.119L74.7194 108.343L75.3892 107.876Z" fill="white"/>
<path d="M78.2109 105.927L77.2771 108.81L78.2515 110.759L77.5613 111.236L76.9219 109.916L76.1809 112.19L75.5009 112.657L76.6072 109.277L75.7749 107.612L76.455 107.145L76.9625 108.16L77.541 106.394L78.2109 105.927Z" fill="white"/>
<path d="M81.0327 103.978L80.0989 106.861L81.0733 108.81L80.3932 109.277L79.7436 107.967L79.0128 110.231L78.3125 110.708L79.4188 107.328L78.5967 105.663L79.2767 105.196L79.7842 106.211L80.3628 104.445L81.0327 103.978Z" fill="white"/>
<path opacity="0.32" d="M222.361 129.13L252.283 147.177L298.029 120.218L266.077 101.938" fill="url(#paint3_linear)"/>
<path d="M155.95 10.8317C154.438 11.8738 153.215 13.2829 152.396 14.9269C151.578 16.5709 151.191 18.3959 151.271 20.2306C151.565 28.9089 153.504 30.5836 153.504 30.5836L167.338 23.8136L187.405 9.14684C187.405 9.14684 170.495 4.99549 155.95 10.8317Z" fill="#666666"/>
<path d="M131.346 58.9224C131.346 58.9224 128.119 70.9908 144.633 83.526C161.147 96.0613 222.361 129.13 222.361 129.13L267.783 102.304V81.5772L149.028 40.825" fill="#E6E6E6"/>
<path d="M267.783 81.5774L200.996 32.5834C200.996 32.5834 190.582 23.6108 181.426 24.4634C172.271 25.316 135.69 49.8384 135.69 49.8384L225.954 108.15L267.783 81.5774Z" fill="#333333"/>
<path d="M189.019 71.4071L200.285 80.2985L228.116 63.5814L217.54 55.1975L189.019 71.4071Z" fill="#70F9E9"/>
<path d="M174.616 63.9367L225.173 102.304L259.165 82.8563L208.567 44.4893L174.616 63.9367Z" fill="#FB5B5B"/>
<path d="M225.954 106.323L170.759 65.0938C170.759 65.0938 146.734 41.8097 137.517 48.7625C137.517 48.7625 132.239 50.6707 131.346 58.9125C131.346 58.9125 138.888 52.6601 146.784 57.4915C154.681 62.3229 224.158 115.671 224.158 115.671L225.954 106.323Z" fill="#666666"/>
<path d="M225.954 106.323L267.783 81.5774V89.5553L224.158 115.681L225.954 106.323Z" fill="#515151"/>
<path d="M224.158 115.681L222.361 129.13C222.361 129.13 267.782 103.288 267.782 102.304V89.5552L224.158 115.681Z" fill="#CCCCCC"/>
<path d="M170.2 51.6248L193.18 39.0692C193.18 39.0692 192.855 16.8001 184.045 3.1991C183.239 2.00785 182.031 1.14688 180.643 0.774026C179.254 0.401176 177.777 0.541442 176.483 1.16911L156 10.8522C156 10.8522 163.846 6.2035 170.2 51.6248Z" fill="#E6E6E6"/>
<path d="M171.652 24.443L186.369 16.3738" stroke="#999999" stroke-width="1.015" stroke-miterlimit="10"/>
<path d="M172.687 27.8432L187.415 19.7739" stroke="#999999" stroke-width="1.015" stroke-miterlimit="10"/>
<path d="M173.276 31.1318L188.004 23.0625" stroke="#999999" stroke-width="1.015" stroke-miterlimit="10"/>
<path d="M175.367 44.8647L190.084 36.7954" stroke="#999999" stroke-width="1.015" stroke-miterlimit="10"/>
<path d="M232.126 74.9393C231.283 79.6286 223.772 82.2168 215.358 80.7248C206.943 79.2327 200.803 74.2085 201.645 69.5598C202.488 64.9111 209.999 62.2822 218.413 63.7743C226.827 65.2663 232.978 70.25 232.126 74.9393Z" fill="#01C56F"/>
<path d="M213.703 76.1673H220.433L217.743 66.3218" stroke="#F2F2F2" stroke-width="2.03" stroke-miterlimit="10"/>
<defs>
<linearGradient id="paint0_linear" x1="242.336" y1="196.861" x2="236.47" y2="187.726" gradientUnits="userSpaceOnUse">
<stop stop-color="white" stop-opacity="0"/>
<stop offset="0.98" stop-color="#0800BF"/>
</linearGradient>
<linearGradient id="paint1_linear" x1="-12235.8" y1="5401.14" x2="-12844.2" y2="4521.51" gradientUnits="userSpaceOnUse">
<stop stop-color="white" stop-opacity="0"/>
<stop offset="0.98" stop-color="#0800BF"/>
</linearGradient>
<linearGradient id="paint2_linear" x1="13311.8" y1="11186.4" x2="12821.3" y2="9611.79" gradientUnits="userSpaceOnUse">
<stop stop-color="white" stop-opacity="0"/>
<stop offset="0.98" stop-color="#0800BF"/>
</linearGradient>
<linearGradient id="paint3_linear" x1="21671.3" y1="8528.52" x2="21296.6" y2="7376.46" gradientUnits="userSpaceOnUse">
<stop stop-color="white" stop-opacity="0"/>
<stop offset="0.98" stop-color="#0800BF"/>
</linearGradient>
</defs>
</svg>
