<svg xmlns="http://www.w3.org/2000/svg" xmlns:xlink="http://www.w3.org/1999/xlink" viewBox="0 0 400 300" width="406" height="306" class="illustration"><defs><linearGradient id="linear-gradient" x1="341.42" y1="151.59" x2="332.2" y2="165.34" gradientUnits="userSpaceOnUse"><stop offset="0" stop-color="#1b1464"></stop><stop offset="1" stop-color="#fff"></stop></linearGradient><linearGradient id="linear-gradient-2" x1="233.56" y1="145.38" x2="220.35" y2="173.2" xlink:href="#linear-gradient"></linearGradient><linearGradient id="linear-gradient-3" x1="175.64" y1="201.67" x2="144.06" y2="240.02" xlink:href="#linear-gradient"></linearGradient><linearGradient id="linear-gradient-4" x1="62.23" y1="159.11" x2="40.36" y2="185.67" xlink:href="#linear-gradient"></linearGradient><pattern id="_10_dpi_10_" data-name="10 dpi 10%" width="28.8" height="28.8" patternTransform="matrix(-0.11, -0.01, -0.01, 0.11, 13.47, -21.82)" patternUnits="userSpaceOnUse" viewBox="0 0 28.8 28.8"><rect width="28.8" height="28.8" fill="none"></rect><circle cx="28.8" cy="28.8" r="0.72" fill="#231f20"></circle><circle cx="14.4" cy="28.8" r="0.72" fill="#231f20"></circle><circle cx="28.8" cy="14.4" r="0.72" fill="#231f20"></circle><circle cx="14.4" cy="14.4" r="0.72" fill="#231f20"></circle><circle cx="7.2" cy="21.6" r="0.72" fill="#231f20"></circle><circle cx="21.6" cy="21.6" r="0.72" fill="#231f20"></circle><circle cx="7.2" cy="7.2" r="0.72" fill="#231f20"></circle><circle cx="21.6" cy="7.2" r="0.72" fill="#231f20"></circle><circle cy="28.8" r="0.72" fill="#231f20"></circle><circle cy="14.4" r="0.72" fill="#231f20"></circle><circle cx="28.8" r="0.72" fill="#231f20"></circle><circle cx="14.4" r="0.72" fill="#231f20"></circle><circle r="0.72" fill="#231f20"></circle></pattern><pattern id="_10_dpi_10_3" data-name="10 dpi 10%" width="28.8" height="28.8" patternTransform="matrix(-0.11, -0.01, -0.01, 0.11, 6.04, 1.4)" patternUnits="userSpaceOnUse" viewBox="0 0 28.8 28.8"><rect width="28.8" height="28.8" fill="none"></rect><circle cx="28.8" cy="28.8" r="0.72" fill="#231f20"></circle><circle cx="14.4" cy="28.8" r="0.72" fill="#231f20"></circle><circle cx="28.8" cy="14.4" r="0.72" fill="#231f20"></circle><circle cx="14.4" cy="14.4" r="0.72" fill="#231f20"></circle><circle cx="7.2" cy="21.6" r="0.72" fill="#231f20"></circle><circle cx="21.6" cy="21.6" r="0.72" fill="#231f20"></circle><circle cx="7.2" cy="7.2" r="0.72" fill="#231f20"></circle><circle cx="21.6" cy="7.2" r="0.72" fill="#231f20"></circle><circle cy="28.8" r="0.72" fill="#231f20"></circle><circle cy="14.4" r="0.72" fill="#231f20"></circle><circle cx="28.8" r="0.72" fill="#231f20"></circle><circle cx="14.4" r="0.72" fill="#231f20"></circle><circle r="0.72" fill="#231f20"></circle></pattern><pattern id="_10_dpi_10_5" data-name="10 dpi 10%" width="28.8" height="28.8" patternTransform="matrix(-0.11, -0.01, -0.01, 0.11, 1.17, -4.74)" patternUnits="userSpaceOnUse" viewBox="0 0 28.8 28.8"><rect width="28.8" height="28.8" fill="none"></rect><circle cx="28.8" cy="28.8" r="0.72" fill="#231f20"></circle><circle cx="14.4" cy="28.8" r="0.72" fill="#231f20"></circle><circle cx="28.8" cy="14.4" r="0.72" fill="#231f20"></circle><circle cx="14.4" cy="14.4" r="0.72" fill="#231f20"></circle><circle cx="7.2" cy="21.6" r="0.72" fill="#231f20"></circle><circle cx="21.6" cy="21.6" r="0.72" fill="#231f20"></circle><circle cx="7.2" cy="7.2" r="0.72" fill="#231f20"></circle><circle cx="21.6" cy="7.2" r="0.72" fill="#231f20"></circle><circle cy="28.8" r="0.72" fill="#231f20"></circle><circle cy="14.4" r="0.72" fill="#231f20"></circle><circle cx="28.8" r="0.72" fill="#231f20"></circle><circle cx="14.4" r="0.72" fill="#231f20"></circle><circle r="0.72" fill="#231f20"></circle></pattern></defs><title>PP</title><g style="isolation: isolate;"><g id="Layer_2" data-name="Layer 2"><path d="M194.28,291.14,14.56,184.93C8.84,181.71,3.93,176.44,9.51,173L189.88,69c2.71-1.68,6.82-2.78,9.57-1.18L388.11,177.34c5.72,3.32,6.75,12.6,1,15.93L218,291A23.9,23.9,0,0,1,194.28,291.14Z" fill="#db3b3b"></path><polyline points="363.02 171.42 342.7 183.35 303.21 156.52 323.69 146.3" fill="url(#linear-gradient)" style="mix-blend-mode: multiply;"></polyline><path d="M175.8,128c-6.76,4.24-16,13.58-23.17,17.39l111.42,68.4,27.5-20.2C287.67,191.76,178.86,131.05,175.8,128Z" fill="url(#linear-gradient-2)" style="mix-blend-mode: multiply;"></path><path d="M166.67,213.82c-6.76,4.24-38.56,18.88-45.7,22.69l29.71,18.54,31.48-29.8C178.28,223.4,169.73,216.84,166.67,213.82Z" fill="url(#linear-gradient-3)" style="mix-blend-mode: multiply;"></path><path d="M164.66,122.07s30.12-97.21,29.93-97.21.94-4.32,6.32-1.88L316.49,91s5.6,2.27,4.51,7.49-29.44,95.12-29.44,95.12a4.88,4.88,0,0,1-5.46,1.88c-3.52-1.09-118.74-68-118.74-68A4.42,4.42,0,0,1,164.66,122.07Z" fill="#053855"></path><polygon points="196.5 31.93 314.87 100.93 290.32 183.35 170.43 116.4 196.5 31.93" fill="#68e1fd"></polygon><path d="M56.42,167.69c-6.76,4.24-24.79,11.85-31.93,15.66l21.58,12.39,20.55-20.4A38.19,38.19,0,0,1,56.42,167.69Z" fill="url(#linear-gradient-4)" style="mix-blend-mode: multiply;"></path><path d="M75.38,145.42s-.92,32.15-14.65,32.91-14.65-32.91-14.65-32.91" fill="#68e1fd"></path><path d="M75.38,145.42s-.92,32.15-14.65,32.91-14.65-32.91-14.65-32.91" fill="#68e1fd"></path><ellipse cx="60.73" cy="145.42" rx="14.65" ry="6.09" fill="#311e69"></ellipse><path d="M64.72,149.57a131.38,131.38,0,0,1,13.73-37.08c.53-1,2.29-.13,1.77.83A130,130,0,0,0,66.69,150C66.48,151,64.51,150.6,64.72,149.57Z" fill="#311e69"></path><path d="M56.34,151.6q1.51-23.34,5.23-46.54c.17-1,2.21-1,2,0q-3.71,23.14-5.22,46.45C57.71,151.54,57,151.56,56.34,151.6Z" fill="#311e69"></path><path d="M83,109.46a13.4,13.4,0,0,1,7.22.46c1.65.58,5.06,2.24,4.39,4s-4.8,1.51-6.45,1.11a8.85,8.85,0,0,1-5.67-4.21.79.79,0,0,1-.07-.19A.75.75,0,0,1,83,109.46Z" fill="#c3ea75"></path><path d="M79.76,108.49a1,1,0,0,0,1.37.34c2.24-1.32,5-2.15,6.62-4.08,1.1-1.35,1.57-3.57-.44-4.56a5.44,5.44,0,0,0-5.75,1.08c-1.83,1.69-2,4.16-2.44,6.27A.85.85,0,0,0,79.76,108.49ZM84,101.7l0,.21a6.92,6.92,0,0,0-1.7,1.63A4.66,4.66,0,0,1,84,101.7Z" fill="#c3ea75"></path><path d="M73.8,104.18c3.31-1.19,3.87,3.35,4,4.87a.75.75,0,0,1-.68.75,1.21,1.21,0,0,1-1.42,0c-1.11-.8-2.52-1.56-2.87-2.79C72.52,106.09,72.52,104.64,73.8,104.18Z" fill="#c3ea75"></path><path d="M61.28,102.06a1.21,1.21,0,0,0,1.59.43,1.33,1.33,0,0,0,.52,0c2.56-.31,3.85-3.56,4.31-5.26s1-4.49-1.6-5.39a4.46,4.46,0,0,0-5.5,2.61C59.68,96.9,60.24,99.75,61.28,102.06Zm1.38-2.31a4.29,4.29,0,0,1,.05-1.31,6.33,6.33,0,0,0,.07.9v0C62.76,99.51,62.71,99.64,62.67,99.75Z" fill="#c3ea75"></path><path d="M47.86,102.51c-.09,2.09,2.51,2.95,4.66,3.28,1.34.21,6.12,1.16,6.2-.72a.73.73,0,0,0,.18-.91c-1.06-2-3.58-2.87-6-3.4C50.82,100.32,48,100.23,47.86,102.51Zm2-.09a2.63,2.63,0,0,0,.27.34.81.81,0,0,0-.14.38A.53.53,0,0,1,49.86,102.41Z" fill="#c3ea75"></path><path d="M66.23,104.13a1.1,1.1,0,0,0,1.2.57,8.51,8.51,0,0,0,3.88-1.36,1.9,1.9,0,0,0,.59-2.65c-1.58-1.9-5.21,1.3-6.15,2.33C65.3,103.49,65.68,104,66.23,104.13Zm2.87-1.55-.17.06,1-.56h0A2.46,2.46,0,0,1,69.09,102.58Z" fill="#c3ea75"></path><ellipse cx="294.56" cy="111.65" rx="9.71" ry="7.36" transform="matrix(0.05, -1, 1, 0.05, 169.51, 400.78)" fill="#fff"></ellipse><ellipse cx="294.56" cy="111.65" rx="9.71" ry="7.36" transform="matrix(0.05, -1, 1, 0.05, 169.51, 400.78)" fill="url(#_10_dpi_10_)"></ellipse><path d="M294,111.63l2.57-9.37a5.55,5.55,0,0,0-6.62,2Z" fill="#fd7382"></path><path d="M294,111.63s-6,4.68-6.15,4.29a11.39,11.39,0,0,1,2.11-11.7Z" fill="#8787d1"></path><ellipse cx="287.14" cy="134.87" rx="9.71" ry="7.36" transform="translate(139.23 415.52) rotate(-87.37)" fill="#fff"></ellipse><ellipse cx="287.14" cy="134.87" rx="9.71" ry="7.36" transform="translate(139.23 415.52) rotate(-87.37)" fill="url(#_10_dpi_10_3)"></ellipse><path d="M286.6,134.85l2.57-9.37a5.55,5.55,0,0,0-6.62,2Z" fill="#fd7382"></path><path d="M286.6,134.85s-6,4.68-6.15,4.29a11.39,11.39,0,0,1,2.11-11.7Z" fill="#8787d1"></path><ellipse cx="280.92" cy="158.09" rx="9.71" ry="7.36" transform="matrix(0.05, -1, 1, 0.05, 110.1, 431.45)" fill="#fff"></ellipse><ellipse cx="280.92" cy="158.09" rx="9.71" ry="7.36" transform="matrix(0.05, -1, 1, 0.05, 110.1, 431.45)" fill="url(#_10_dpi_10_5)"></ellipse><path d="M280.38,158.06,283,148.7a5.55,5.55,0,0,0-6.62,2Z" fill="#fd7382"></path><path d="M280.38,158.06s-6,4.68-6.15,4.29a11.39,11.39,0,0,1,2.11-11.7Z" fill="#8787d1"></path><polygon points="203.09 47.92 240.07 69.48 232.4 95.23 194.94 74.31 203.09 47.92" fill="#fff" opacity="0.71"></polygon><polygon points="192.28 78.2 229.26 99.76 221.59 125.51 184.13 104.59 192.28 78.2" fill="#fff" opacity="0.71"></polygon><path d="M164.12,219.78l-4.24-1.17.66-5.16S165.14,214.22,164.12,219.78Z" fill="#42210b"></path><path d="M158.35,204.77s-1.49,17.44-1.09,17.64,4.47.55,4.47.25.24-7.94.24-7.94,2,3.37,2.14,5.05c0,0,4.87-2.77,5.77-5s-2.08-11.53-3.22-12" fill="#fdf2d6"></path><path d="M174.6,228.92l-4.79-5.09,3.13-4S175.86,226.3,174.6,228.92Z" fill="#42210b"></path><path d="M167.48,208.75l-2.24,20.93a24.84,24.84,0,0,0,4.28,1.13,13.58,13.58,0,0,0,2.59-1.23l.8-7s2.08,2.08,1.7,6.32c0-.29,3.31-1.39,3.73-1.58a24.77,24.77,0,0,0,3.83-2.09c1.27-.87,6-4.78,3.46-6.34-2.16-1.32-9.17-.69-9.17-.69l-.1-8.64" fill="#fdf2d6"></path><path d="M159.1,133.77a.5.5,0,0,0-.5-.61A16.1,16.1,0,0,1,161,128l20.26-2.39s4.07,14.48,5.64,39.43c1.22,19.34-8.28,48.11-8.28,48.11s-9.82,2.49-14.55-2.36l.19-4.17a49.56,49.56,0,0,1-7.3-.6C154.48,182,156.33,157.67,159.1,133.77Z" fill="#79cc37"></path><path d="M163.47,209.7,166,191.77c.81-5.71,2.06-11.58,2.08-17.38s-2-11-2.92-16.5a64.61,64.61,0,0,1-.7-16.19c.1-1.26,1.91-1.27,1.81,0a62.82,62.82,0,0,0,1.1,18.07c1.13,5.31,2.71,10.34,2.48,15.86s-1.33,11.16-2.11,16.66l-2.54,17.93C165,211.48,163.29,210.95,163.47,209.7Z" fill="#42210b"></path><path d="M198.46,102.57c-.67,1.15-2.9,2.7-3.47,3.9,1.58,1.37,1.92,2.8,3.48,4.19.24-.6,1.22-1,1.74-1.3.8-.46,1.44-1.08,2.19-1.56s1.86-.84,2.74-1.29a3.19,3.19,0,0,0,.72-.5,5,5,0,0,0,.68-.31,1.09,1.09,0,0,0,.33-1.62,1.07,1.07,0,0,0,.6-1.22,1,1,0,0,0-.61-.67l-.09-.11a.64.64,0,0,0,.31-.57.75.75,0,0,0,0-.3c-.06-1.17-.91-1.35-1.83-.93l-.14.06a5.7,5.7,0,0,0,1.33-1.52c.9-.88,1.48-1.78.71-2.26s-2.08.69-2.63,1.1c-1.22.91-2.34,1.95-3.56,2.86,0-.13,0-.26,0-.31V100c0-.65-.1-2.77-.78-3.07a.71.71,0,0,0-1.08.57Z" fill="#fe6162"></path><path d="M197.11,104.06l-9.37,6.42A51,51,0,0,0,182,100.06c-3.91-5.56-14.61-3.9-14.61-3.9s-6.3,4.51-8.66,9.49-2.22,17.89-.2,22.19,14.63,3.79,21.78,2.06a1,1,0,0,0,1.21-.93q0-5.6-.09-11.21c4.55,5.62,11.78,1.8,16.3-2.54a40.15,40.15,0,0,0,6-6.49C202.93,106.26,197.11,104.06,197.11,104.06Z" fill="#fab965"></path><path d="M177.78,85.25s.59,8.58-2,10.56-6.94-1.29-6.94-1.29" fill="#fe6162"></path><path d="M175.64,81a8.32,8.32,0,0,1,2.6,3.42c2.16,5.4-3.65,12.1-8.84,13.14l-2.69-.85s-3.56-5.24-3.56-8.18a10.85,10.85,0,0,1,3-7.63C168.94,78.3,172.9,78.81,175.64,81Z" fill="#1a1a1a"></path><path d="M169.4,97.52s9.71,28,2.4,32.62-21.6.41-18.81-6.53,13.72-26.94,13.72-26.94" fill="#1a1a1a"></path><polygon points="248.19 73.92 268.74 85.9 261.07 111.65 240.07 99.92 248.19 73.92" fill="#fff" opacity="0.71"></polygon><path d="M256,119.65l-18.63-10.53c-1.2-.68-2.19,1.21-1,1.88L255,121.54C256.22,122.21,257.22,120.33,256,119.65Z" fill="#fff" opacity="0.71"></path><path d="M254.66,123.86,236,113.33c-1.2-.68-2.19,1.21-1,1.88l18.63,10.53C254.85,126.42,255.85,124.54,254.66,123.86Z" fill="#fff" opacity="0.71"></path><path d="M253.47,128.33,234.84,117.8c-1.2-.68-2.19,1.21-1,1.88l18.63,10.53C253.67,130.89,254.66,129,253.47,128.33Z" fill="#fff" opacity="0.71"></path><path d="M252.3,132.36l-18.63-10.53c-1.2-.68-2.19,1.21-1,1.88l18.63,10.53C252.49,134.91,253.49,133,252.3,132.36Z" fill="#fff" opacity="0.71"></path><path d="M276.61,96.19l-15.41,49.66c-1.15,3.69,4.71,5,5.85,1.33l15.41-49.66C283.6,93.82,277.74,92.52,276.61,96.19Z" fill="#fff" opacity="0.71"></path><path d="M340.35,90.77l38.21,22.5a3.69,3.69,0,0,1,1.66,4.25l-15.7,51.89a3.69,3.69,0,0,1-5.35,2.15l-38.49-21.71a3.69,3.69,0,0,1-1.72-4.29l16-52.67A3.69,3.69,0,0,1,340.35,90.77Z" fill="#053855"></path><path d="M339.65,95.64l35.85,21.11a1.23,1.23,0,0,1,.55,1.41L361.58,166a1.23,1.23,0,0,1-1.78.71L323.7,146.3a1.23,1.23,0,0,1-.57-1.42l14.73-48.54A1.23,1.23,0,0,1,339.65,95.64Z" fill="#68e1fd"></path><g opacity="0.71"><path d="M333.1,140.74l21.52,12.86a.88.88,0,0,1,.41,1,1.61,1.61,0,0,1-1.6,1.09,1.27,1.27,0,0,1-.61-.18L332.23,143.2Z" fill="#fff"></path></g><polygon points="357.19 125.28 362.24 128.34 356.27 151.75 351.28 148.69 357.19 125.28" fill="#8787d1"></polygon><polygon points="349.69 116.25 354.85 119.31 347.93 146.84 342.7 143.64 349.69 116.25" fill="#f8997c"></polygon><polygon points="342.52 108.57 347.08 111.49 339.42 141.85 334.76 139.01 342.52 108.57" fill="#fff"></polygon></g></g></svg>