<!DOCTYPE svg PUBLIC "-//W3C//DTD SVG 20010904//EN" "http://www.w3.org/TR/2001/REC-SVG-20010904/DTD/svg10.dtd">
<svg version="1.0" xmlns="http://www.w3.org/2000/svg" width="400px" height="300px" viewBox="0 0 4000 3000" preserveAspectRatio="xMidYMid meet">
<g id="layer101" fill="#d3a34c" fill-rule="evenodd">
<path d="M1832 2071 C1617 2003,1465 1841,1414 1626 C1341 1313,1555 982,1875 915 C2074 872,2272 931,2415 1074 C2536 1196,2590 1328,2590 1507 C2590 1667,2540 1788,2426 1908 C2358 1978,2279 2030,2195 2060 C2112 2089,1909 2096,1832 2071 M1877 2045 C1794 2025,1686 1970,1625 1916 C1579 1876,1576 1870,1590 1854 C1617 1822,1659 1811,1744 1816 C1788 1819,1838 1826,1855 1832 C1885 1843,1956 1890,2083 1983 C2145 2028,2150 2034,2131 2041 C2088 2058,1941 2060,1877 2045 M2087 1942 C2031 1899,1968 1853,1947 1841 C1926 1828,1910 1814,1910 1809 C1910 1786,1959 1760,2057 1730 C2116 1712,2206 1680,2256 1658 C2357 1616,2405 1611,2480 1634 C2518 1645,2524 1651,2523 1672 C2517 1761,2369 1939,2257 1992 C2225 2007,2197 2020,2195 2020 C2192 2020,2143 1984,2087 1942 M1500 1750 C1479 1706,1456 1644,1449 1612 C1435 1545,1442 1390,1460 1343 C1472 1316,1479 1311,1535 1301 C1630 1283,1697 1287,1748 1311 L1792 1333 1786 1399 C1782 1435,1780 1530,1779 1610 C1779 1689,1775 1761,1770 1768 C1764 1778,1743 1782,1697 1781 C1643 1779,1627 1783,1596 1804 C1576 1818,1555 1830,1550 1830 C1544 1830,1522 1794,1500 1750 M1865 1735 C1825 1710,1806 1642,1814 1552 C1817 1509,1823 1443,1826 1405 L1832 1336 1916 1237 C2026 1107,2043 1073,2037 998 C2032 943,2033 940,2053 940 C2115 940,2261 996,2329 1046 C2379 1083,2450 1162,2480 1215 L2511 1269 2475 1306 C2443 1339,2400 1430,2400 1464 C2400 1472,2391 1498,2380 1523 C2362 1566,2354 1572,2268 1613 C2216 1637,2133 1669,2083 1683 C2033 1697,1971 1718,1946 1729 C1891 1753,1895 1753,1865 1735 M2462 1589 C2442 1578,2422 1566,2417 1561 C2404 1548,2467 1368,2497 1337 C2523 1310,2524 1310,2531 1329 C2549 1377,2561 1485,2556 1545 C2550 1606,2548 1610,2525 1610 C2511 1610,2483 1600,2462 1589 M1752 1277 C1731 1265,1713 1253,1711 1252 C1708 1251,1723 1232,1742 1211 C1761 1189,1795 1143,1816 1107 C1842 1062,1868 1033,1897 1016 C1922 1000,1941 980,1945 965 C1952 936,1984 930,1993 955 C2009 996,1999 1067,1972 1107 C1920 1184,1819 1300,1805 1300 C1796 1300,1773 1289,1752 1277 M1490 1261 C1490 1243,1569 1132,1611 1093 C1661 1045,1765 980,1791 980 C1802 980,1812 989,1815 1003 C1822 1032,1764 1135,1702 1201 C1664 1242,1653 1247,1604 1253 C1574 1257,1536 1262,1520 1265 C1503 1267,1490 1266,1490 1261 M1844 983 C1838 963,1855 950,1887 950 C1919 949,1915 967,1880 985 C1852 998,1849 998,1844 983 " />
</g>

</svg>