<svg viewBox="0 0 7048 1361" fill="none" xmlns="http://www.w3.org/2000/svg">
<path d="M859.094 1318.87C865.2 1327.42 868.253 1332.91 868.253 1335.36C868.253 1341.46 863.979 1346.35 855.431 1350.01C846.882 1352.45 837.113 1353.67 826.123 1353.67H701.563C691.794 1353.67 683.245 1350.62 675.918 1344.51C669.813 1337.19 663.707 1330.47 657.601 1324.36L318.726 965.339L150.204 1141.19V1309.71C150.204 1339.02 135.55 1353.67 106.242 1353.67H42.1304C14.0435 1353.67 0 1339.02 0 1309.71V84.2611C0 70.8281 3.66351 60.4481 10.9905 53.1211C18.3176 44.5729 28.6975 40.2988 42.1304 40.2988H106.242C119.675 40.2988 130.055 44.5729 137.382 53.1211C145.93 61.6694 150.204 72.0494 150.204 84.2611V604.482L523.883 206.989C529.988 200.883 536.705 194.777 544.032 188.672C551.359 181.345 559.907 177.681 569.677 177.681H694.236C719.881 177.681 732.703 184.397 732.703 197.83C732.703 202.715 730.26 207.6 725.376 212.485L150.204 822.462V923.209L635.62 410.315C641.726 404.209 648.442 398.103 655.769 391.997C663.096 384.67 671.644 381.007 681.414 381.007H805.973C816.964 381.007 827.954 384.06 838.945 390.166C849.935 396.271 849.935 404.82 838.945 415.81L421.304 855.433L859.094 1318.87Z" fill="#F6C90E"/>
<path d="M1165.61 42.1306C1186.37 42.1306 1196.75 51.8999 1196.75 71.4387V1326.2C1196.75 1344.51 1186.37 1353.67 1165.61 1353.67H1070.36C1052.04 1353.67 1042.89 1344.51 1042.89 1326.2V69.607C1042.89 61.0588 1045.33 54.3423 1050.21 49.4576C1056.32 44.5729 1063.03 42.1306 1070.36 42.1306H1165.61Z" fill="#F6C90E"/>
<path d="M2583.56 40.2988C2597 40.2988 2606.16 43.3517 2611.04 49.4576C2615.93 54.3423 2618.37 61.0588 2618.37 69.607L2609.21 1326.2C2609.21 1344.51 2598.22 1353.67 2576.24 1353.67H2459.01L1645.7 254.615V936.031L1966.26 937.863C1984.58 937.863 1993.74 947.632 1993.74 967.171V1060.59C1993.74 1069.14 1991.3 1076.47 1986.41 1082.57C1981.53 1088.68 1974.2 1091.73 1964.43 1091.73L1521.15 1089.9C1502.83 1089.9 1493.67 1081.96 1493.67 1066.09V64.1116C1493.67 44.5729 1504.05 34.8035 1524.81 34.8035H1651.2C1663.41 34.8035 1673.18 39.6882 1680.51 49.4576L2459.01 1099.06L2466.33 67.7752C2466.33 60.4482 2468.77 54.3423 2473.66 49.4576C2479.77 43.3517 2486.48 40.2988 2493.81 40.2988H2583.56ZM2125.63 1199.8C2143.94 1199.8 2153.1 1209.57 2153.1 1229.11V1322.53C2153.1 1331.08 2150.05 1338.41 2143.94 1344.51C2139.06 1350.62 2132.34 1353.67 2123.79 1353.67H1521.15C1502.83 1353.67 1493.67 1344.51 1493.67 1326.2V1232.78C1493.67 1223.01 1496.11 1215.07 1501 1208.96C1505.88 1202.86 1513.21 1199.8 1522.98 1199.8H2125.63Z" fill="#F6C90E"/>
<path d="M3503.08 42.1306C3521.4 42.1306 3532.39 51.2894 3536.05 69.607V159.363C3536.05 182.566 3525.06 194.167 3503.08 194.167H3118.41V1324.36C3118.41 1331.69 3115.36 1338.41 3109.25 1344.51C3104.37 1350.62 3097.04 1353.67 3087.27 1353.67H2995.68C2976.14 1353.67 2966.37 1343.9 2966.37 1324.36V69.607C2966.37 51.2894 2976.14 42.1306 2995.68 42.1306H3503.08Z" fill="#F6C90E"/>
<path d="M3951.82 243.625C3949.37 246.067 3943.88 253.394 3935.33 265.606C3928 277.817 3920.06 293.082 3911.52 311.4C3902.97 328.496 3895.03 346.814 3887.7 366.353C3881.6 385.891 3878.55 404.82 3878.55 423.137C3878.55 473.205 3895.03 520.221 3928 564.183C3949.98 593.491 3972.58 622.189 3995.78 650.276C4020.2 677.142 4041.57 705.229 4059.89 734.537C4079.43 763.845 4095.3 795.596 4107.52 829.789C4119.73 863.982 4125.83 903.059 4125.83 947.022C4125.83 1000.75 4116.06 1052.04 4096.52 1100.89C4076.99 1148.52 4050.12 1191.26 4015.93 1229.11C3981.73 1266.97 3940.82 1297.5 3893.2 1320.7C3845.57 1343.9 3794.28 1357.34 3739.33 1361C3729.56 1361 3722.24 1357.95 3717.35 1351.84C3712.47 1345.74 3710.02 1337.8 3710.02 1328.03V1247.43C3710.02 1230.33 3719.79 1220.56 3739.33 1218.12C3772.3 1214.46 3803.44 1203.47 3832.75 1185.15C3862.06 1166.83 3887.7 1144.85 3909.68 1119.21C3931.67 1092.34 3949.37 1063.03 3962.81 1031.28C3976.24 998.311 3982.96 965.95 3982.96 934.199C3982.96 897.564 3974.41 863.982 3957.31 833.452C3941.44 802.923 3921.9 774.225 3898.69 747.359C3875.49 720.493 3851.68 693.628 3827.26 666.762C3804.05 639.896 3785.13 611.809 3770.47 582.501C3743.61 528.769 3730.17 473.205 3730.17 415.81C3730.17 363.3 3739.94 312.621 3759.48 263.774C3780.24 214.927 3808.33 171.575 3843.74 133.719C3879.16 95.8623 3920.68 64.7223 3968.3 40.2988C4017.15 15.8753 4069.66 2.44232 4125.83 0C4135.6 0 4142.93 3.05294 4147.81 9.15881C4152.7 15.2647 4155.14 23.2023 4155.14 32.9717V117.233C4155.14 133.108 4145.37 142.267 4125.83 144.709C4090.42 149.594 4058.06 161.195 4028.75 179.513C4000.66 196.609 3975.02 217.98 3951.82 243.625Z" fill="#F6C90E"/>
<path d="M5403.43 20.1494C5411.97 20.1494 5419.91 22.5917 5427.24 27.4764C5434.57 31.14 5438.23 37.8564 5438.23 47.6258V815.135C5438.23 890.847 5424.19 961.676 5396.1 1027.62C5368.01 1092.34 5329.54 1149.13 5280.7 1197.97C5233.07 1246.82 5176.29 1285.29 5110.34 1313.37C5044.4 1340.24 4973.57 1353.67 4897.86 1353.67C4824.59 1353.67 4755.59 1339.63 4690.87 1311.54C4626.15 1282.23 4569.37 1243.16 4520.52 1194.31C4471.67 1145.46 4432.59 1088.68 4403.29 1023.96C4375.2 958.012 4361.16 888.405 4361.16 815.135V47.6258C4361.16 40.2987 4363.6 34.1929 4368.48 29.3082C4373.37 23.2023 4379.47 20.1494 4386.8 20.1494H4485.72C4493.04 20.1494 4499.76 23.2023 4505.86 29.3082C4511.97 34.1929 4515.02 40.2987 4515.02 47.6258V791.322C4515.02 849.938 4524.18 904.28 4542.5 954.349C4562.04 1004.42 4588.29 1048.38 4621.27 1086.24C4655.46 1124.09 4696.37 1154.01 4743.99 1175.99C4792.84 1196.75 4846.57 1207.13 4905.19 1207.13C4965.03 1207.13 5018.76 1196.14 5066.38 1174.16C5114.01 1152.18 5153.7 1122.26 5185.45 1084.4C5218.42 1046.55 5243.45 1002.59 5260.55 952.517C5277.65 901.227 5286.19 847.496 5286.19 791.322V47.6258C5286.19 39.0776 5289.25 32.3611 5295.35 27.4764C5301.46 22.5917 5308.78 20.1494 5317.33 20.1494H5403.43Z" fill="#F6C90E"/>
<path d="M6554.9 227.139C6515.82 203.936 6474.3 186.84 6430.34 175.849C6387.6 164.859 6344.25 159.363 6300.29 159.363C6228.24 159.363 6159.85 173.407 6095.13 201.494C6030.41 228.36 5973.01 265.606 5922.94 313.231C5874.1 359.636 5835.02 414.589 5805.71 478.09C5776.4 541.591 5761.75 608.756 5761.75 679.584C5761.75 750.412 5775.18 817.577 5802.05 881.078C5828.91 944.579 5865.55 1000.14 5911.95 1047.77C5959.58 1095.39 6014.53 1133.25 6076.81 1161.34C6139.09 1189.42 6205.64 1203.47 6276.47 1203.47C6327.76 1203.47 6377.83 1194.92 6426.68 1177.82C6475.52 1160.73 6523.15 1140.58 6569.55 1117.38V796.817C6569.55 783.384 6573.22 773.004 6580.54 765.677C6587.87 757.129 6598.25 752.855 6611.68 752.855H6675.8C6689.23 752.855 6699.61 757.129 6706.94 765.677C6715.48 773.004 6719.76 783.384 6719.76 796.817V1179.66C6719.76 1190.65 6717.32 1199.19 6712.43 1205.3C6707.55 1210.18 6700.22 1216.29 6690.45 1223.62C6629.39 1266.36 6564.67 1298.72 6496.28 1320.7C6429.12 1342.68 6358.29 1353.67 6283.8 1353.67C6222.74 1353.67 6162.9 1345.74 6104.29 1329.86C6046.89 1312.76 5992.55 1288.95 5941.26 1258.42C5889.97 1227.89 5842.96 1191.26 5800.22 1148.52C5758.7 1105.77 5723.28 1057.54 5693.97 1003.81C5693.97 1005.03 5696.42 1010.52 5701.3 1020.29C5707.41 1030.06 5710.46 1034.34 5710.46 1033.11C5644.52 924.43 5611.54 805.976 5611.54 677.752C5611.54 586.164 5629.25 499.461 5664.67 417.642C5700.08 335.823 5748.32 264.384 5809.37 203.326C5870.43 141.046 5941.87 92.1988 6023.69 56.7847C6105.51 20.1494 6193.43 1.83174 6287.46 1.83174C6322.88 1.83174 6359.51 4.88467 6397.37 10.9905C6435.23 17.0964 6472.47 26.8658 6509.11 40.2988C6545.74 52.5106 6580.54 68.3858 6613.52 87.9246C6647.71 106.242 6678.24 128.834 6705.1 155.7C6713.65 164.248 6717.93 175.239 6717.93 188.672C6717.93 198.441 6714.87 208.821 6708.77 219.812C6703.88 229.581 6697.17 238.74 6688.62 247.288C6681.29 254.615 6673.35 260.721 6664.81 265.606C6656.26 270.49 6648.32 272.933 6640.99 272.933C6636.11 272.933 6628.78 270.49 6619.01 265.606C6610.46 260.721 6589.09 247.899 6554.9 227.139Z" fill="#F6C90E"/>
<path d="M7016.86 42.1306C7037.62 42.1306 7048 51.8999 7048 71.4387V1326.2C7048 1344.51 7037.62 1353.67 7016.86 1353.67H6921.61C6903.29 1353.67 6894.13 1344.51 6894.13 1326.2V69.607C6894.13 61.0588 6896.58 54.3423 6901.46 49.4576C6907.57 44.5729 6914.28 42.1306 6921.61 42.1306H7016.86Z" fill="#F6C90E"/>
</svg>
